G75*
%MOIN*%
%OFA0B0*%
%FSLAX24Y24*%
%IPPOS*%
%LPD*%
%AMOC8*
5,1,8,0,0,1.08239X$1,22.5*
%
%ADD10C,0.0000*%
%ADD11C,0.0197*%
%ADD12C,0.0472*%
%ADD13C,0.0650*%
%ADD14R,0.0472X0.0472*%
%ADD15OC8,0.0480*%
%ADD16C,0.0160*%
D10*
X000310Y000198D02*
X000310Y009155D01*
X000310Y018210D01*
X000310Y027265D01*
X000310Y036222D01*
X005920Y036222D01*
X011629Y036222D01*
X017338Y036222D01*
X023046Y036222D01*
X028755Y036222D01*
X034464Y036222D01*
X040172Y036222D01*
X045881Y036222D01*
X051590Y036222D01*
X057200Y036222D01*
X057200Y027265D01*
X057200Y018210D01*
X057200Y009155D01*
X057200Y000198D01*
X051590Y000198D01*
X045881Y000198D01*
X040172Y000198D01*
X034464Y000198D01*
X028755Y000198D01*
X023046Y000198D01*
X017338Y000198D01*
X011629Y000198D01*
X005920Y000198D01*
X000310Y000198D01*
D11*
X005920Y000198D02*
X005920Y036222D01*
X011629Y036222D02*
X011629Y000198D01*
X017338Y000198D02*
X017338Y036222D01*
X023046Y036222D02*
X023046Y000198D01*
X028755Y000198D02*
X028755Y036222D01*
X034464Y036222D02*
X034464Y000198D01*
X040172Y000198D02*
X040172Y036222D01*
X045881Y036222D02*
X045881Y000198D01*
X051590Y000198D02*
X051590Y036222D01*
X057200Y027265D02*
X000310Y027265D01*
X000310Y018210D02*
X057200Y018210D01*
X057200Y009155D02*
X000310Y009155D01*
D12*
X001386Y008088D03*
X001386Y007088D03*
X001386Y006088D03*
X007095Y006088D03*
X007095Y007088D03*
X007095Y008088D03*
X012803Y008088D03*
X012803Y007088D03*
X012803Y006088D03*
X018512Y006088D03*
X018512Y007088D03*
X018512Y008088D03*
X024221Y008088D03*
X024221Y007088D03*
X024221Y006088D03*
X029929Y006088D03*
X029929Y007088D03*
X029929Y008088D03*
X035638Y008088D03*
X035638Y007088D03*
X035638Y006088D03*
X041347Y006088D03*
X041347Y007088D03*
X041347Y008088D03*
X047055Y008088D03*
X047055Y007088D03*
X047055Y006088D03*
X052764Y006088D03*
X052764Y007088D03*
X052764Y008088D03*
X052764Y015143D03*
X052764Y016143D03*
X052764Y017143D03*
X047055Y017143D03*
X047055Y016143D03*
X047055Y015143D03*
X041347Y015143D03*
X041347Y016143D03*
X041347Y017143D03*
X035638Y017143D03*
X035638Y016143D03*
X035638Y015143D03*
X029929Y015143D03*
X029929Y016143D03*
X029929Y017143D03*
X024221Y017143D03*
X024221Y016143D03*
X024221Y015143D03*
X018512Y015143D03*
X018512Y016143D03*
X018512Y017143D03*
X012803Y017143D03*
X012803Y016143D03*
X012803Y015143D03*
X007095Y015143D03*
X007095Y016143D03*
X007095Y017143D03*
X001386Y017143D03*
X001386Y016143D03*
X001386Y015143D03*
X001386Y024199D03*
X001386Y025199D03*
X001386Y026199D03*
X007095Y026199D03*
X007095Y025199D03*
X007095Y024199D03*
X012803Y024199D03*
X012803Y025199D03*
X012803Y026199D03*
X018512Y026199D03*
X018512Y025199D03*
X018512Y024199D03*
X024221Y024199D03*
X024221Y025199D03*
X024221Y026199D03*
X029929Y026199D03*
X029929Y025199D03*
X029929Y024199D03*
X035638Y024199D03*
X035638Y025199D03*
X035638Y026199D03*
X041347Y026199D03*
X041347Y025199D03*
X041347Y024199D03*
X047055Y024199D03*
X047055Y025199D03*
X047055Y026199D03*
X052764Y026199D03*
X052764Y025199D03*
X052764Y024199D03*
X052764Y033254D03*
X052764Y034254D03*
X052764Y035254D03*
X047055Y035254D03*
X047055Y034254D03*
X047055Y033254D03*
X041347Y033254D03*
X041347Y034254D03*
X041347Y035254D03*
X035638Y035254D03*
X035638Y034254D03*
X035638Y033254D03*
X029929Y033254D03*
X029929Y034254D03*
X029929Y035254D03*
X024221Y035254D03*
X024221Y034254D03*
X024221Y033254D03*
X018512Y033254D03*
X018512Y034254D03*
X018512Y035254D03*
X012803Y035254D03*
X012803Y034254D03*
X012803Y033254D03*
X007095Y033254D03*
X007095Y034254D03*
X007095Y035254D03*
X001386Y035254D03*
X001386Y034254D03*
X001386Y033254D03*
D13*
X004110Y029082D02*
X004110Y028433D01*
X005051Y028433D02*
X005051Y029082D01*
X009819Y029082D02*
X009819Y028433D01*
X010759Y028433D02*
X010759Y029082D01*
X015527Y029082D02*
X015527Y028433D01*
X016468Y028433D02*
X016468Y029082D01*
X021236Y029082D02*
X021236Y028433D01*
X022177Y028433D02*
X022177Y029082D01*
X026945Y029082D02*
X026945Y028433D01*
X027885Y028433D02*
X027885Y029082D01*
X032653Y029082D02*
X032653Y028433D01*
X033594Y028433D02*
X033594Y029082D01*
X038362Y029082D02*
X038362Y028433D01*
X039303Y028433D02*
X039303Y029082D01*
X044071Y029082D02*
X044071Y028433D01*
X045011Y028433D02*
X045011Y029082D01*
X049779Y029082D02*
X049779Y028433D01*
X050720Y028433D02*
X050720Y029082D01*
X055488Y029082D02*
X055488Y028433D01*
X056429Y028433D02*
X056429Y029082D01*
X056429Y020027D02*
X056429Y019378D01*
X055488Y019378D02*
X055488Y020027D01*
X050720Y020027D02*
X050720Y019378D01*
X049779Y019378D02*
X049779Y020027D01*
X045011Y020027D02*
X045011Y019378D01*
X044071Y019378D02*
X044071Y020027D01*
X039303Y020027D02*
X039303Y019378D01*
X038362Y019378D02*
X038362Y020027D01*
X033594Y020027D02*
X033594Y019378D01*
X032653Y019378D02*
X032653Y020027D01*
X027885Y020027D02*
X027885Y019378D01*
X026945Y019378D02*
X026945Y020027D01*
X022177Y020027D02*
X022177Y019378D01*
X021236Y019378D02*
X021236Y020027D01*
X016468Y020027D02*
X016468Y019378D01*
X015527Y019378D02*
X015527Y020027D01*
X010759Y020027D02*
X010759Y019378D01*
X009819Y019378D02*
X009819Y020027D01*
X005051Y020027D02*
X005051Y019378D01*
X004110Y019378D02*
X004110Y020027D01*
X004110Y010972D02*
X004110Y010322D01*
X005051Y010322D02*
X005051Y010972D01*
X009819Y010972D02*
X009819Y010322D01*
X010759Y010322D02*
X010759Y010972D01*
X015527Y010972D02*
X015527Y010322D01*
X016468Y010322D02*
X016468Y010972D01*
X021236Y010972D02*
X021236Y010322D01*
X022177Y010322D02*
X022177Y010972D01*
X026945Y010972D02*
X026945Y010322D01*
X027885Y010322D02*
X027885Y010972D01*
X032653Y010972D02*
X032653Y010322D01*
X033594Y010322D02*
X033594Y010972D01*
X038362Y010972D02*
X038362Y010322D01*
X039303Y010322D02*
X039303Y010972D01*
X044071Y010972D02*
X044071Y010322D01*
X045011Y010322D02*
X045011Y010972D01*
X049779Y010972D02*
X049779Y010322D01*
X050720Y010322D02*
X050720Y010972D01*
X055488Y010972D02*
X055488Y010322D01*
X056429Y010322D02*
X056429Y010972D01*
X056429Y001917D02*
X056429Y001267D01*
X055488Y001267D02*
X055488Y001917D01*
X050720Y001917D02*
X050720Y001267D01*
X049779Y001267D02*
X049779Y001917D01*
X045011Y001917D02*
X045011Y001267D01*
X044071Y001267D02*
X044071Y001917D01*
X039303Y001917D02*
X039303Y001267D01*
X038362Y001267D02*
X038362Y001917D01*
X033594Y001917D02*
X033594Y001267D01*
X032653Y001267D02*
X032653Y001917D01*
X027885Y001917D02*
X027885Y001267D01*
X026945Y001267D02*
X026945Y001917D01*
X022177Y001917D02*
X022177Y001267D01*
X021236Y001267D02*
X021236Y001917D01*
X016468Y001917D02*
X016468Y001267D01*
X015527Y001267D02*
X015527Y001917D01*
X010759Y001917D02*
X010759Y001267D01*
X009819Y001267D02*
X009819Y001917D01*
X005051Y001917D02*
X005051Y001267D01*
X004110Y001267D02*
X004110Y001917D01*
D14*
X004743Y003470D03*
X004743Y004257D03*
X007105Y004257D03*
X007105Y003470D03*
X007105Y005045D03*
X010452Y004257D03*
X010452Y003470D03*
X012814Y003470D03*
X012814Y004257D03*
X012814Y005045D03*
X016160Y004257D03*
X016160Y003470D03*
X018523Y003470D03*
X018523Y004257D03*
X018523Y005045D03*
X021869Y004257D03*
X021869Y003470D03*
X024231Y003470D03*
X024231Y004257D03*
X024231Y005045D03*
X027578Y004257D03*
X027578Y003470D03*
X029940Y003470D03*
X029940Y004257D03*
X029940Y005045D03*
X033286Y004257D03*
X033286Y003470D03*
X035649Y003470D03*
X035649Y004257D03*
X035649Y005045D03*
X038995Y004257D03*
X038995Y003470D03*
X041357Y003470D03*
X041357Y004257D03*
X041357Y005045D03*
X044704Y004257D03*
X044704Y003470D03*
X047066Y003470D03*
X047066Y004257D03*
X047066Y005045D03*
X050412Y004257D03*
X050412Y003470D03*
X052775Y003470D03*
X052775Y004257D03*
X052775Y005045D03*
X056121Y004257D03*
X056121Y003470D03*
X056121Y012525D03*
X056121Y013313D03*
X052775Y013313D03*
X052775Y014100D03*
X052775Y012525D03*
X050412Y012525D03*
X050412Y013313D03*
X047066Y013313D03*
X047066Y014100D03*
X047066Y012525D03*
X044704Y012525D03*
X044704Y013313D03*
X041357Y013313D03*
X041357Y014100D03*
X041357Y012525D03*
X038995Y012525D03*
X038995Y013313D03*
X035649Y013313D03*
X035649Y014100D03*
X035649Y012525D03*
X033286Y012525D03*
X033286Y013313D03*
X029940Y013313D03*
X029940Y014100D03*
X029940Y012525D03*
X027578Y012525D03*
X027578Y013313D03*
X024231Y013313D03*
X024231Y014100D03*
X024231Y012525D03*
X021869Y012525D03*
X021869Y013313D03*
X018523Y013313D03*
X018523Y014100D03*
X018523Y012525D03*
X016160Y012525D03*
X016160Y013313D03*
X012814Y013313D03*
X012814Y014100D03*
X012814Y012525D03*
X010452Y012525D03*
X010452Y013313D03*
X007105Y013313D03*
X007105Y014100D03*
X007105Y012525D03*
X004743Y012525D03*
X004743Y013313D03*
X001397Y013313D03*
X001397Y014100D03*
X001397Y012525D03*
X001397Y005045D03*
X001397Y004257D03*
X001397Y003470D03*
X001397Y021580D03*
X001397Y022368D03*
X001397Y023155D03*
X004743Y022368D03*
X004743Y021580D03*
X007105Y021580D03*
X007105Y022368D03*
X007105Y023155D03*
X010452Y022368D03*
X010452Y021580D03*
X012814Y021580D03*
X012814Y022368D03*
X012814Y023155D03*
X016160Y022368D03*
X016160Y021580D03*
X018523Y021580D03*
X018523Y022368D03*
X018523Y023155D03*
X021869Y022368D03*
X021869Y021580D03*
X024231Y021580D03*
X024231Y022368D03*
X024231Y023155D03*
X027578Y022368D03*
X027578Y021580D03*
X029940Y021580D03*
X029940Y022368D03*
X029940Y023155D03*
X033286Y022368D03*
X033286Y021580D03*
X035649Y021580D03*
X035649Y022368D03*
X035649Y023155D03*
X038995Y022368D03*
X038995Y021580D03*
X041357Y021580D03*
X041357Y022368D03*
X041357Y023155D03*
X044704Y022368D03*
X044704Y021580D03*
X047066Y021580D03*
X047066Y022368D03*
X047066Y023155D03*
X050412Y022368D03*
X050412Y021580D03*
X052775Y021580D03*
X052775Y022368D03*
X052775Y023155D03*
X056121Y022368D03*
X056121Y021580D03*
X056121Y030635D03*
X056121Y031423D03*
X052775Y031423D03*
X052775Y032210D03*
X052775Y030635D03*
X050412Y030635D03*
X050412Y031423D03*
X047066Y031423D03*
X047066Y032210D03*
X047066Y030635D03*
X044704Y030635D03*
X044704Y031423D03*
X041357Y031423D03*
X041357Y032210D03*
X041357Y030635D03*
X038995Y030635D03*
X038995Y031423D03*
X035649Y031423D03*
X035649Y032210D03*
X035649Y030635D03*
X033286Y030635D03*
X033286Y031423D03*
X029940Y031423D03*
X029940Y032210D03*
X029940Y030635D03*
X027578Y030635D03*
X027578Y031423D03*
X024231Y031423D03*
X024231Y032210D03*
X024231Y030635D03*
X021869Y030635D03*
X021869Y031423D03*
X018523Y031423D03*
X018523Y032210D03*
X018523Y030635D03*
X016160Y030635D03*
X016160Y031423D03*
X012814Y031423D03*
X012814Y032210D03*
X012814Y030635D03*
X010452Y030635D03*
X010452Y031423D03*
X007105Y031423D03*
X007105Y032210D03*
X007105Y030635D03*
X004743Y030635D03*
X004743Y031423D03*
X001397Y031423D03*
X001397Y032210D03*
X001397Y030635D03*
D15*
X002566Y031399D03*
X003566Y031399D03*
X008275Y031399D03*
X009275Y031399D03*
X013983Y031399D03*
X014983Y031399D03*
X019692Y031399D03*
X020692Y031399D03*
X025401Y031399D03*
X026401Y031399D03*
X031109Y031399D03*
X032109Y031399D03*
X036818Y031399D03*
X037818Y031399D03*
X042527Y031399D03*
X043527Y031399D03*
X048235Y031399D03*
X049235Y031399D03*
X053944Y031399D03*
X054944Y031399D03*
X054944Y022344D03*
X053944Y022344D03*
X049235Y022344D03*
X048235Y022344D03*
X043527Y022344D03*
X042527Y022344D03*
X037818Y022344D03*
X036818Y022344D03*
X032109Y022344D03*
X031109Y022344D03*
X026401Y022344D03*
X025401Y022344D03*
X020692Y022344D03*
X019692Y022344D03*
X014983Y022344D03*
X013983Y022344D03*
X009275Y022344D03*
X008275Y022344D03*
X003566Y022344D03*
X002566Y022344D03*
X002566Y013289D03*
X003566Y013289D03*
X008275Y013289D03*
X009275Y013289D03*
X013983Y013289D03*
X014983Y013289D03*
X019692Y013289D03*
X020692Y013289D03*
X025401Y013289D03*
X026401Y013289D03*
X031109Y013289D03*
X032109Y013289D03*
X036818Y013289D03*
X037818Y013289D03*
X042527Y013289D03*
X043527Y013289D03*
X048235Y013289D03*
X049235Y013289D03*
X053944Y013289D03*
X054944Y013289D03*
X054944Y004234D03*
X053944Y004234D03*
X049235Y004234D03*
X048235Y004234D03*
X043527Y004234D03*
X042527Y004234D03*
X037818Y004234D03*
X036818Y004234D03*
X032109Y004234D03*
X031109Y004234D03*
X026401Y004234D03*
X025401Y004234D03*
X020692Y004234D03*
X019692Y004234D03*
X014983Y004234D03*
X013983Y004234D03*
X009275Y004234D03*
X008275Y004234D03*
X003566Y004234D03*
X002566Y004234D03*
D16*
X001802Y003470D01*
X001397Y003470D01*
X000812Y003673D02*
X000812Y003080D01*
X001127Y002765D01*
X003165Y002765D01*
X004110Y002213D01*
X004110Y001592D01*
X005051Y001592D02*
X005051Y001938D01*
X003566Y003030D01*
X003566Y004234D01*
X002755Y005045D01*
X001397Y005045D01*
X000797Y004700D02*
X001239Y004257D01*
X001397Y004257D01*
X000812Y003673D01*
X000797Y004700D02*
X000797Y005499D01*
X001386Y006088D01*
X006506Y005499D02*
X006506Y004700D01*
X006948Y004257D01*
X007105Y004257D01*
X006521Y003673D01*
X006521Y003080D01*
X006836Y002765D01*
X008873Y002765D01*
X009819Y002213D01*
X009819Y001592D01*
X010759Y001592D02*
X010759Y001938D01*
X009275Y003030D01*
X009275Y004234D01*
X008464Y005045D01*
X007105Y005045D01*
X006506Y005499D02*
X007095Y006088D01*
X008275Y004234D02*
X007511Y003470D01*
X007105Y003470D01*
X012229Y003673D02*
X012229Y003080D01*
X012544Y002765D01*
X014582Y002765D01*
X015527Y002213D01*
X015527Y001592D01*
X016468Y001592D02*
X016468Y001938D01*
X014983Y003030D01*
X014983Y004234D01*
X014172Y005045D01*
X012814Y005045D01*
X012214Y004700D02*
X012657Y004257D01*
X012814Y004257D01*
X012229Y003673D01*
X012814Y003470D02*
X013220Y003470D01*
X013983Y004234D01*
X012214Y004700D02*
X012214Y005499D01*
X012803Y006088D01*
X017923Y005499D02*
X017923Y004700D01*
X018365Y004257D01*
X018523Y004257D01*
X017938Y003673D01*
X017938Y003080D01*
X018253Y002765D01*
X020291Y002765D01*
X021236Y002213D01*
X021236Y001592D01*
X022177Y001592D02*
X022177Y001938D01*
X020692Y003030D01*
X020692Y004234D01*
X019881Y005045D01*
X018523Y005045D01*
X017923Y005499D02*
X018512Y006088D01*
X019692Y004234D02*
X018928Y003470D01*
X018523Y003470D01*
X023647Y003673D02*
X023647Y003080D01*
X023962Y002765D01*
X025999Y002765D01*
X026945Y002213D01*
X026945Y001592D01*
X027885Y001592D02*
X027885Y001938D01*
X026401Y003030D01*
X026401Y004234D01*
X025590Y005045D01*
X024231Y005045D01*
X023632Y004700D02*
X024074Y004257D01*
X024231Y004257D01*
X023647Y003673D01*
X024231Y003470D02*
X024637Y003470D01*
X025401Y004234D01*
X023632Y004700D02*
X023632Y005499D01*
X024221Y006088D01*
X029340Y005499D02*
X029340Y004700D01*
X029783Y004257D01*
X029940Y004257D01*
X029355Y003673D01*
X029355Y003080D01*
X029670Y002765D01*
X031708Y002765D01*
X032653Y002213D01*
X032653Y001592D01*
X033594Y001592D02*
X033594Y001938D01*
X032109Y003030D01*
X032109Y004234D01*
X031298Y005045D01*
X029940Y005045D01*
X029340Y005499D02*
X029929Y006088D01*
X031109Y004234D02*
X030346Y003470D01*
X029940Y003470D01*
X035064Y003673D02*
X035064Y003080D01*
X035379Y002765D01*
X037417Y002765D01*
X038362Y002213D01*
X038362Y001592D01*
X039303Y001592D02*
X039303Y001938D01*
X037818Y003030D01*
X037818Y004234D01*
X037007Y005045D01*
X035649Y005045D01*
X035049Y004700D02*
X035491Y004257D01*
X035649Y004257D01*
X035064Y003673D01*
X035649Y003470D02*
X036054Y003470D01*
X036818Y004234D01*
X035049Y004700D02*
X035049Y005499D01*
X035638Y006088D01*
X040758Y005499D02*
X040758Y004700D01*
X041200Y004257D01*
X041357Y004257D01*
X040773Y003673D01*
X040773Y003080D01*
X041088Y002765D01*
X043125Y002765D01*
X044071Y002213D01*
X044071Y001592D01*
X045011Y001592D02*
X045011Y001938D01*
X043527Y003030D01*
X043527Y004234D01*
X042716Y005045D01*
X041357Y005045D01*
X040758Y005499D02*
X041347Y006088D01*
X042527Y004234D02*
X041763Y003470D01*
X041357Y003470D01*
X046481Y003673D02*
X046481Y003080D01*
X046796Y002765D01*
X048834Y002765D01*
X049779Y002213D01*
X049779Y001592D01*
X050720Y001592D02*
X050720Y001938D01*
X049235Y003030D01*
X049235Y004234D01*
X048424Y005045D01*
X047066Y005045D01*
X046466Y004700D02*
X046909Y004257D01*
X047066Y004257D01*
X046481Y003673D01*
X047066Y003470D02*
X047471Y003470D01*
X048235Y004234D01*
X046466Y004700D02*
X046466Y005499D01*
X047055Y006088D01*
X052175Y005499D02*
X052175Y004700D01*
X052617Y004257D01*
X052775Y004257D01*
X052190Y003673D01*
X052190Y003080D01*
X052505Y002765D01*
X054543Y002765D01*
X055488Y002213D01*
X055488Y001592D01*
X056429Y001592D02*
X056429Y001938D01*
X054944Y003030D01*
X054944Y004234D01*
X054133Y005045D01*
X052775Y005045D01*
X052175Y005499D02*
X052764Y006088D01*
X053944Y004234D02*
X053180Y003470D01*
X052775Y003470D01*
X050720Y010647D02*
X050720Y010994D01*
X049235Y012085D01*
X049235Y013289D01*
X048424Y014100D01*
X047066Y014100D01*
X046466Y013755D02*
X046909Y013313D01*
X047066Y013313D01*
X046481Y012728D01*
X046481Y012135D01*
X046796Y011820D01*
X048834Y011820D01*
X049779Y011268D01*
X049779Y010647D01*
X052190Y012135D02*
X052505Y011820D01*
X054543Y011820D01*
X055488Y011268D01*
X055488Y010647D01*
X056429Y010647D02*
X056429Y010994D01*
X054944Y012085D01*
X054944Y013289D01*
X054133Y014100D01*
X052775Y014100D01*
X052175Y013755D02*
X052617Y013313D01*
X052775Y013313D01*
X052190Y012728D01*
X052190Y012135D01*
X052775Y012525D02*
X053180Y012525D01*
X053944Y013289D01*
X052175Y013755D02*
X052175Y014554D01*
X052764Y015143D01*
X048235Y013289D02*
X047471Y012525D01*
X047066Y012525D01*
X046466Y013755D02*
X046466Y014554D01*
X047055Y015143D01*
X043527Y013289D02*
X043527Y012085D01*
X045011Y010994D01*
X045011Y010647D01*
X044071Y010647D02*
X044071Y011268D01*
X043125Y011820D01*
X041088Y011820D01*
X040773Y012135D01*
X040773Y012728D01*
X041357Y013313D01*
X041200Y013313D01*
X040758Y013755D01*
X040758Y014554D01*
X041347Y015143D01*
X041357Y014100D02*
X042716Y014100D01*
X043527Y013289D01*
X042527Y013289D02*
X041763Y012525D01*
X041357Y012525D01*
X039303Y010994D02*
X037818Y012085D01*
X037818Y013289D01*
X037007Y014100D01*
X035649Y014100D01*
X035049Y013755D02*
X035491Y013313D01*
X035649Y013313D01*
X035064Y012728D01*
X035064Y012135D01*
X035379Y011820D01*
X037417Y011820D01*
X038362Y011268D01*
X038362Y010647D01*
X039303Y010647D02*
X039303Y010994D01*
X036818Y013289D02*
X036054Y012525D01*
X035649Y012525D01*
X035049Y013755D02*
X035049Y014554D01*
X035638Y015143D01*
X032109Y013289D02*
X032109Y012085D01*
X033594Y010994D01*
X033594Y010647D01*
X032653Y010647D02*
X032653Y011268D01*
X031708Y011820D01*
X029670Y011820D01*
X029355Y012135D01*
X029355Y012728D01*
X029940Y013313D01*
X029783Y013313D01*
X029340Y013755D01*
X029340Y014554D01*
X029929Y015143D01*
X029940Y014100D02*
X031298Y014100D01*
X032109Y013289D01*
X031109Y013289D02*
X030346Y012525D01*
X029940Y012525D01*
X027885Y010994D02*
X026401Y012085D01*
X026401Y013289D01*
X025590Y014100D01*
X024231Y014100D01*
X023632Y013755D02*
X024074Y013313D01*
X024231Y013313D01*
X023647Y012728D01*
X023647Y012135D01*
X023962Y011820D01*
X025999Y011820D01*
X026945Y011268D01*
X026945Y010647D01*
X027885Y010647D02*
X027885Y010994D01*
X025401Y013289D02*
X024637Y012525D01*
X024231Y012525D01*
X023632Y013755D02*
X023632Y014554D01*
X024221Y015143D01*
X020692Y013289D02*
X020692Y012085D01*
X022177Y010994D01*
X022177Y010647D01*
X021236Y010647D02*
X021236Y011268D01*
X020291Y011820D01*
X018253Y011820D01*
X017938Y012135D01*
X017938Y012728D01*
X018523Y013313D01*
X018365Y013313D01*
X017923Y013755D01*
X017923Y014554D01*
X018512Y015143D01*
X018523Y014100D02*
X019881Y014100D01*
X020692Y013289D01*
X019692Y013289D02*
X018928Y012525D01*
X018523Y012525D01*
X016468Y010994D02*
X014983Y012085D01*
X014983Y013289D01*
X014172Y014100D01*
X012814Y014100D01*
X012214Y013755D02*
X012657Y013313D01*
X012814Y013313D01*
X012229Y012728D01*
X012229Y012135D01*
X012544Y011820D01*
X014582Y011820D01*
X015527Y011268D01*
X015527Y010647D01*
X016468Y010647D02*
X016468Y010994D01*
X013983Y013289D02*
X013220Y012525D01*
X012814Y012525D01*
X012214Y013755D02*
X012214Y014554D01*
X012803Y015143D01*
X009275Y013289D02*
X009275Y012085D01*
X010759Y010994D01*
X010759Y010647D01*
X009819Y010647D02*
X009819Y011268D01*
X008873Y011820D01*
X006836Y011820D01*
X006521Y012135D01*
X006521Y012728D01*
X007105Y013313D01*
X006948Y013313D01*
X006506Y013755D01*
X006506Y014554D01*
X007095Y015143D01*
X007105Y014100D02*
X008464Y014100D01*
X009275Y013289D01*
X008275Y013289D02*
X007511Y012525D01*
X007105Y012525D01*
X005051Y010994D02*
X003566Y012085D01*
X003566Y013289D01*
X002755Y014100D01*
X001397Y014100D01*
X000797Y013755D02*
X001239Y013313D01*
X001397Y013313D01*
X000812Y012728D01*
X000812Y012135D01*
X001127Y011820D01*
X003165Y011820D01*
X004110Y011268D01*
X004110Y010647D01*
X005051Y010647D02*
X005051Y010994D01*
X002566Y013289D02*
X001802Y012525D01*
X001397Y012525D01*
X000797Y013755D02*
X000797Y014554D01*
X001386Y015143D01*
X004110Y019702D02*
X004110Y020323D01*
X003165Y020875D01*
X001127Y020875D01*
X000812Y021190D01*
X000812Y021783D01*
X001397Y022368D01*
X001239Y022368D01*
X000797Y022810D01*
X000797Y023609D01*
X001386Y024199D01*
X001397Y023155D02*
X002755Y023155D01*
X003566Y022344D01*
X003566Y021140D01*
X005051Y020049D01*
X005051Y019702D01*
X006521Y021190D02*
X006836Y020875D01*
X008873Y020875D01*
X009819Y020323D01*
X009819Y019702D01*
X010759Y019702D02*
X010759Y020049D01*
X009275Y021140D01*
X009275Y022344D01*
X008464Y023155D01*
X007105Y023155D01*
X006506Y022810D02*
X006948Y022368D01*
X007105Y022368D01*
X006521Y021783D01*
X006521Y021190D01*
X007105Y021580D02*
X007511Y021580D01*
X008275Y022344D01*
X006506Y022810D02*
X006506Y023609D01*
X007095Y024199D01*
X002566Y022344D02*
X001802Y021580D01*
X001397Y021580D01*
X004110Y028757D02*
X004110Y029379D01*
X003165Y029930D01*
X001127Y029930D01*
X000812Y030245D01*
X000812Y030838D01*
X001397Y031423D01*
X001239Y031423D01*
X000797Y031865D01*
X000797Y032665D01*
X001386Y033254D01*
X001397Y032210D02*
X002755Y032210D01*
X003566Y031399D01*
X003566Y030195D01*
X005051Y029104D01*
X005051Y028757D01*
X006521Y030245D02*
X006836Y029930D01*
X008873Y029930D01*
X009819Y029379D01*
X009819Y028757D01*
X010759Y028757D02*
X010759Y029104D01*
X009275Y030195D01*
X009275Y031399D01*
X008464Y032210D01*
X007105Y032210D01*
X006506Y031865D02*
X006948Y031423D01*
X007105Y031423D01*
X006521Y030838D01*
X006521Y030245D01*
X007105Y030635D02*
X007511Y030635D01*
X008275Y031399D01*
X006506Y031865D02*
X006506Y032665D01*
X007095Y033254D01*
X002566Y031399D02*
X001802Y030635D01*
X001397Y030635D01*
X012229Y030838D02*
X012229Y030245D01*
X012544Y029930D01*
X014582Y029930D01*
X015527Y029379D01*
X015527Y028757D01*
X016468Y028757D02*
X016468Y029104D01*
X014983Y030195D01*
X014983Y031399D01*
X014172Y032210D01*
X012814Y032210D01*
X012214Y031865D02*
X012657Y031423D01*
X012814Y031423D01*
X012229Y030838D01*
X012814Y030635D02*
X013220Y030635D01*
X013983Y031399D01*
X012214Y031865D02*
X012214Y032665D01*
X012803Y033254D01*
X017923Y032665D02*
X017923Y031865D01*
X018365Y031423D01*
X018523Y031423D01*
X017938Y030838D01*
X017938Y030245D01*
X018253Y029930D01*
X020291Y029930D01*
X021236Y029379D01*
X021236Y028757D01*
X022177Y028757D02*
X022177Y029104D01*
X020692Y030195D01*
X020692Y031399D01*
X019881Y032210D01*
X018523Y032210D01*
X017923Y032665D02*
X018512Y033254D01*
X019692Y031399D02*
X018928Y030635D01*
X018523Y030635D01*
X023647Y030838D02*
X023647Y030245D01*
X023962Y029930D01*
X025999Y029930D01*
X026945Y029379D01*
X026945Y028757D01*
X027885Y028757D02*
X027885Y029104D01*
X026401Y030195D01*
X026401Y031399D01*
X025590Y032210D01*
X024231Y032210D01*
X023632Y031865D02*
X024074Y031423D01*
X024231Y031423D01*
X023647Y030838D01*
X024231Y030635D02*
X024637Y030635D01*
X025401Y031399D01*
X023632Y031865D02*
X023632Y032665D01*
X024221Y033254D01*
X029340Y032665D02*
X029340Y031865D01*
X029783Y031423D01*
X029940Y031423D01*
X029355Y030838D01*
X029355Y030245D01*
X029670Y029930D01*
X031708Y029930D01*
X032653Y029379D01*
X032653Y028757D01*
X033594Y028757D02*
X033594Y029104D01*
X032109Y030195D01*
X032109Y031399D01*
X031298Y032210D01*
X029940Y032210D01*
X029340Y032665D02*
X029929Y033254D01*
X031109Y031399D02*
X030346Y030635D01*
X029940Y030635D01*
X035064Y030838D02*
X035064Y030245D01*
X035379Y029930D01*
X037417Y029930D01*
X038362Y029379D01*
X038362Y028757D01*
X039303Y028757D02*
X039303Y029104D01*
X037818Y030195D01*
X037818Y031399D01*
X037007Y032210D01*
X035649Y032210D01*
X035049Y031865D02*
X035491Y031423D01*
X035649Y031423D01*
X035064Y030838D01*
X035649Y030635D02*
X036054Y030635D01*
X036818Y031399D01*
X035049Y031865D02*
X035049Y032665D01*
X035638Y033254D01*
X040758Y032665D02*
X040758Y031865D01*
X041200Y031423D01*
X041357Y031423D01*
X040773Y030838D01*
X040773Y030245D01*
X041088Y029930D01*
X043125Y029930D01*
X044071Y029379D01*
X044071Y028757D01*
X045011Y028757D02*
X045011Y029104D01*
X043527Y030195D01*
X043527Y031399D01*
X042716Y032210D01*
X041357Y032210D01*
X040758Y032665D02*
X041347Y033254D01*
X042527Y031399D02*
X041763Y030635D01*
X041357Y030635D01*
X046481Y030838D02*
X046481Y030245D01*
X046796Y029930D01*
X048834Y029930D01*
X049779Y029379D01*
X049779Y028757D01*
X050720Y028757D02*
X050720Y029104D01*
X049235Y030195D01*
X049235Y031399D01*
X048424Y032210D01*
X047066Y032210D01*
X046466Y031865D02*
X046909Y031423D01*
X047066Y031423D01*
X046481Y030838D01*
X047066Y030635D02*
X047471Y030635D01*
X048235Y031399D01*
X046466Y031865D02*
X046466Y032665D01*
X047055Y033254D01*
X052175Y032665D02*
X052175Y031865D01*
X052617Y031423D01*
X052775Y031423D01*
X052190Y030838D01*
X052190Y030245D01*
X052505Y029930D01*
X054543Y029930D01*
X055488Y029379D01*
X055488Y028757D01*
X056429Y028757D02*
X056429Y029104D01*
X054944Y030195D01*
X054944Y031399D01*
X054133Y032210D01*
X052775Y032210D01*
X052175Y032665D02*
X052764Y033254D01*
X053944Y031399D02*
X053180Y030635D01*
X052775Y030635D01*
X052764Y024199D02*
X052175Y023609D01*
X052175Y022810D01*
X052617Y022368D01*
X052775Y022368D01*
X052190Y021783D01*
X052190Y021190D01*
X052505Y020875D01*
X054543Y020875D01*
X055488Y020323D01*
X055488Y019702D01*
X056429Y019702D02*
X056429Y020049D01*
X054944Y021140D01*
X054944Y022344D01*
X054133Y023155D01*
X052775Y023155D01*
X053944Y022344D02*
X053180Y021580D01*
X052775Y021580D01*
X050720Y020049D02*
X049235Y021140D01*
X049235Y022344D01*
X048424Y023155D01*
X047066Y023155D01*
X046466Y022810D02*
X046909Y022368D01*
X047066Y022368D01*
X046481Y021783D01*
X046481Y021190D01*
X046796Y020875D01*
X048834Y020875D01*
X049779Y020323D01*
X049779Y019702D01*
X050720Y019702D02*
X050720Y020049D01*
X048235Y022344D02*
X047471Y021580D01*
X047066Y021580D01*
X046466Y022810D02*
X046466Y023609D01*
X047055Y024199D01*
X043527Y022344D02*
X043527Y021140D01*
X045011Y020049D01*
X045011Y019702D01*
X044071Y019702D02*
X044071Y020323D01*
X043125Y020875D01*
X041088Y020875D01*
X040773Y021190D01*
X040773Y021783D01*
X041357Y022368D01*
X041200Y022368D01*
X040758Y022810D01*
X040758Y023609D01*
X041347Y024199D01*
X041357Y023155D02*
X042716Y023155D01*
X043527Y022344D01*
X042527Y022344D02*
X041763Y021580D01*
X041357Y021580D01*
X039303Y020049D02*
X037818Y021140D01*
X037818Y022344D01*
X037007Y023155D01*
X035649Y023155D01*
X035049Y022810D02*
X035491Y022368D01*
X035649Y022368D01*
X035064Y021783D01*
X035064Y021190D01*
X035379Y020875D01*
X037417Y020875D01*
X038362Y020323D01*
X038362Y019702D01*
X039303Y019702D02*
X039303Y020049D01*
X036818Y022344D02*
X036054Y021580D01*
X035649Y021580D01*
X035049Y022810D02*
X035049Y023609D01*
X035638Y024199D01*
X032109Y022344D02*
X032109Y021140D01*
X033594Y020049D01*
X033594Y019702D01*
X032653Y019702D02*
X032653Y020323D01*
X031708Y020875D01*
X029670Y020875D01*
X029355Y021190D01*
X029355Y021783D01*
X029940Y022368D01*
X029783Y022368D01*
X029340Y022810D01*
X029340Y023609D01*
X029929Y024199D01*
X029940Y023155D02*
X031298Y023155D01*
X032109Y022344D01*
X031109Y022344D02*
X030346Y021580D01*
X029940Y021580D01*
X027885Y020049D02*
X026401Y021140D01*
X026401Y022344D01*
X025590Y023155D01*
X024231Y023155D01*
X023632Y022810D02*
X024074Y022368D01*
X024231Y022368D01*
X023647Y021783D01*
X023647Y021190D01*
X023962Y020875D01*
X025999Y020875D01*
X026945Y020323D01*
X026945Y019702D01*
X027885Y019702D02*
X027885Y020049D01*
X025401Y022344D02*
X024637Y021580D01*
X024231Y021580D01*
X023632Y022810D02*
X023632Y023609D01*
X024221Y024199D01*
X020692Y022344D02*
X020692Y021140D01*
X022177Y020049D01*
X022177Y019702D01*
X021236Y019702D02*
X021236Y020323D01*
X020291Y020875D01*
X018253Y020875D01*
X017938Y021190D01*
X017938Y021783D01*
X018523Y022368D01*
X018365Y022368D01*
X017923Y022810D01*
X017923Y023609D01*
X018512Y024199D01*
X018523Y023155D02*
X019881Y023155D01*
X020692Y022344D01*
X019692Y022344D02*
X018928Y021580D01*
X018523Y021580D01*
X016468Y020049D02*
X014983Y021140D01*
X014983Y022344D01*
X014172Y023155D01*
X012814Y023155D01*
X012214Y022810D02*
X012657Y022368D01*
X012814Y022368D01*
X012229Y021783D01*
X012229Y021190D01*
X012544Y020875D01*
X014582Y020875D01*
X015527Y020323D01*
X015527Y019702D01*
X016468Y019702D02*
X016468Y020049D01*
X013983Y022344D02*
X013220Y021580D01*
X012814Y021580D01*
X012214Y022810D02*
X012214Y023609D01*
X012803Y024199D01*
M02*
