%
M48
M72
T01C0.0315
T02C0.0320
T03C0.0433
%
T01
X1386Y8088
X1386Y7088
X1386Y6088
X1397Y5045
X1397Y4257
X1397Y3470
X4743Y3470
X4743Y4257
X7105Y4257
X7105Y3470
X7105Y5045
X7095Y6088
X7095Y7088
X7095Y8088
X12803Y8088
X12803Y7088
X12803Y6088
X12814Y5045
X12814Y4257
X12814Y3470
X10452Y3470
X10452Y4257
X16160Y4257
X16160Y3470
X18523Y3470
X18523Y4257
X18523Y5045
X18512Y6088
X18512Y7088
X18512Y8088
X24221Y8088
X24221Y7088
X24221Y6088
X24231Y5045
X24231Y4257
X24231Y3470
X21869Y3470
X21869Y4257
X27578Y4257
X27578Y3470
X29940Y3470
X29940Y4257
X29940Y5045
X29929Y6088
X29929Y7088
X29929Y8088
X35638Y8088
X35638Y7088
X35638Y6088
X35649Y5045
X35649Y4257
X35649Y3470
X33286Y3470
X33286Y4257
X38995Y4257
X38995Y3470
X41357Y3470
X41357Y4257
X41357Y5045
X41347Y6088
X41347Y7088
X41347Y8088
X47055Y8088
X47055Y7088
X47055Y6088
X47066Y5045
X47066Y4257
X47066Y3470
X44704Y3470
X44704Y4257
X50412Y4257
X50412Y3470
X52775Y3470
X52775Y4257
X52775Y5045
X52764Y6088
X52764Y7088
X52764Y8088
X7095Y35254
X7095Y34254
X7095Y33254
X7105Y32210
X7105Y31423
X7105Y30635
X4743Y30635
X4743Y31423
X1397Y31423
X1397Y32210
X1386Y33254
X1386Y34254
X1386Y35254
X1397Y30635
X1386Y26199
X1386Y25199
X1386Y24199
X1397Y23155
X1397Y22368
X1397Y21580
X4743Y21580
X4743Y22368
X7105Y22368
X7105Y23155
X7095Y24199
X7095Y25199
X7095Y26199
X10452Y22368
X10452Y21580
X12814Y21580
X12814Y22368
X12814Y23155
X12803Y24199
X12803Y25199
X12803Y26199
X16160Y22368
X16160Y21580
X18523Y21580
X18523Y22368
X18523Y23155
X18512Y24199
X18512Y25199
X18512Y26199
X21869Y22368
X21869Y21580
X24231Y21580
X24231Y22368
X24231Y23155
X24221Y24199
X24221Y25199
X24221Y26199
X27578Y22368
X27578Y21580
X29940Y21580
X29940Y22368
X29940Y23155
X29929Y24199
X29929Y25199
X29929Y26199
X33286Y22368
X33286Y21580
X35649Y21580
X35649Y22368
X35649Y23155
X35638Y24199
X35638Y25199
X35638Y26199
X38995Y22368
X38995Y21580
X41357Y21580
X41357Y22368
X41357Y23155
X41347Y24199
X41347Y25199
X41347Y26199
X47055Y26199
X47055Y25199
X47055Y24199
X47066Y23155
X47066Y22368
X47066Y21580
X44704Y21580
X44704Y22368
X50412Y22368
X50412Y21580
X52775Y21580
X52775Y22368
X52775Y23155
X52764Y24199
X52764Y25199
X52764Y26199
X56121Y22368
X56121Y21580
X52764Y17143
X52764Y16143
X52764Y15143
X52775Y14100
X52775Y13313
X52775Y12525
X50412Y12525
X50412Y13313
X47066Y13313
X47066Y14100
X47055Y15143
X47055Y16143
X47055Y17143
X41347Y17143
X41347Y16143
X41347Y15143
X41357Y14100
X41357Y13313
X41357Y12525
X38995Y12525
X38995Y13313
X35649Y13313
X35649Y14100
X35638Y15143
X35638Y16143
X35638Y17143
X29929Y17143
X29929Y16143
X29929Y15143
X29940Y14100
X29940Y13313
X29940Y12525
X27578Y12525
X27578Y13313
X24231Y13313
X24231Y14100
X24221Y15143
X24221Y16143
X24221Y17143
X18512Y17143
X18512Y16143
X18512Y15143
X18523Y14100
X18523Y13313
X18523Y12525
X16160Y12525
X16160Y13313
X12814Y13313
X12814Y14100
X12803Y15143
X12803Y16143
X12803Y17143
X7095Y17143
X7095Y16143
X7095Y15143
X7105Y14100
X7105Y13313
X7105Y12525
X4743Y12525
X4743Y13313
X1397Y13313
X1397Y14100
X1386Y15143
X1386Y16143
X1386Y17143
X7105Y21580
X10452Y13313
X10452Y12525
X12814Y12525
X21869Y12525
X21869Y13313
X24231Y12525
X33286Y12525
X33286Y13313
X35649Y12525
X44704Y12525
X44704Y13313
X47066Y12525
X56121Y12525
X56121Y13313
X1397Y12525
X10452Y30635
X10452Y31423
X12814Y31423
X12814Y32210
X12803Y33254
X12803Y34254
X12803Y35254
X16160Y31423
X16160Y30635
X18523Y30635
X18523Y31423
X18523Y32210
X18512Y33254
X18512Y34254
X18512Y35254
X21869Y31423
X21869Y30635
X24231Y30635
X24231Y31423
X24231Y32210
X24221Y33254
X24221Y34254
X24221Y35254
X27578Y31423
X27578Y30635
X29940Y30635
X29940Y31423
X29940Y32210
X29929Y33254
X29929Y34254
X29929Y35254
X33286Y31423
X33286Y30635
X35649Y30635
X35649Y31423
X35649Y32210
X35638Y33254
X35638Y34254
X35638Y35254
X38995Y31423
X38995Y30635
X41357Y30635
X41357Y31423
X41357Y32210
X41347Y33254
X41347Y34254
X41347Y35254
X47055Y35254
X47055Y34254
X47055Y33254
X47066Y32210
X47066Y31423
X47066Y30635
X44704Y30635
X44704Y31423
X50412Y31423
X50412Y30635
X52775Y30635
X52775Y31423
X52775Y32210
X52764Y33254
X52764Y34254
X52764Y35254
X56121Y31423
X56121Y30635
X56121Y4257
X56121Y3470
X12814Y30635
T02
X2566Y13289
X3566Y13289
X8275Y13289
X9275Y13289
X13983Y13289
X14983Y13289
X19692Y13289
X20692Y13289
X25401Y13289
X26401Y13289
X31109Y13289
X32109Y13289
X36818Y13289
X37818Y13289
X42527Y13289
X43527Y13289
X48235Y13289
X49235Y13289
X53944Y13289
X54944Y13289
X3566Y31399
X2566Y31399
X8275Y31399
X9275Y31399
X13983Y31399
X14983Y31399
X19692Y31399
X20692Y31399
X25401Y31399
X26401Y31399
X31109Y31399
X32109Y31399
X36818Y31399
X37818Y31399
X42527Y31399
X43527Y31399
X48235Y31399
X49235Y31399
X53944Y31399
X54944Y31399
X54944Y22344
X53944Y22344
X49235Y22344
X48235Y22344
X43527Y22344
X42527Y22344
X37818Y22344
X36818Y22344
X32109Y22344
X31109Y22344
X26401Y22344
X25401Y22344
X20692Y22344
X19692Y22344
X14983Y22344
X13983Y22344
X9275Y22344
X8275Y22344
X3566Y22344
X2566Y22344
X2566Y4234
X3566Y4234
X8275Y4234
X9275Y4234
X13983Y4234
X14983Y4234
X19692Y4234
X20692Y4234
X25401Y4234
X26401Y4234
X31109Y4234
X32109Y4234
X36818Y4234
X37818Y4234
X42527Y4234
X43527Y4234
X48235Y4234
X49235Y4234
X53944Y4234
X54944Y4234
T03
X4110Y10647
X5051Y10647
X9819Y10647
X10759Y10647
X15527Y10647
X16468Y10647
X21236Y10647
X22177Y10647
X26945Y10647
X27885Y10647
X32653Y10647
X33594Y10647
X38362Y10647
X39303Y10647
X44071Y10647
X45011Y10647
X49779Y10647
X50720Y10647
X55488Y10647
X56429Y10647
X5051Y28757
X4110Y28757
X9819Y28757
X10759Y28757
X15527Y28757
X16468Y28757
X21236Y28757
X22177Y28757
X26945Y28757
X27885Y28757
X32653Y28757
X33594Y28757
X38362Y28757
X39303Y28757
X44071Y28757
X45011Y28757
X49779Y28757
X50720Y28757
X55488Y28757
X56429Y28757
X56429Y19702
X55488Y19702
X50720Y19702
X49779Y19702
X45011Y19702
X44071Y19702
X39303Y19702
X38362Y19702
X33594Y19702
X32653Y19702
X27885Y19702
X26945Y19702
X22177Y19702
X21236Y19702
X16468Y19702
X15527Y19702
X10759Y19702
X9819Y19702
X5051Y19702
X4110Y19702
X4110Y1592
X5051Y1592
X56429Y1592
X55488Y1592
X50720Y1592
X49779Y1592
X45011Y1592
X44071Y1592
X39303Y1592
X38362Y1592
X33594Y1592
X32653Y1592
X27885Y1592
X26945Y1592
X22177Y1592
X21236Y1592
X16468Y1592
X15527Y1592
X10759Y1592
X9819Y1592
M30
