G75*
%MOIN*%
%OFA0B0*%
%FSLAX24Y24*%
%IPPOS*%
%LPD*%
%AMOC8*
5,1,8,0,0,1.08239X$1,22.5*
%
%ADD10C,0.0100*%
%ADD11C,0.0000*%
%ADD12R,0.0197X0.0315*%
%ADD13R,0.0315X0.0197*%
%ADD14R,0.0335X0.0630*%
%ADD15R,0.1102X0.0394*%
%ADD16R,0.0630X0.0460*%
%ADD17R,0.0157X0.1024*%
%ADD18C,0.0059*%
%ADD19R,0.0200X0.0200*%
%ADD20R,0.0118X0.0236*%
%ADD21C,0.0040*%
%ADD22R,0.0280X0.0591*%
%ADD23R,0.1417X0.0965*%
D10*
X000574Y000574D02*
X000574Y015928D01*
X016715Y015928D01*
X016715Y000574D01*
X000574Y000574D01*
D11*
X001125Y001755D02*
X001127Y001805D01*
X001133Y001855D01*
X001143Y001904D01*
X001157Y001952D01*
X001174Y001999D01*
X001195Y002044D01*
X001220Y002088D01*
X001248Y002129D01*
X001280Y002168D01*
X001314Y002205D01*
X001351Y002239D01*
X001391Y002269D01*
X001433Y002296D01*
X001477Y002320D01*
X001523Y002341D01*
X001570Y002357D01*
X001618Y002370D01*
X001668Y002379D01*
X001717Y002384D01*
X001768Y002385D01*
X001818Y002382D01*
X001867Y002375D01*
X001916Y002364D01*
X001964Y002349D01*
X002010Y002331D01*
X002055Y002309D01*
X002098Y002283D01*
X002139Y002254D01*
X002178Y002222D01*
X002214Y002187D01*
X002246Y002149D01*
X002276Y002109D01*
X002303Y002066D01*
X002326Y002022D01*
X002345Y001976D01*
X002361Y001928D01*
X002373Y001879D01*
X002381Y001830D01*
X002385Y001780D01*
X002385Y001730D01*
X002381Y001680D01*
X002373Y001631D01*
X002361Y001582D01*
X002345Y001534D01*
X002326Y001488D01*
X002303Y001444D01*
X002276Y001401D01*
X002246Y001361D01*
X002214Y001323D01*
X002178Y001288D01*
X002139Y001256D01*
X002098Y001227D01*
X002055Y001201D01*
X002010Y001179D01*
X001964Y001161D01*
X001916Y001146D01*
X001867Y001135D01*
X001818Y001128D01*
X001768Y001125D01*
X001717Y001126D01*
X001668Y001131D01*
X001618Y001140D01*
X001570Y001153D01*
X001523Y001169D01*
X001477Y001190D01*
X001433Y001214D01*
X001391Y001241D01*
X001351Y001271D01*
X001314Y001305D01*
X001280Y001342D01*
X001248Y001381D01*
X001220Y001422D01*
X001195Y001466D01*
X001174Y001511D01*
X001157Y001558D01*
X001143Y001606D01*
X001133Y001655D01*
X001127Y001705D01*
X001125Y001755D01*
X001322Y014747D02*
X001324Y014797D01*
X001330Y014847D01*
X001340Y014896D01*
X001354Y014944D01*
X001371Y014991D01*
X001392Y015036D01*
X001417Y015080D01*
X001445Y015121D01*
X001477Y015160D01*
X001511Y015197D01*
X001548Y015231D01*
X001588Y015261D01*
X001630Y015288D01*
X001674Y015312D01*
X001720Y015333D01*
X001767Y015349D01*
X001815Y015362D01*
X001865Y015371D01*
X001914Y015376D01*
X001965Y015377D01*
X002015Y015374D01*
X002064Y015367D01*
X002113Y015356D01*
X002161Y015341D01*
X002207Y015323D01*
X002252Y015301D01*
X002295Y015275D01*
X002336Y015246D01*
X002375Y015214D01*
X002411Y015179D01*
X002443Y015141D01*
X002473Y015101D01*
X002500Y015058D01*
X002523Y015014D01*
X002542Y014968D01*
X002558Y014920D01*
X002570Y014871D01*
X002578Y014822D01*
X002582Y014772D01*
X002582Y014722D01*
X002578Y014672D01*
X002570Y014623D01*
X002558Y014574D01*
X002542Y014526D01*
X002523Y014480D01*
X002500Y014436D01*
X002473Y014393D01*
X002443Y014353D01*
X002411Y014315D01*
X002375Y014280D01*
X002336Y014248D01*
X002295Y014219D01*
X002252Y014193D01*
X002207Y014171D01*
X002161Y014153D01*
X002113Y014138D01*
X002064Y014127D01*
X002015Y014120D01*
X001965Y014117D01*
X001914Y014118D01*
X001865Y014123D01*
X001815Y014132D01*
X001767Y014145D01*
X001720Y014161D01*
X001674Y014182D01*
X001630Y014206D01*
X001588Y014233D01*
X001548Y014263D01*
X001511Y014297D01*
X001477Y014334D01*
X001445Y014373D01*
X001417Y014414D01*
X001392Y014458D01*
X001371Y014503D01*
X001354Y014550D01*
X001340Y014598D01*
X001330Y014647D01*
X001324Y014697D01*
X001322Y014747D01*
X014904Y014747D02*
X014906Y014797D01*
X014912Y014847D01*
X014922Y014896D01*
X014936Y014944D01*
X014953Y014991D01*
X014974Y015036D01*
X014999Y015080D01*
X015027Y015121D01*
X015059Y015160D01*
X015093Y015197D01*
X015130Y015231D01*
X015170Y015261D01*
X015212Y015288D01*
X015256Y015312D01*
X015302Y015333D01*
X015349Y015349D01*
X015397Y015362D01*
X015447Y015371D01*
X015496Y015376D01*
X015547Y015377D01*
X015597Y015374D01*
X015646Y015367D01*
X015695Y015356D01*
X015743Y015341D01*
X015789Y015323D01*
X015834Y015301D01*
X015877Y015275D01*
X015918Y015246D01*
X015957Y015214D01*
X015993Y015179D01*
X016025Y015141D01*
X016055Y015101D01*
X016082Y015058D01*
X016105Y015014D01*
X016124Y014968D01*
X016140Y014920D01*
X016152Y014871D01*
X016160Y014822D01*
X016164Y014772D01*
X016164Y014722D01*
X016160Y014672D01*
X016152Y014623D01*
X016140Y014574D01*
X016124Y014526D01*
X016105Y014480D01*
X016082Y014436D01*
X016055Y014393D01*
X016025Y014353D01*
X015993Y014315D01*
X015957Y014280D01*
X015918Y014248D01*
X015877Y014219D01*
X015834Y014193D01*
X015789Y014171D01*
X015743Y014153D01*
X015695Y014138D01*
X015646Y014127D01*
X015597Y014120D01*
X015547Y014117D01*
X015496Y014118D01*
X015447Y014123D01*
X015397Y014132D01*
X015349Y014145D01*
X015302Y014161D01*
X015256Y014182D01*
X015212Y014206D01*
X015170Y014233D01*
X015130Y014263D01*
X015093Y014297D01*
X015059Y014334D01*
X015027Y014373D01*
X014999Y014414D01*
X014974Y014458D01*
X014953Y014503D01*
X014936Y014550D01*
X014922Y014598D01*
X014912Y014647D01*
X014906Y014697D01*
X014904Y014747D01*
X014904Y001755D02*
X014906Y001805D01*
X014912Y001855D01*
X014922Y001904D01*
X014936Y001952D01*
X014953Y001999D01*
X014974Y002044D01*
X014999Y002088D01*
X015027Y002129D01*
X015059Y002168D01*
X015093Y002205D01*
X015130Y002239D01*
X015170Y002269D01*
X015212Y002296D01*
X015256Y002320D01*
X015302Y002341D01*
X015349Y002357D01*
X015397Y002370D01*
X015447Y002379D01*
X015496Y002384D01*
X015547Y002385D01*
X015597Y002382D01*
X015646Y002375D01*
X015695Y002364D01*
X015743Y002349D01*
X015789Y002331D01*
X015834Y002309D01*
X015877Y002283D01*
X015918Y002254D01*
X015957Y002222D01*
X015993Y002187D01*
X016025Y002149D01*
X016055Y002109D01*
X016082Y002066D01*
X016105Y002022D01*
X016124Y001976D01*
X016140Y001928D01*
X016152Y001879D01*
X016160Y001830D01*
X016164Y001780D01*
X016164Y001730D01*
X016160Y001680D01*
X016152Y001631D01*
X016140Y001582D01*
X016124Y001534D01*
X016105Y001488D01*
X016082Y001444D01*
X016055Y001401D01*
X016025Y001361D01*
X015993Y001323D01*
X015957Y001288D01*
X015918Y001256D01*
X015877Y001227D01*
X015834Y001201D01*
X015789Y001179D01*
X015743Y001161D01*
X015695Y001146D01*
X015646Y001135D01*
X015597Y001128D01*
X015547Y001125D01*
X015496Y001126D01*
X015447Y001131D01*
X015397Y001140D01*
X015349Y001153D01*
X015302Y001169D01*
X015256Y001190D01*
X015212Y001214D01*
X015170Y001241D01*
X015130Y001271D01*
X015093Y001305D01*
X015059Y001342D01*
X015027Y001381D01*
X014999Y001422D01*
X014974Y001466D01*
X014953Y001511D01*
X014936Y001558D01*
X014922Y001606D01*
X014912Y001655D01*
X014906Y001705D01*
X014904Y001755D01*
D12*
X007352Y004212D03*
X006762Y004212D03*
X005162Y004212D03*
X004572Y004212D03*
X006072Y007222D03*
X006662Y007222D03*
X006662Y007822D03*
X006662Y008422D03*
X006072Y008422D03*
X006072Y007822D03*
X009672Y009767D03*
X010262Y009767D03*
X010394Y011056D03*
X009804Y011056D03*
D13*
X011102Y009482D03*
X011102Y008892D03*
X011102Y008482D03*
X011102Y007892D03*
X011082Y006872D03*
X011082Y006282D03*
X011082Y005872D03*
X011082Y005282D03*
X011082Y004872D03*
X011082Y004282D03*
D14*
X014902Y009733D03*
X016102Y009733D03*
D15*
X007813Y009104D03*
X007813Y010403D03*
X006379Y010405D03*
X006379Y009105D03*
D16*
X008266Y007526D03*
X008266Y006926D03*
D17*
X009322Y006077D03*
X009912Y006077D03*
X010503Y006077D03*
X010503Y004827D03*
X009912Y004827D03*
X009322Y004827D03*
D18*
X008000Y004922D02*
X008000Y004982D01*
X008000Y004922D02*
X007782Y004922D01*
X007782Y004982D01*
X008000Y004982D01*
X008000Y004980D02*
X007782Y004980D01*
X008000Y005119D02*
X008000Y005179D01*
X008000Y005119D02*
X007782Y005119D01*
X007782Y005179D01*
X008000Y005179D01*
X008000Y005177D02*
X007782Y005177D01*
X008000Y005316D02*
X008000Y005376D01*
X008000Y005316D02*
X007782Y005316D01*
X007782Y005376D01*
X008000Y005376D01*
X008000Y005374D02*
X007782Y005374D01*
X008000Y005512D02*
X008000Y005572D01*
X008000Y005512D02*
X007782Y005512D01*
X007782Y005572D01*
X008000Y005572D01*
X008000Y005570D02*
X007782Y005570D01*
X008000Y005709D02*
X008000Y005769D01*
X008000Y005709D02*
X007782Y005709D01*
X007782Y005769D01*
X008000Y005769D01*
X008000Y005767D02*
X007782Y005767D01*
X008000Y005906D02*
X008000Y005966D01*
X008000Y005906D02*
X007782Y005906D01*
X007782Y005966D01*
X008000Y005966D01*
X008000Y005964D02*
X007782Y005964D01*
X008000Y006103D02*
X008000Y006163D01*
X008000Y006103D02*
X007782Y006103D01*
X007782Y006163D01*
X008000Y006163D01*
X008000Y006161D02*
X007782Y006161D01*
X008000Y006300D02*
X008000Y006360D01*
X008000Y006300D02*
X007782Y006300D01*
X007782Y006360D01*
X008000Y006360D01*
X008000Y006358D02*
X007782Y006358D01*
X007685Y006457D02*
X007685Y006675D01*
X007685Y006457D02*
X007625Y006457D01*
X007625Y006675D01*
X007685Y006675D01*
X007685Y006515D02*
X007625Y006515D01*
X007625Y006573D02*
X007685Y006573D01*
X007685Y006631D02*
X007625Y006631D01*
X007488Y006675D02*
X007488Y006457D01*
X007428Y006457D01*
X007428Y006675D01*
X007488Y006675D01*
X007488Y006515D02*
X007428Y006515D01*
X007428Y006573D02*
X007488Y006573D01*
X007488Y006631D02*
X007428Y006631D01*
X007291Y006675D02*
X007291Y006457D01*
X007231Y006457D01*
X007231Y006675D01*
X007291Y006675D01*
X007291Y006515D02*
X007231Y006515D01*
X007231Y006573D02*
X007291Y006573D01*
X007291Y006631D02*
X007231Y006631D01*
X007094Y006675D02*
X007094Y006457D01*
X007034Y006457D01*
X007034Y006675D01*
X007094Y006675D01*
X007094Y006515D02*
X007034Y006515D01*
X007034Y006573D02*
X007094Y006573D01*
X007094Y006631D02*
X007034Y006631D01*
X006897Y006675D02*
X006897Y006457D01*
X006837Y006457D01*
X006837Y006675D01*
X006897Y006675D01*
X006897Y006515D02*
X006837Y006515D01*
X006837Y006573D02*
X006897Y006573D01*
X006897Y006631D02*
X006837Y006631D01*
X006701Y006675D02*
X006701Y006457D01*
X006641Y006457D01*
X006641Y006675D01*
X006701Y006675D01*
X006701Y006515D02*
X006641Y006515D01*
X006641Y006573D02*
X006701Y006573D01*
X006701Y006631D02*
X006641Y006631D01*
X006504Y006675D02*
X006504Y006457D01*
X006444Y006457D01*
X006444Y006675D01*
X006504Y006675D01*
X006504Y006515D02*
X006444Y006515D01*
X006444Y006573D02*
X006504Y006573D01*
X006504Y006631D02*
X006444Y006631D01*
X006307Y006675D02*
X006307Y006457D01*
X006247Y006457D01*
X006247Y006675D01*
X006307Y006675D01*
X006307Y006515D02*
X006247Y006515D01*
X006247Y006573D02*
X006307Y006573D01*
X006307Y006631D02*
X006247Y006631D01*
X006150Y006360D02*
X006150Y006300D01*
X005932Y006300D01*
X005932Y006360D01*
X006150Y006360D01*
X006150Y006358D02*
X005932Y006358D01*
X006150Y006163D02*
X006150Y006103D01*
X005932Y006103D01*
X005932Y006163D01*
X006150Y006163D01*
X006150Y006161D02*
X005932Y006161D01*
X006150Y005966D02*
X006150Y005906D01*
X005932Y005906D01*
X005932Y005966D01*
X006150Y005966D01*
X006150Y005964D02*
X005932Y005964D01*
X006150Y005769D02*
X006150Y005709D01*
X005932Y005709D01*
X005932Y005769D01*
X006150Y005769D01*
X006150Y005767D02*
X005932Y005767D01*
X006150Y005572D02*
X006150Y005512D01*
X005932Y005512D01*
X005932Y005572D01*
X006150Y005572D01*
X006150Y005570D02*
X005932Y005570D01*
X006150Y005376D02*
X006150Y005316D01*
X005932Y005316D01*
X005932Y005376D01*
X006150Y005376D01*
X006150Y005374D02*
X005932Y005374D01*
X006150Y005179D02*
X006150Y005119D01*
X005932Y005119D01*
X005932Y005179D01*
X006150Y005179D01*
X006150Y005177D02*
X005932Y005177D01*
X006150Y004982D02*
X006150Y004922D01*
X005932Y004922D01*
X005932Y004982D01*
X006150Y004982D01*
X006150Y004980D02*
X005932Y004980D01*
X006307Y004825D02*
X006307Y004607D01*
X006247Y004607D01*
X006247Y004825D01*
X006307Y004825D01*
X006307Y004665D02*
X006247Y004665D01*
X006247Y004723D02*
X006307Y004723D01*
X006307Y004781D02*
X006247Y004781D01*
X006504Y004825D02*
X006504Y004607D01*
X006444Y004607D01*
X006444Y004825D01*
X006504Y004825D01*
X006504Y004665D02*
X006444Y004665D01*
X006444Y004723D02*
X006504Y004723D01*
X006504Y004781D02*
X006444Y004781D01*
X006701Y004825D02*
X006701Y004607D01*
X006641Y004607D01*
X006641Y004825D01*
X006701Y004825D01*
X006701Y004665D02*
X006641Y004665D01*
X006641Y004723D02*
X006701Y004723D01*
X006701Y004781D02*
X006641Y004781D01*
X006897Y004825D02*
X006897Y004607D01*
X006837Y004607D01*
X006837Y004825D01*
X006897Y004825D01*
X006897Y004665D02*
X006837Y004665D01*
X006837Y004723D02*
X006897Y004723D01*
X006897Y004781D02*
X006837Y004781D01*
X007094Y004825D02*
X007094Y004607D01*
X007034Y004607D01*
X007034Y004825D01*
X007094Y004825D01*
X007094Y004665D02*
X007034Y004665D01*
X007034Y004723D02*
X007094Y004723D01*
X007094Y004781D02*
X007034Y004781D01*
X007291Y004825D02*
X007291Y004607D01*
X007231Y004607D01*
X007231Y004825D01*
X007291Y004825D01*
X007291Y004665D02*
X007231Y004665D01*
X007231Y004723D02*
X007291Y004723D01*
X007291Y004781D02*
X007231Y004781D01*
X007488Y004825D02*
X007488Y004607D01*
X007428Y004607D01*
X007428Y004825D01*
X007488Y004825D01*
X007488Y004665D02*
X007428Y004665D01*
X007428Y004723D02*
X007488Y004723D01*
X007488Y004781D02*
X007428Y004781D01*
X007685Y004825D02*
X007685Y004607D01*
X007625Y004607D01*
X007625Y004825D01*
X007685Y004825D01*
X007685Y004665D02*
X007625Y004665D01*
X007625Y004723D02*
X007685Y004723D01*
X007685Y004781D02*
X007625Y004781D01*
D19*
X007316Y005291D03*
X007316Y005641D03*
X007316Y005991D03*
X006966Y005991D03*
X006966Y005641D03*
X006966Y005291D03*
X006616Y005291D03*
X006616Y005641D03*
X006616Y005991D03*
D20*
X009219Y007972D03*
X009416Y007972D03*
X009612Y007972D03*
X009809Y007972D03*
X010006Y007972D03*
X010203Y007972D03*
X010203Y008366D03*
X010006Y008366D03*
X009809Y008366D03*
X009612Y008366D03*
X009416Y008366D03*
X009219Y008366D03*
X009219Y008760D03*
X009416Y008760D03*
X009612Y008760D03*
X009809Y008760D03*
X010006Y008760D03*
X010203Y008760D03*
D21*
X010528Y008829D02*
X010528Y008888D01*
X010705Y008888D01*
X010705Y008829D01*
X010528Y008829D01*
X010528Y008856D02*
X010705Y008856D01*
X010705Y008691D02*
X010528Y008691D01*
X010528Y008632D01*
X010705Y008632D01*
X010705Y008691D01*
X010705Y008664D02*
X010528Y008664D01*
X010528Y008494D02*
X010705Y008494D01*
X010705Y008435D01*
X010528Y008435D01*
X010528Y008494D01*
X010528Y008471D02*
X010705Y008471D01*
X010705Y008297D02*
X010528Y008297D01*
X010528Y008238D01*
X010705Y008238D01*
X010705Y008297D01*
X010705Y008279D02*
X010528Y008279D01*
X010528Y008240D02*
X010705Y008240D01*
X010705Y008100D02*
X010705Y008041D01*
X010528Y008041D01*
X010528Y008100D01*
X010705Y008100D01*
X010705Y008086D02*
X010528Y008086D01*
X010528Y008048D02*
X010705Y008048D01*
X010705Y007903D02*
X010528Y007903D01*
X010528Y007844D01*
X010705Y007844D01*
X010705Y007903D01*
X010705Y007894D02*
X010528Y007894D01*
X010528Y007855D02*
X010705Y007855D01*
X010705Y007706D02*
X010528Y007706D01*
X010528Y007667D01*
X010548Y007647D01*
X010705Y007647D01*
X010705Y007706D01*
X010705Y007701D02*
X010528Y007701D01*
X010532Y007663D02*
X010705Y007663D01*
X010429Y007529D02*
X010429Y007372D01*
X010370Y007372D01*
X010370Y007549D01*
X010410Y007549D01*
X010429Y007529D01*
X010429Y007509D02*
X010370Y007509D01*
X010370Y007547D02*
X010411Y007547D01*
X010429Y007470D02*
X010370Y007470D01*
X010370Y007432D02*
X010429Y007432D01*
X010429Y007393D02*
X010370Y007393D01*
X010233Y007393D02*
X010174Y007393D01*
X010174Y007372D02*
X010233Y007372D01*
X010233Y007549D01*
X010174Y007549D01*
X010174Y007372D01*
X010174Y007432D02*
X010233Y007432D01*
X010233Y007470D02*
X010174Y007470D01*
X010174Y007509D02*
X010233Y007509D01*
X010233Y007547D02*
X010174Y007547D01*
X010036Y007547D02*
X009977Y007547D01*
X009977Y007549D02*
X010036Y007549D01*
X010036Y007372D01*
X009977Y007372D01*
X009977Y007549D01*
X009977Y007509D02*
X010036Y007509D01*
X010036Y007470D02*
X009977Y007470D01*
X009977Y007432D02*
X010036Y007432D01*
X010036Y007393D02*
X009977Y007393D01*
X009839Y007393D02*
X009780Y007393D01*
X009780Y007372D02*
X009839Y007372D01*
X009839Y007549D01*
X009780Y007549D01*
X009780Y007372D01*
X009780Y007432D02*
X009839Y007432D01*
X009839Y007470D02*
X009780Y007470D01*
X009780Y007509D02*
X009839Y007509D01*
X009839Y007547D02*
X009780Y007547D01*
X009642Y007547D02*
X009583Y007547D01*
X009583Y007549D02*
X009642Y007549D01*
X009642Y007372D01*
X009583Y007372D01*
X009583Y007549D01*
X009583Y007509D02*
X009642Y007509D01*
X009642Y007470D02*
X009583Y007470D01*
X009583Y007432D02*
X009642Y007432D01*
X009642Y007393D02*
X009583Y007393D01*
X009445Y007393D02*
X009386Y007393D01*
X009386Y007372D02*
X009445Y007372D01*
X009445Y007549D01*
X009386Y007549D01*
X009386Y007372D01*
X009386Y007432D02*
X009445Y007432D01*
X009445Y007470D02*
X009386Y007470D01*
X009386Y007509D02*
X009445Y007509D01*
X009445Y007547D02*
X009386Y007547D01*
X009248Y007547D02*
X009189Y007547D01*
X009189Y007549D02*
X009248Y007549D01*
X009248Y007372D01*
X009189Y007372D01*
X009189Y007549D01*
X009189Y007509D02*
X009248Y007509D01*
X009248Y007470D02*
X009189Y007470D01*
X009189Y007432D02*
X009248Y007432D01*
X009248Y007393D02*
X009189Y007393D01*
X009051Y007393D02*
X008992Y007393D01*
X008992Y007372D02*
X009051Y007372D01*
X009051Y007549D01*
X009012Y007549D01*
X008992Y007529D01*
X008992Y007372D01*
X008992Y007432D02*
X009051Y007432D01*
X009051Y007470D02*
X008992Y007470D01*
X008992Y007509D02*
X009051Y007509D01*
X009051Y007547D02*
X009010Y007547D01*
X008894Y007667D02*
X008894Y007706D01*
X008717Y007706D01*
X008717Y007647D01*
X008874Y007647D01*
X008894Y007667D01*
X008890Y007663D02*
X008717Y007663D01*
X008717Y007701D02*
X008894Y007701D01*
X008894Y007844D02*
X008717Y007844D01*
X008717Y007903D01*
X008894Y007903D01*
X008894Y007844D01*
X008894Y007855D02*
X008717Y007855D01*
X008717Y007894D02*
X008894Y007894D01*
X008894Y008041D02*
X008717Y008041D01*
X008717Y008100D01*
X008894Y008100D01*
X008894Y008041D01*
X008894Y008048D02*
X008717Y008048D01*
X008717Y008086D02*
X008894Y008086D01*
X008894Y008238D02*
X008717Y008238D01*
X008717Y008297D01*
X008894Y008297D01*
X008894Y008238D01*
X008894Y008240D02*
X008717Y008240D01*
X008717Y008279D02*
X008894Y008279D01*
X008894Y008435D02*
X008717Y008435D01*
X008717Y008494D01*
X008894Y008494D01*
X008894Y008435D01*
X008894Y008471D02*
X008717Y008471D01*
X008717Y008632D02*
X008717Y008691D01*
X008894Y008691D01*
X008894Y008632D01*
X008717Y008632D01*
X008717Y008664D02*
X008894Y008664D01*
X008894Y008829D02*
X008717Y008829D01*
X008717Y008888D01*
X008894Y008888D01*
X008894Y008829D01*
X008894Y008856D02*
X008717Y008856D01*
X008717Y009025D02*
X008717Y009084D01*
X008874Y009084D01*
X008894Y009065D01*
X008894Y009025D01*
X008717Y009025D01*
X008717Y009049D02*
X008894Y009049D01*
X009012Y009183D02*
X008992Y009203D01*
X009051Y009203D01*
X009051Y009183D02*
X009051Y009360D01*
X008992Y009360D01*
X008992Y009203D01*
X009012Y009183D02*
X009051Y009183D01*
X009051Y009241D02*
X008992Y009241D01*
X008992Y009280D02*
X009051Y009280D01*
X009051Y009318D02*
X008992Y009318D01*
X008992Y009357D02*
X009051Y009357D01*
X009189Y009357D02*
X009248Y009357D01*
X009248Y009360D02*
X009189Y009360D01*
X009189Y009183D01*
X009248Y009183D01*
X009248Y009360D01*
X009248Y009318D02*
X009189Y009318D01*
X009189Y009280D02*
X009248Y009280D01*
X009248Y009241D02*
X009189Y009241D01*
X009189Y009203D02*
X009248Y009203D01*
X009386Y009203D02*
X009445Y009203D01*
X009445Y009183D02*
X009386Y009183D01*
X009386Y009360D01*
X009445Y009360D01*
X009445Y009183D01*
X009445Y009241D02*
X009386Y009241D01*
X009386Y009280D02*
X009445Y009280D01*
X009445Y009318D02*
X009386Y009318D01*
X009386Y009357D02*
X009445Y009357D01*
X009583Y009357D02*
X009642Y009357D01*
X009642Y009360D02*
X009583Y009360D01*
X009583Y009183D01*
X009642Y009183D01*
X009642Y009360D01*
X009642Y009318D02*
X009583Y009318D01*
X009583Y009280D02*
X009642Y009280D01*
X009642Y009241D02*
X009583Y009241D01*
X009583Y009203D02*
X009642Y009203D01*
X009780Y009203D02*
X009839Y009203D01*
X009839Y009183D02*
X009780Y009183D01*
X009780Y009360D01*
X009839Y009360D01*
X009839Y009183D01*
X009839Y009241D02*
X009780Y009241D01*
X009780Y009280D02*
X009839Y009280D01*
X009839Y009318D02*
X009780Y009318D01*
X009780Y009357D02*
X009839Y009357D01*
X009977Y009357D02*
X010036Y009357D01*
X010036Y009360D02*
X009977Y009360D01*
X009977Y009183D01*
X010036Y009183D01*
X010036Y009360D01*
X010036Y009318D02*
X009977Y009318D01*
X009977Y009280D02*
X010036Y009280D01*
X010036Y009241D02*
X009977Y009241D01*
X009977Y009203D02*
X010036Y009203D01*
X010174Y009203D02*
X010233Y009203D01*
X010233Y009183D02*
X010174Y009183D01*
X010174Y009360D01*
X010233Y009360D01*
X010233Y009183D01*
X010233Y009241D02*
X010174Y009241D01*
X010174Y009280D02*
X010233Y009280D01*
X010233Y009318D02*
X010174Y009318D01*
X010174Y009357D02*
X010233Y009357D01*
X010370Y009357D02*
X010429Y009357D01*
X010429Y009360D02*
X010370Y009360D01*
X010370Y009183D01*
X010410Y009183D01*
X010429Y009203D01*
X010370Y009203D01*
X010370Y009241D02*
X010429Y009241D01*
X010429Y009203D02*
X010429Y009360D01*
X010429Y009318D02*
X010370Y009318D01*
X010370Y009280D02*
X010429Y009280D01*
X010548Y009084D02*
X010528Y009065D01*
X010528Y009025D01*
X010705Y009025D01*
X010705Y009084D01*
X010548Y009084D01*
X010528Y009049D02*
X010705Y009049D01*
D22*
X009351Y013497D03*
X008446Y013497D03*
X007540Y013497D03*
X006651Y013497D03*
X005746Y013497D03*
X004840Y013497D03*
D23*
X005746Y011243D03*
X008446Y011243D03*
M02*
