G75*
%MOIN*%
%OFA0B0*%
%FSLAX24Y24*%
%IPPOS*%
%LPD*%
%AMOC8*
5,1,8,0,0,1.08239X$1,22.5*
%
%ADD10C,0.0100*%
%ADD11C,0.0000*%
%ADD12C,0.1300*%
%ADD13C,0.0690*%
%ADD14C,0.1221*%
%ADD15C,0.0555*%
%ADD16R,0.0555X0.0555*%
%ADD17C,0.2009*%
%ADD18C,0.1739*%
D10*
X000574Y000574D02*
X000574Y015928D01*
X016715Y015928D01*
X016715Y000574D01*
X000574Y000574D01*
D11*
X001125Y001755D02*
X001127Y001805D01*
X001133Y001855D01*
X001143Y001904D01*
X001157Y001952D01*
X001174Y001999D01*
X001195Y002044D01*
X001220Y002088D01*
X001248Y002129D01*
X001280Y002168D01*
X001314Y002205D01*
X001351Y002239D01*
X001391Y002269D01*
X001433Y002296D01*
X001477Y002320D01*
X001523Y002341D01*
X001570Y002357D01*
X001618Y002370D01*
X001668Y002379D01*
X001717Y002384D01*
X001768Y002385D01*
X001818Y002382D01*
X001867Y002375D01*
X001916Y002364D01*
X001964Y002349D01*
X002010Y002331D01*
X002055Y002309D01*
X002098Y002283D01*
X002139Y002254D01*
X002178Y002222D01*
X002214Y002187D01*
X002246Y002149D01*
X002276Y002109D01*
X002303Y002066D01*
X002326Y002022D01*
X002345Y001976D01*
X002361Y001928D01*
X002373Y001879D01*
X002381Y001830D01*
X002385Y001780D01*
X002385Y001730D01*
X002381Y001680D01*
X002373Y001631D01*
X002361Y001582D01*
X002345Y001534D01*
X002326Y001488D01*
X002303Y001444D01*
X002276Y001401D01*
X002246Y001361D01*
X002214Y001323D01*
X002178Y001288D01*
X002139Y001256D01*
X002098Y001227D01*
X002055Y001201D01*
X002010Y001179D01*
X001964Y001161D01*
X001916Y001146D01*
X001867Y001135D01*
X001818Y001128D01*
X001768Y001125D01*
X001717Y001126D01*
X001668Y001131D01*
X001618Y001140D01*
X001570Y001153D01*
X001523Y001169D01*
X001477Y001190D01*
X001433Y001214D01*
X001391Y001241D01*
X001351Y001271D01*
X001314Y001305D01*
X001280Y001342D01*
X001248Y001381D01*
X001220Y001422D01*
X001195Y001466D01*
X001174Y001511D01*
X001157Y001558D01*
X001143Y001606D01*
X001133Y001655D01*
X001127Y001705D01*
X001125Y001755D01*
X001322Y014747D02*
X001324Y014797D01*
X001330Y014847D01*
X001340Y014896D01*
X001354Y014944D01*
X001371Y014991D01*
X001392Y015036D01*
X001417Y015080D01*
X001445Y015121D01*
X001477Y015160D01*
X001511Y015197D01*
X001548Y015231D01*
X001588Y015261D01*
X001630Y015288D01*
X001674Y015312D01*
X001720Y015333D01*
X001767Y015349D01*
X001815Y015362D01*
X001865Y015371D01*
X001914Y015376D01*
X001965Y015377D01*
X002015Y015374D01*
X002064Y015367D01*
X002113Y015356D01*
X002161Y015341D01*
X002207Y015323D01*
X002252Y015301D01*
X002295Y015275D01*
X002336Y015246D01*
X002375Y015214D01*
X002411Y015179D01*
X002443Y015141D01*
X002473Y015101D01*
X002500Y015058D01*
X002523Y015014D01*
X002542Y014968D01*
X002558Y014920D01*
X002570Y014871D01*
X002578Y014822D01*
X002582Y014772D01*
X002582Y014722D01*
X002578Y014672D01*
X002570Y014623D01*
X002558Y014574D01*
X002542Y014526D01*
X002523Y014480D01*
X002500Y014436D01*
X002473Y014393D01*
X002443Y014353D01*
X002411Y014315D01*
X002375Y014280D01*
X002336Y014248D01*
X002295Y014219D01*
X002252Y014193D01*
X002207Y014171D01*
X002161Y014153D01*
X002113Y014138D01*
X002064Y014127D01*
X002015Y014120D01*
X001965Y014117D01*
X001914Y014118D01*
X001865Y014123D01*
X001815Y014132D01*
X001767Y014145D01*
X001720Y014161D01*
X001674Y014182D01*
X001630Y014206D01*
X001588Y014233D01*
X001548Y014263D01*
X001511Y014297D01*
X001477Y014334D01*
X001445Y014373D01*
X001417Y014414D01*
X001392Y014458D01*
X001371Y014503D01*
X001354Y014550D01*
X001340Y014598D01*
X001330Y014647D01*
X001324Y014697D01*
X001322Y014747D01*
X014904Y014747D02*
X014906Y014797D01*
X014912Y014847D01*
X014922Y014896D01*
X014936Y014944D01*
X014953Y014991D01*
X014974Y015036D01*
X014999Y015080D01*
X015027Y015121D01*
X015059Y015160D01*
X015093Y015197D01*
X015130Y015231D01*
X015170Y015261D01*
X015212Y015288D01*
X015256Y015312D01*
X015302Y015333D01*
X015349Y015349D01*
X015397Y015362D01*
X015447Y015371D01*
X015496Y015376D01*
X015547Y015377D01*
X015597Y015374D01*
X015646Y015367D01*
X015695Y015356D01*
X015743Y015341D01*
X015789Y015323D01*
X015834Y015301D01*
X015877Y015275D01*
X015918Y015246D01*
X015957Y015214D01*
X015993Y015179D01*
X016025Y015141D01*
X016055Y015101D01*
X016082Y015058D01*
X016105Y015014D01*
X016124Y014968D01*
X016140Y014920D01*
X016152Y014871D01*
X016160Y014822D01*
X016164Y014772D01*
X016164Y014722D01*
X016160Y014672D01*
X016152Y014623D01*
X016140Y014574D01*
X016124Y014526D01*
X016105Y014480D01*
X016082Y014436D01*
X016055Y014393D01*
X016025Y014353D01*
X015993Y014315D01*
X015957Y014280D01*
X015918Y014248D01*
X015877Y014219D01*
X015834Y014193D01*
X015789Y014171D01*
X015743Y014153D01*
X015695Y014138D01*
X015646Y014127D01*
X015597Y014120D01*
X015547Y014117D01*
X015496Y014118D01*
X015447Y014123D01*
X015397Y014132D01*
X015349Y014145D01*
X015302Y014161D01*
X015256Y014182D01*
X015212Y014206D01*
X015170Y014233D01*
X015130Y014263D01*
X015093Y014297D01*
X015059Y014334D01*
X015027Y014373D01*
X014999Y014414D01*
X014974Y014458D01*
X014953Y014503D01*
X014936Y014550D01*
X014922Y014598D01*
X014912Y014647D01*
X014906Y014697D01*
X014904Y014747D01*
X014904Y001755D02*
X014906Y001805D01*
X014912Y001855D01*
X014922Y001904D01*
X014936Y001952D01*
X014953Y001999D01*
X014974Y002044D01*
X014999Y002088D01*
X015027Y002129D01*
X015059Y002168D01*
X015093Y002205D01*
X015130Y002239D01*
X015170Y002269D01*
X015212Y002296D01*
X015256Y002320D01*
X015302Y002341D01*
X015349Y002357D01*
X015397Y002370D01*
X015447Y002379D01*
X015496Y002384D01*
X015547Y002385D01*
X015597Y002382D01*
X015646Y002375D01*
X015695Y002364D01*
X015743Y002349D01*
X015789Y002331D01*
X015834Y002309D01*
X015877Y002283D01*
X015918Y002254D01*
X015957Y002222D01*
X015993Y002187D01*
X016025Y002149D01*
X016055Y002109D01*
X016082Y002066D01*
X016105Y002022D01*
X016124Y001976D01*
X016140Y001928D01*
X016152Y001879D01*
X016160Y001830D01*
X016164Y001780D01*
X016164Y001730D01*
X016160Y001680D01*
X016152Y001631D01*
X016140Y001582D01*
X016124Y001534D01*
X016105Y001488D01*
X016082Y001444D01*
X016055Y001401D01*
X016025Y001361D01*
X015993Y001323D01*
X015957Y001288D01*
X015918Y001256D01*
X015877Y001227D01*
X015834Y001201D01*
X015789Y001179D01*
X015743Y001161D01*
X015695Y001146D01*
X015646Y001135D01*
X015597Y001128D01*
X015547Y001125D01*
X015496Y001126D01*
X015447Y001131D01*
X015397Y001140D01*
X015349Y001153D01*
X015302Y001169D01*
X015256Y001190D01*
X015212Y001214D01*
X015170Y001241D01*
X015130Y001271D01*
X015093Y001305D01*
X015059Y001342D01*
X015027Y001381D01*
X014999Y001422D01*
X014974Y001466D01*
X014953Y001511D01*
X014936Y001558D01*
X014922Y001606D01*
X014912Y001655D01*
X014906Y001705D01*
X014904Y001755D01*
D12*
X015534Y001755D03*
X015534Y014747D03*
X001952Y014747D03*
X001755Y001755D03*
D13*
X011979Y004983D03*
X011979Y005967D03*
X011979Y006755D03*
X011979Y007739D03*
D14*
X013443Y008947D03*
X013443Y003774D03*
D15*
X012436Y003436D03*
X011436Y003436D03*
X010436Y003436D03*
X009436Y003436D03*
X008436Y003436D03*
X007436Y003436D03*
X006436Y003436D03*
X005436Y003436D03*
X004436Y003436D03*
X003436Y003436D03*
X003436Y004436D03*
X003436Y005436D03*
X004436Y005436D03*
X004436Y006436D03*
X003436Y006436D03*
X003436Y007436D03*
X004436Y007436D03*
X004436Y008436D03*
X003436Y008436D03*
X003436Y009436D03*
X003436Y010436D03*
X004436Y010436D03*
X004436Y009436D03*
X003436Y011436D03*
X003436Y012436D03*
X003436Y013436D03*
D16*
X007317Y008175D03*
X007317Y007513D03*
X008456Y006296D03*
D17*
X013763Y011204D03*
X013763Y013960D03*
D18*
X011991Y012385D03*
M02*
