G75*
%MOIN*%
%OFA0B0*%
%FSLAX24Y24*%
%IPPOS*%
%LPD*%
%AMOC8*
5,1,8,0,0,1.08239X$1,22.5*
%
%ADD10R,0.0413X0.0157*%
%ADD11C,0.0515*%
%ADD12C,0.0650*%
%ADD13R,0.0515X0.0515*%
%ADD14OC8,0.0520*%
%ADD15C,0.0160*%
D10*
X001235Y001257D03*
X001235Y001631D03*
X001235Y002005D03*
X002160Y002005D03*
X002160Y001631D03*
X002160Y001257D03*
D11*
X001386Y006043D03*
X001386Y007043D03*
X001386Y008043D03*
D12*
X004110Y001872D02*
X004110Y001222D01*
X005051Y001222D02*
X005051Y001872D01*
D13*
X004743Y003425D03*
X004743Y004212D03*
X001397Y004212D03*
X001397Y003425D03*
X001397Y004999D03*
D14*
X002566Y004188D03*
X003566Y004188D03*
D15*
X000940Y001631D02*
X000812Y001759D01*
X000812Y003628D01*
X001397Y004212D01*
X001397Y004999D02*
X001304Y004999D01*
X000954Y005350D01*
X000954Y006611D01*
X001386Y007043D01*
X001953Y007681D02*
X001591Y008043D01*
X001386Y008043D01*
X001953Y007681D02*
X001953Y003232D01*
X001235Y002515D01*
X001235Y002005D01*
X001235Y001631D02*
X000940Y001631D01*
X001235Y001257D02*
X001235Y000960D01*
X001357Y000838D01*
X002846Y000838D01*
X003302Y001295D01*
X003302Y002515D01*
X004212Y003425D01*
X004743Y003425D01*
X004743Y004212D02*
X004435Y004212D01*
X002967Y002744D01*
X002967Y001466D01*
X002759Y001257D01*
X002160Y001257D01*
X002160Y001631D02*
X002546Y001631D01*
X002610Y001696D01*
X002610Y002958D01*
X003566Y003914D01*
X003566Y004188D01*
X002566Y004188D02*
X002566Y003405D01*
X002160Y002999D01*
X002160Y002005D01*
M02*
