G75*
%MOIN*%
%OFA0B0*%
%FSLAX24Y24*%
%IPPOS*%
%LPD*%
%AMOC8*
5,1,8,0,0,1.08239X$1,22.5*
%
%ADD10C,0.0100*%
%ADD11C,0.0060*%
%ADD12R,0.0005X0.6165*%
%ADD13R,0.0005X0.6175*%
%ADD14R,0.0005X0.6185*%
%ADD15R,0.0005X0.0230*%
%ADD16R,0.0005X0.0290*%
%ADD17R,0.0005X0.0225*%
%ADD18R,0.0005X0.0320*%
%ADD19R,0.0005X0.0340*%
%ADD20R,0.0005X0.0370*%
%ADD21R,0.0005X0.0390*%
%ADD22R,0.0005X0.0400*%
%ADD23R,0.0005X0.0420*%
%ADD24R,0.0005X0.0435*%
%ADD25R,0.0005X0.0450*%
%ADD26R,0.0005X0.0460*%
%ADD27R,0.0005X0.0480*%
%ADD28R,0.0005X0.0490*%
%ADD29R,0.0005X0.0500*%
%ADD30R,0.0005X0.0510*%
%ADD31R,0.0005X0.0520*%
%ADD32R,0.0005X0.0530*%
%ADD33R,0.0005X0.0540*%
%ADD34R,0.0005X0.0550*%
%ADD35R,0.0005X0.0560*%
%ADD36R,0.0005X0.0570*%
%ADD37R,0.0005X0.0580*%
%ADD38R,0.0005X0.0590*%
%ADD39R,0.0005X0.0600*%
%ADD40R,0.0005X0.0610*%
%ADD41R,0.0005X0.0620*%
%ADD42R,0.0005X0.0630*%
%ADD43R,0.0005X0.0275*%
%ADD44R,0.0005X0.0265*%
%ADD45R,0.0005X0.0255*%
%ADD46R,0.0005X0.0250*%
%ADD47R,0.0005X0.0245*%
%ADD48R,0.0005X0.0240*%
%ADD49R,0.0005X0.0235*%
%ADD50R,0.0005X0.0260*%
%ADD51R,0.0005X0.0280*%
%ADD52R,0.0005X0.0285*%
%ADD53R,0.0005X0.0295*%
%ADD54R,0.0005X0.0300*%
%ADD55R,0.0005X0.0305*%
%ADD56R,0.0005X0.0315*%
%ADD57R,0.0005X0.0325*%
%ADD58R,0.0005X0.0335*%
%ADD59R,0.0005X0.0345*%
%ADD60R,0.0005X0.0355*%
%ADD61R,0.0005X0.0365*%
%ADD62R,0.0005X0.0375*%
%ADD63R,0.0005X0.0385*%
%ADD64R,0.0005X0.0395*%
%ADD65R,0.0005X0.0405*%
%ADD66R,0.0005X0.0415*%
%ADD67R,0.0005X0.0425*%
%ADD68R,0.0005X0.0445*%
%ADD69R,0.0005X0.0455*%
%ADD70R,0.0005X0.0465*%
%ADD71R,0.0005X0.0475*%
%ADD72R,0.0005X0.0430*%
%ADD73R,0.0005X0.0270*%
%ADD74R,0.0005X0.0640*%
%ADD75R,0.0005X0.0470*%
%ADD76R,0.0005X0.0440*%
%ADD77R,0.0005X0.0410*%
%ADD78R,0.0005X0.0350*%
%ADD79R,0.0005X0.0330*%
%ADD80R,0.0005X0.0200*%
%ADD81R,0.0005X0.0140*%
%ADD82R,0.0005X0.0010*%
%ADD83R,0.0005X0.0005*%
%ADD84R,0.0005X0.0160*%
%ADD85R,0.0005X0.0155*%
%ADD86R,0.0005X0.0220*%
%ADD87R,0.0005X0.0210*%
%ADD88R,0.0005X0.0205*%
%ADD89R,0.0005X0.0215*%
%ADD90R,0.0005X0.0310*%
%ADD91R,0.0005X0.0485*%
%ADD92R,0.0005X0.0525*%
%ADD93R,0.0005X0.0515*%
%ADD94R,0.0005X0.0545*%
%ADD95R,0.0005X0.0585*%
%ADD96R,0.0005X0.0595*%
%ADD97R,0.0005X0.0605*%
%ADD98R,0.0005X0.0360*%
%ADD99R,0.0005X0.0135*%
%ADD100R,0.0005X0.0180*%
%ADD101R,0.0005X0.0050*%
%ADD102R,0.0005X0.0380*%
%ADD103R,0.0005X0.0145*%
%ADD104R,0.0005X0.0130*%
%ADD105R,0.0005X0.0105*%
%ADD106R,0.0005X0.0090*%
%ADD107R,0.0005X0.0075*%
%ADD108R,0.0005X0.0055*%
%ADD109R,0.0005X0.0035*%
%ADD110R,0.0005X0.0015*%
%ADD111R,0.0005X0.0650*%
%ADD112R,0.0005X0.0655*%
%ADD113R,0.0005X0.0040*%
%ADD114R,0.0005X0.0060*%
%ADD115R,0.0005X0.0110*%
%ADD116R,0.0005X0.0185*%
%ADD117R,0.0005X0.0065*%
%ADD118R,0.0005X0.0575*%
%ADD119R,0.0005X0.0535*%
%ADD120R,0.0005X0.0555*%
%ADD121R,0.0005X0.0505*%
%ADD122R,0.0005X0.0495*%
%ADD123R,0.0005X0.0170*%
D10*
X000310Y000153D02*
X005822Y000153D01*
X005822Y009011D01*
X000310Y009011D01*
X000310Y000153D01*
D11*
X002633Y000489D02*
X003273Y000489D01*
X003273Y000916D02*
X002633Y000916D01*
X002633Y001133D02*
X003060Y001133D01*
X003273Y001347D01*
X003060Y001560D01*
X002633Y001560D01*
X002633Y001778D02*
X002633Y002205D01*
X002633Y002422D02*
X002633Y002849D01*
X002739Y003067D02*
X002633Y003174D01*
X002633Y003387D01*
X002739Y003494D01*
X003166Y003494D01*
X003273Y003387D01*
X003273Y003174D01*
X003166Y003067D01*
X002739Y003067D01*
X002633Y003712D02*
X002846Y003925D01*
X002633Y004139D01*
X003273Y004139D01*
X003273Y004356D02*
X002633Y004356D01*
X002633Y004783D01*
X002633Y005001D02*
X002633Y005428D01*
X002633Y005645D02*
X003273Y005645D01*
X002633Y006072D01*
X003273Y006072D01*
X003273Y005428D02*
X003273Y005001D01*
X002633Y005001D01*
X002953Y005001D02*
X002953Y005214D01*
X003273Y004783D02*
X003273Y004356D01*
X002953Y004356D02*
X002953Y004570D01*
X003273Y003712D02*
X002633Y003712D01*
X002633Y002422D02*
X003273Y002422D01*
X003273Y001778D02*
X002633Y001778D01*
X002953Y001560D02*
X002953Y001133D01*
X002953Y000916D02*
X002953Y000489D01*
X003060Y006934D02*
X003060Y007041D01*
X002633Y007041D01*
X002633Y006934D02*
X002633Y007148D01*
X002633Y007364D02*
X003060Y007364D01*
X003060Y007684D01*
X002953Y007791D01*
X002633Y007791D01*
X002739Y008009D02*
X002633Y008115D01*
X002633Y008436D01*
X002739Y008009D02*
X002953Y008009D01*
X003060Y008115D01*
X003060Y008436D01*
X003273Y007041D02*
X003380Y007041D01*
D12*
X000540Y003630D03*
D13*
X000545Y003630D03*
D14*
X000550Y003630D03*
X000555Y003630D03*
X000560Y003630D03*
X000565Y003630D03*
X000570Y003630D03*
X000575Y003630D03*
X000580Y003630D03*
X000585Y003630D03*
X000590Y003630D03*
X000595Y003630D03*
X000600Y003630D03*
X000605Y003630D03*
X000610Y003630D03*
X000615Y003630D03*
X000620Y003630D03*
X000625Y003630D03*
X000630Y003630D03*
X000635Y003630D03*
X000640Y003630D03*
X000645Y003630D03*
X000650Y003630D03*
X000655Y003630D03*
X000660Y003630D03*
X000665Y003630D03*
X000670Y003630D03*
X000675Y003630D03*
X000680Y003630D03*
X000685Y003630D03*
X000690Y003630D03*
X000695Y003630D03*
X000700Y003630D03*
X000705Y003630D03*
X000710Y003630D03*
X000715Y003630D03*
X000720Y003630D03*
X000725Y003630D03*
X000730Y003630D03*
X000735Y003630D03*
X000740Y003630D03*
D15*
X001645Y003333D03*
X001650Y003333D03*
X001655Y003333D03*
X001660Y003333D03*
X001665Y003333D03*
X001670Y003333D03*
X001675Y003333D03*
X001680Y003333D03*
X001685Y003333D03*
X001690Y003333D03*
X001695Y003333D03*
X001700Y003333D03*
X001705Y003333D03*
X001710Y003333D03*
X001715Y003333D03*
X001720Y003333D03*
X001725Y003333D03*
X001730Y003333D03*
X001735Y003333D03*
X001740Y003333D03*
X001745Y003333D03*
X001750Y003333D03*
X001755Y003333D03*
X001760Y003333D03*
X001765Y003333D03*
X001770Y003333D03*
X001775Y003333D03*
X001780Y003333D03*
X001785Y003333D03*
X001790Y003333D03*
X001795Y003333D03*
X001800Y003333D03*
X001805Y003333D03*
X001810Y003333D03*
X001815Y003333D03*
X001820Y003333D03*
X001825Y003333D03*
X001830Y003333D03*
X001835Y003333D03*
X001840Y003333D03*
X001845Y003333D03*
X001850Y003333D03*
X001855Y003333D03*
X001860Y003333D03*
X001865Y003333D03*
X001870Y003333D03*
X001875Y003333D03*
X001880Y003333D03*
X001885Y003333D03*
X001890Y003333D03*
X001895Y003333D03*
X001900Y003333D03*
X001905Y003333D03*
X001910Y003333D03*
X001915Y003333D03*
X001920Y003333D03*
X001925Y003333D03*
X001930Y003333D03*
X001935Y003333D03*
X001940Y003333D03*
X001945Y003333D03*
X001950Y003333D03*
X001955Y003333D03*
X001960Y003333D03*
X001965Y003333D03*
X001970Y003333D03*
X001975Y003333D03*
X001980Y003333D03*
X001985Y003333D03*
X001990Y003333D03*
X001995Y003333D03*
X002000Y003333D03*
X002005Y003333D03*
X002010Y003333D03*
X002015Y003333D03*
X002020Y003333D03*
X002025Y003333D03*
X002030Y003333D03*
X002035Y003333D03*
X002040Y003333D03*
X002045Y003333D03*
X002050Y003333D03*
X002055Y003333D03*
X002060Y003333D03*
X002065Y003333D03*
X002070Y003333D03*
X002075Y003333D03*
X002080Y003333D03*
X002085Y003333D03*
X002090Y003333D03*
X002095Y003333D03*
X002100Y003333D03*
X002105Y003333D03*
X002110Y003333D03*
X002115Y003333D03*
X002120Y003333D03*
X002125Y003333D03*
X001855Y002658D03*
X001790Y002648D03*
X001785Y002643D03*
X001800Y002278D03*
X001810Y002273D03*
X002160Y002628D03*
X001665Y001733D03*
X001185Y001753D03*
X001175Y001758D03*
X001170Y001758D03*
X001165Y001758D03*
X001150Y001763D03*
X001145Y001763D03*
X001140Y001763D03*
X001015Y001763D03*
X001010Y001763D03*
X000990Y001758D03*
X000985Y001758D03*
X000980Y001758D03*
X000975Y001758D03*
X000970Y001753D03*
X000965Y001753D03*
X000965Y001303D03*
X000960Y001303D03*
X000970Y001298D03*
X000975Y001298D03*
X000980Y001298D03*
X000995Y001293D03*
X001000Y001293D03*
X001030Y001288D03*
X001035Y001288D03*
X001040Y001288D03*
X001115Y001288D03*
X001120Y001288D03*
X001150Y001293D03*
X001155Y001293D03*
X001160Y001293D03*
X001170Y001298D03*
X001175Y001298D03*
X001180Y001298D03*
X001190Y001303D03*
X001190Y000653D03*
X001185Y000653D03*
X001180Y000653D03*
X001175Y000653D03*
X001170Y000653D03*
X001165Y000653D03*
X001160Y000653D03*
X001155Y000653D03*
X001150Y000653D03*
X001145Y000653D03*
X001140Y000653D03*
X001135Y000653D03*
X001130Y000653D03*
X001125Y000653D03*
X001120Y000653D03*
X001115Y000653D03*
X001110Y000653D03*
X001105Y000653D03*
X001100Y000653D03*
X001095Y000653D03*
X001090Y000653D03*
X001085Y000653D03*
X001080Y000653D03*
X001075Y000653D03*
X001070Y000653D03*
X001065Y000653D03*
X001060Y000653D03*
X001055Y000653D03*
X001050Y000653D03*
X001045Y000653D03*
X001040Y000653D03*
X001035Y000653D03*
X001030Y000653D03*
X001025Y000653D03*
X001020Y000653D03*
X001015Y000653D03*
X001010Y000653D03*
X001005Y000653D03*
X001000Y000653D03*
X000995Y000653D03*
X000990Y000653D03*
X000985Y000653D03*
X000980Y000653D03*
X000975Y000653D03*
X000970Y000653D03*
X000965Y000653D03*
X000960Y000653D03*
X000955Y000653D03*
X000950Y000653D03*
X000945Y000653D03*
X000940Y000653D03*
X000935Y000653D03*
X000930Y000653D03*
X000925Y000653D03*
X000920Y000653D03*
X000915Y000653D03*
X000910Y000653D03*
X000905Y000653D03*
X000900Y000653D03*
X000895Y000653D03*
X000890Y000653D03*
X000885Y000653D03*
X000880Y000653D03*
X000875Y000653D03*
X000870Y000653D03*
X000865Y000653D03*
X000860Y000653D03*
X000855Y000653D03*
X000850Y000653D03*
X000845Y000653D03*
X000840Y000653D03*
X000835Y000653D03*
X000830Y000653D03*
X000825Y000653D03*
X000820Y000653D03*
X000815Y000653D03*
X000810Y000653D03*
X000805Y000653D03*
X000800Y000653D03*
X000795Y000653D03*
X000790Y000653D03*
X000785Y000653D03*
X000780Y000653D03*
X000775Y000653D03*
X000770Y000653D03*
X000765Y000653D03*
X000760Y000653D03*
X000755Y000653D03*
X000750Y000653D03*
X000745Y000653D03*
X001195Y000653D03*
X001200Y000653D03*
X001205Y000653D03*
X001210Y000653D03*
X001215Y000653D03*
X001220Y000653D03*
X001225Y000653D03*
X001230Y000653D03*
X002275Y001313D03*
X002280Y001313D03*
X002280Y004573D03*
X001660Y004998D03*
X001855Y005533D03*
X001860Y005533D03*
X001850Y005538D03*
X001845Y005538D03*
X001875Y005528D03*
X001880Y005528D03*
X001905Y005523D03*
X002040Y005523D03*
X002045Y005523D03*
X002065Y005528D03*
X002070Y005528D03*
X002075Y005528D03*
X002080Y005533D03*
X002085Y005533D03*
X002125Y005943D03*
X001830Y005948D03*
X001830Y006608D03*
X001835Y006608D03*
X001840Y006608D03*
X001845Y006608D03*
X001850Y006608D03*
X001855Y006608D03*
X001860Y006608D03*
X001865Y006608D03*
X001870Y006608D03*
X001875Y006608D03*
X001880Y006608D03*
X001885Y006608D03*
X001890Y006608D03*
X001895Y006608D03*
X001900Y006608D03*
X001905Y006608D03*
X001910Y006608D03*
X001915Y006608D03*
X001920Y006608D03*
X001925Y006608D03*
X001930Y006608D03*
X001935Y006608D03*
X001940Y006608D03*
X001945Y006608D03*
X001950Y006608D03*
X001955Y006608D03*
X001960Y006608D03*
X001965Y006608D03*
X001970Y006608D03*
X001975Y006608D03*
X001980Y006608D03*
X001985Y006608D03*
X001990Y006608D03*
X001995Y006608D03*
X002000Y006608D03*
X002005Y006608D03*
X002010Y006608D03*
X002015Y006608D03*
X002020Y006608D03*
X002025Y006608D03*
X002030Y006608D03*
X002035Y006608D03*
X002040Y006608D03*
X002045Y006608D03*
X002050Y006608D03*
X002055Y006608D03*
X002060Y006608D03*
X002065Y006608D03*
X002070Y006608D03*
X002075Y006608D03*
X002080Y006608D03*
X002085Y006608D03*
X002090Y006608D03*
X002095Y006608D03*
X002100Y006608D03*
X002105Y006608D03*
X002110Y006608D03*
X002115Y006608D03*
X002120Y006608D03*
X002125Y006608D03*
X001825Y006608D03*
X001820Y006608D03*
X001815Y006608D03*
X001810Y006608D03*
X001805Y006608D03*
X001800Y006608D03*
X001795Y006608D03*
X001790Y006608D03*
X001785Y006608D03*
X001780Y006608D03*
X001775Y006608D03*
X001770Y006608D03*
X001765Y006608D03*
X001760Y006608D03*
X001755Y006608D03*
X001750Y006608D03*
X001745Y006608D03*
X001740Y006608D03*
X001735Y006608D03*
X001730Y006608D03*
X001725Y006608D03*
X001720Y006608D03*
X001715Y006608D03*
X001710Y006608D03*
X001705Y006608D03*
X001700Y006608D03*
X001695Y006608D03*
X001690Y006608D03*
X001685Y006608D03*
X001680Y006608D03*
X001675Y006608D03*
X001670Y006608D03*
X001665Y006608D03*
X001660Y006608D03*
X001655Y006608D03*
X001650Y006608D03*
X001645Y006608D03*
X001640Y006608D03*
X001635Y006608D03*
X001630Y006608D03*
X001625Y006608D03*
X001620Y006608D03*
X001615Y006608D03*
X001610Y006608D03*
X001605Y006608D03*
X001600Y006608D03*
X001595Y006608D03*
X001590Y006608D03*
X001585Y006608D03*
X001580Y006608D03*
X001575Y006608D03*
X001570Y006608D03*
X001565Y006608D03*
X001560Y006608D03*
X001555Y006608D03*
X001550Y006608D03*
X001545Y006608D03*
X001540Y006608D03*
X001535Y006608D03*
X001530Y006608D03*
X001525Y006608D03*
X001520Y006608D03*
X001515Y006608D03*
X001510Y006608D03*
X001505Y006608D03*
X001500Y006608D03*
X001495Y006608D03*
X001490Y006608D03*
X001485Y006608D03*
X001480Y006608D03*
X001475Y006608D03*
X001470Y006608D03*
X001465Y006608D03*
X001460Y006608D03*
X001455Y006608D03*
X001450Y006608D03*
X001445Y006608D03*
X001440Y006608D03*
X001435Y006608D03*
X001430Y006608D03*
X001425Y006608D03*
X001420Y006608D03*
X001415Y006608D03*
X001410Y006608D03*
X001405Y006608D03*
X001400Y006608D03*
X001395Y006608D03*
X001390Y006608D03*
X001385Y006608D03*
X001380Y006608D03*
X001375Y006608D03*
X001370Y006608D03*
X001365Y006608D03*
X001360Y006608D03*
X001355Y006608D03*
X001350Y006608D03*
X001345Y006608D03*
X001340Y006608D03*
X001335Y006608D03*
X001330Y006608D03*
X001325Y006608D03*
X001320Y006608D03*
X001315Y006608D03*
X001310Y006608D03*
X001305Y006608D03*
X001300Y006608D03*
X001295Y006608D03*
X001290Y006608D03*
X001285Y006608D03*
X001280Y006608D03*
X001275Y006608D03*
X001270Y006608D03*
X001265Y006608D03*
X001260Y006608D03*
X001255Y006608D03*
X001250Y006608D03*
X001245Y006608D03*
X001240Y006608D03*
X001235Y006608D03*
X001230Y006608D03*
X001225Y006608D03*
X001220Y006608D03*
X001215Y006608D03*
X001210Y006608D03*
X001205Y006608D03*
X001200Y006608D03*
X001195Y006608D03*
X001190Y006608D03*
X001185Y006608D03*
X001180Y006608D03*
X001175Y006608D03*
X001170Y006608D03*
X001165Y006608D03*
X001160Y006608D03*
X001155Y006608D03*
X001150Y006608D03*
X001145Y006608D03*
X001140Y006608D03*
X001135Y006608D03*
X001130Y006608D03*
X001125Y006608D03*
X001120Y006608D03*
X001115Y006608D03*
X001110Y006608D03*
X001105Y006608D03*
X001100Y006608D03*
X001095Y006608D03*
X001090Y006608D03*
X001085Y006608D03*
X001080Y006608D03*
X001075Y006608D03*
X001070Y006608D03*
X001065Y006608D03*
X001060Y006608D03*
X001055Y006608D03*
X001050Y006608D03*
X001045Y006608D03*
X001040Y006608D03*
X001035Y006608D03*
X001030Y006608D03*
X001025Y006608D03*
X001020Y006608D03*
X001015Y006608D03*
X001010Y006608D03*
X001005Y006608D03*
X001000Y006608D03*
X000995Y006608D03*
X000990Y006608D03*
X000985Y006608D03*
X000980Y006608D03*
X000975Y006608D03*
X000970Y006608D03*
X000965Y006608D03*
X000960Y006608D03*
X000955Y006608D03*
X000950Y006608D03*
X000945Y006608D03*
X000940Y006608D03*
X000935Y006608D03*
X000930Y006608D03*
X000925Y006608D03*
X000920Y006608D03*
X000915Y006608D03*
X000910Y006608D03*
X000905Y006608D03*
X000900Y006608D03*
X000895Y006608D03*
X000890Y006608D03*
X000885Y006608D03*
X000880Y006608D03*
X000875Y006608D03*
X000870Y006608D03*
X000865Y006608D03*
X000860Y006608D03*
X000855Y006608D03*
X000850Y006608D03*
X000845Y006608D03*
X000840Y006608D03*
X000835Y006608D03*
X000830Y006608D03*
X000825Y006608D03*
X000820Y006608D03*
X000815Y006608D03*
X000810Y006608D03*
X000805Y006608D03*
X000800Y006608D03*
X000795Y006608D03*
X000790Y006608D03*
X000785Y006608D03*
X000780Y006608D03*
X000775Y006608D03*
X000770Y006608D03*
X000765Y006608D03*
X000760Y006608D03*
X000755Y006608D03*
X000750Y006608D03*
X000745Y006608D03*
D16*
X001795Y005903D03*
X001750Y004968D03*
X001745Y004968D03*
X002190Y004603D03*
X002305Y002463D03*
X001755Y001703D03*
X002190Y001343D03*
X001250Y001703D03*
X000900Y001703D03*
X000745Y001528D03*
X000900Y001353D03*
D17*
X000985Y001295D03*
X000990Y001295D03*
X001005Y001290D03*
X001010Y001290D03*
X001015Y001290D03*
X001020Y001290D03*
X001025Y001290D03*
X001045Y001285D03*
X001050Y001285D03*
X001055Y001285D03*
X001060Y001285D03*
X001065Y001285D03*
X001070Y001285D03*
X001075Y001285D03*
X001080Y001285D03*
X001085Y001285D03*
X001090Y001285D03*
X001095Y001285D03*
X001100Y001285D03*
X001105Y001285D03*
X001110Y001285D03*
X001125Y001290D03*
X001130Y001290D03*
X001135Y001290D03*
X001140Y001290D03*
X001145Y001290D03*
X001165Y001295D03*
X001160Y001760D03*
X001155Y001760D03*
X001135Y001765D03*
X001130Y001765D03*
X001125Y001765D03*
X001120Y001765D03*
X001115Y001765D03*
X001110Y001765D03*
X001105Y001765D03*
X001100Y001765D03*
X001095Y001765D03*
X001090Y001765D03*
X001085Y001765D03*
X001080Y001765D03*
X001075Y001765D03*
X001070Y001765D03*
X001065Y001765D03*
X001060Y001765D03*
X001055Y001765D03*
X001050Y001765D03*
X001045Y001765D03*
X001040Y001765D03*
X001035Y001765D03*
X001030Y001765D03*
X001025Y001765D03*
X001020Y001765D03*
X001005Y001760D03*
X001000Y001760D03*
X000995Y001760D03*
X000995Y002450D03*
X001000Y002450D03*
X001005Y002450D03*
X001010Y002450D03*
X001015Y002450D03*
X001020Y002450D03*
X000990Y002450D03*
X000985Y002450D03*
X000980Y002450D03*
X000975Y002450D03*
X000970Y002450D03*
X000965Y002450D03*
X000960Y002450D03*
X000955Y002450D03*
X000950Y002450D03*
X000945Y002450D03*
X000940Y002450D03*
X000935Y002450D03*
X000930Y002450D03*
X000925Y002450D03*
X000920Y002450D03*
X000915Y002450D03*
X000910Y002450D03*
X000905Y002450D03*
X000900Y002450D03*
X000895Y002450D03*
X000890Y002450D03*
X000885Y002450D03*
X000880Y002450D03*
X000875Y002450D03*
X000870Y002450D03*
X000865Y002450D03*
X000860Y002450D03*
X000855Y002450D03*
X000850Y002450D03*
X000845Y002450D03*
X000840Y002450D03*
X000835Y002450D03*
X000830Y002450D03*
X000825Y002450D03*
X000820Y002450D03*
X000815Y002450D03*
X000810Y002450D03*
X000805Y002450D03*
X000800Y002450D03*
X000795Y002450D03*
X000790Y002450D03*
X000785Y002450D03*
X000780Y002450D03*
X000775Y002450D03*
X000770Y002450D03*
X000765Y002450D03*
X000760Y002450D03*
X000755Y002450D03*
X000750Y002450D03*
X000745Y002450D03*
X001655Y001735D03*
X001660Y001735D03*
X001825Y002265D03*
X001830Y002265D03*
X001820Y002270D03*
X001815Y002270D03*
X001795Y002650D03*
X001845Y002660D03*
X001850Y002660D03*
X002115Y002290D03*
X002120Y002285D03*
X002175Y002295D03*
X002155Y002630D03*
X002150Y002630D03*
X002285Y001310D03*
X002285Y000735D03*
X002290Y000735D03*
X002295Y000735D03*
X002300Y000735D03*
X002280Y000735D03*
X002275Y000735D03*
X002270Y000735D03*
X002265Y000735D03*
X002260Y000735D03*
X002255Y000735D03*
X002250Y000735D03*
X002245Y000735D03*
X002240Y000735D03*
X002235Y000735D03*
X002230Y000735D03*
X002225Y000735D03*
X002220Y000735D03*
X002215Y000735D03*
X002210Y000735D03*
X002205Y000735D03*
X002200Y000735D03*
X002195Y000735D03*
X002190Y000735D03*
X002185Y000735D03*
X002180Y000735D03*
X002175Y000735D03*
X002170Y000735D03*
X002165Y000735D03*
X002160Y000735D03*
X002155Y000735D03*
X002150Y000735D03*
X002145Y000735D03*
X002140Y000735D03*
X002135Y000735D03*
X002130Y000735D03*
X002125Y000735D03*
X002120Y000735D03*
X002115Y000735D03*
X002110Y000735D03*
X002105Y000735D03*
X002100Y000735D03*
X002095Y000735D03*
X002090Y000735D03*
X002085Y000735D03*
X002080Y000735D03*
X002075Y000735D03*
X002070Y000735D03*
X002065Y000735D03*
X002060Y000735D03*
X002055Y000735D03*
X002050Y000735D03*
X002045Y000735D03*
X002040Y000735D03*
X002035Y000735D03*
X002030Y000735D03*
X002025Y000735D03*
X002020Y000735D03*
X002015Y000735D03*
X002010Y000735D03*
X002005Y000735D03*
X002000Y000735D03*
X001995Y000735D03*
X001990Y000735D03*
X001985Y000735D03*
X001980Y000735D03*
X001975Y000735D03*
X001970Y000735D03*
X001965Y000735D03*
X001960Y000735D03*
X001955Y000735D03*
X001950Y000735D03*
X001945Y000735D03*
X001940Y000735D03*
X001935Y000735D03*
X001930Y000735D03*
X001925Y000735D03*
X001920Y000735D03*
X001915Y000735D03*
X001910Y000735D03*
X001905Y000735D03*
X001900Y000735D03*
X001895Y000735D03*
X001890Y000735D03*
X001885Y000735D03*
X001880Y000735D03*
X001875Y000735D03*
X001870Y000735D03*
X001865Y000735D03*
X001860Y000735D03*
X001855Y000735D03*
X001850Y000735D03*
X001845Y000735D03*
X001840Y000735D03*
X001835Y000735D03*
X001830Y000735D03*
X001825Y000735D03*
X001820Y000735D03*
X001815Y000735D03*
X001810Y000735D03*
X001805Y000735D03*
X001800Y000735D03*
X001795Y000735D03*
X001790Y000735D03*
X001785Y000735D03*
X001780Y000735D03*
X001775Y000735D03*
X001770Y000735D03*
X001765Y000735D03*
X001760Y000735D03*
X001755Y000735D03*
X001750Y000735D03*
X001745Y000735D03*
X001740Y000735D03*
X001735Y000735D03*
X001730Y000735D03*
X001725Y000735D03*
X001720Y000735D03*
X001715Y000735D03*
X001710Y000735D03*
X001705Y000735D03*
X001700Y000735D03*
X001695Y000735D03*
X001690Y000735D03*
X001685Y000735D03*
X001680Y000735D03*
X001675Y000735D03*
X001670Y000735D03*
X001665Y000735D03*
X001660Y000735D03*
X001655Y000735D03*
X001650Y000735D03*
X001645Y000735D03*
X001645Y004030D03*
X001650Y004030D03*
X001655Y004030D03*
X001660Y004030D03*
X001665Y004030D03*
X001670Y004030D03*
X001675Y004030D03*
X001680Y004030D03*
X001685Y004030D03*
X001690Y004030D03*
X001695Y004030D03*
X001700Y004030D03*
X001705Y004030D03*
X001710Y004030D03*
X001715Y004030D03*
X001720Y004030D03*
X001725Y004030D03*
X001730Y004030D03*
X001735Y004030D03*
X001740Y004030D03*
X001745Y004030D03*
X001750Y004030D03*
X001755Y004030D03*
X001760Y004030D03*
X001765Y004030D03*
X001770Y004030D03*
X001775Y004030D03*
X001780Y004030D03*
X001785Y004030D03*
X001790Y004030D03*
X001795Y004030D03*
X001800Y004030D03*
X001805Y004030D03*
X001810Y004030D03*
X001815Y004030D03*
X001820Y004030D03*
X001825Y004030D03*
X001830Y004030D03*
X001835Y004030D03*
X001840Y004030D03*
X001845Y004030D03*
X001850Y004030D03*
X001855Y004030D03*
X001860Y004030D03*
X001865Y004030D03*
X001870Y004030D03*
X001875Y004030D03*
X001880Y004030D03*
X001885Y004030D03*
X001890Y004030D03*
X001895Y004030D03*
X001900Y004030D03*
X001905Y004030D03*
X001910Y004030D03*
X001915Y004030D03*
X001920Y004030D03*
X001925Y004030D03*
X001930Y004030D03*
X001935Y004030D03*
X001940Y004030D03*
X001945Y004030D03*
X001950Y004030D03*
X001955Y004030D03*
X001960Y004030D03*
X001965Y004030D03*
X001970Y004030D03*
X001975Y004030D03*
X001980Y004030D03*
X001985Y004030D03*
X001990Y004030D03*
X001995Y004030D03*
X002000Y004030D03*
X002005Y004030D03*
X002010Y004030D03*
X002015Y004030D03*
X002020Y004030D03*
X002025Y004030D03*
X002030Y004030D03*
X002035Y004030D03*
X002040Y004030D03*
X002045Y004030D03*
X002050Y004030D03*
X002055Y004030D03*
X002060Y004030D03*
X002065Y004030D03*
X002070Y004030D03*
X002075Y004030D03*
X002080Y004030D03*
X002085Y004030D03*
X002090Y004030D03*
X002095Y004030D03*
X002100Y004030D03*
X002105Y004030D03*
X002110Y004030D03*
X002115Y004030D03*
X002120Y004030D03*
X002125Y004030D03*
X002130Y004030D03*
X002135Y004030D03*
X002140Y004030D03*
X002145Y004030D03*
X002150Y004030D03*
X002155Y004030D03*
X002160Y004030D03*
X002165Y004030D03*
X002170Y004030D03*
X002175Y004030D03*
X002180Y004030D03*
X002185Y004030D03*
X002190Y004030D03*
X002195Y004030D03*
X002200Y004030D03*
X002205Y004030D03*
X002210Y004030D03*
X002215Y004030D03*
X002220Y004030D03*
X002225Y004030D03*
X002230Y004030D03*
X002235Y004030D03*
X002240Y004030D03*
X002245Y004030D03*
X002250Y004030D03*
X002255Y004030D03*
X002260Y004030D03*
X002265Y004030D03*
X002270Y004030D03*
X002275Y004030D03*
X002280Y004030D03*
X002285Y004030D03*
X002290Y004030D03*
X002295Y004030D03*
X002300Y004030D03*
X002305Y004030D03*
X002285Y004570D03*
X001655Y005000D03*
X001650Y005000D03*
X001865Y005530D03*
X001870Y005530D03*
X001885Y005525D03*
X001890Y005525D03*
X001895Y005525D03*
X001900Y005525D03*
X001910Y005520D03*
X001915Y005520D03*
X001920Y005520D03*
X001925Y005520D03*
X001930Y005520D03*
X001935Y005520D03*
X001940Y005520D03*
X001945Y005520D03*
X001950Y005520D03*
X001955Y005520D03*
X001960Y005520D03*
X001965Y005520D03*
X001970Y005520D03*
X001975Y005520D03*
X001980Y005520D03*
X001985Y005520D03*
X001990Y005520D03*
X001995Y005520D03*
X002000Y005520D03*
X002005Y005520D03*
X002010Y005520D03*
X002015Y005520D03*
X002020Y005520D03*
X002025Y005520D03*
X002030Y005520D03*
X002035Y005520D03*
X002050Y005525D03*
X002055Y005525D03*
X002060Y005525D03*
X002120Y005945D03*
X002115Y005950D03*
X001845Y005955D03*
X001840Y005955D03*
X001835Y005950D03*
X001640Y004030D03*
D18*
X002145Y004618D03*
X002150Y004618D03*
X001795Y004953D03*
X001790Y004953D03*
X001900Y002608D03*
X002300Y002463D03*
X001800Y001688D03*
X001795Y001688D03*
X002145Y001358D03*
X001090Y002453D03*
X000750Y001528D03*
D19*
X000755Y001528D03*
X001105Y002453D03*
X001825Y001678D03*
X001830Y001678D03*
X002115Y001368D03*
X002295Y002463D03*
X002120Y004628D03*
X002115Y004628D03*
X001825Y004943D03*
X001820Y004943D03*
D20*
X001865Y004928D03*
X002070Y004643D03*
X002075Y004643D03*
X002285Y005748D03*
X001655Y002458D03*
X002075Y002368D03*
X001875Y001663D03*
X001870Y001663D03*
X002070Y001383D03*
X002075Y001383D03*
X001390Y001528D03*
X000760Y001528D03*
D21*
X000765Y001528D03*
X001385Y001528D03*
X001900Y001653D03*
X002040Y001393D03*
X002045Y001393D03*
X001660Y002458D03*
X002045Y004653D03*
X001895Y004918D03*
X001665Y005748D03*
X002280Y005748D03*
D22*
X002275Y005748D03*
X001910Y004913D03*
X002030Y004658D03*
X002280Y002463D03*
X001915Y001648D03*
X002025Y001398D03*
X002030Y001398D03*
X000770Y001528D03*
D23*
X000775Y001528D03*
X001415Y000758D03*
X001945Y001638D03*
X001995Y001408D03*
X002000Y001408D03*
X002060Y002393D03*
X001930Y002548D03*
X002000Y004668D03*
X001940Y004903D03*
X001675Y005748D03*
X002270Y005748D03*
X002310Y006503D03*
D24*
X002300Y006505D03*
X002295Y006505D03*
X002290Y006505D03*
X002285Y006505D03*
X002280Y006505D03*
X002275Y006505D03*
X002270Y006505D03*
X002265Y006505D03*
X002260Y006505D03*
X002255Y006505D03*
X002250Y006505D03*
X002245Y006505D03*
X002240Y006505D03*
X002235Y006505D03*
X002230Y006505D03*
X002225Y006505D03*
X002220Y006505D03*
X002215Y006505D03*
X002210Y006505D03*
X002205Y006505D03*
X002200Y006505D03*
X002195Y006505D03*
X002190Y006505D03*
X002185Y006505D03*
X002180Y006505D03*
X002175Y006505D03*
X002170Y006505D03*
X002165Y006505D03*
X002160Y006505D03*
X002155Y006505D03*
X002150Y006505D03*
X002145Y006505D03*
X002140Y006505D03*
X001680Y005750D03*
X001960Y004895D03*
X001975Y004675D03*
X001980Y004675D03*
X001675Y002460D03*
X001175Y002450D03*
X000780Y001525D03*
X001245Y000755D03*
X001250Y000755D03*
X001255Y000755D03*
X001260Y000755D03*
X001265Y000755D03*
X001270Y000755D03*
X001275Y000755D03*
X001280Y000755D03*
X001285Y000755D03*
X001290Y000755D03*
X001295Y000755D03*
X001300Y000755D03*
X001305Y000755D03*
X001310Y000755D03*
X001315Y000755D03*
X001320Y000755D03*
X001325Y000755D03*
X001330Y000755D03*
X001335Y000755D03*
X001340Y000755D03*
X001345Y000755D03*
X001350Y000755D03*
X001355Y000755D03*
X001360Y000755D03*
X001365Y000755D03*
X001370Y000755D03*
X001375Y000755D03*
X001380Y000755D03*
X001385Y000755D03*
X001390Y000755D03*
X001395Y000755D03*
X001400Y000755D03*
X001405Y000755D03*
X001965Y001630D03*
X001975Y001415D03*
D25*
X002260Y002463D03*
X001945Y002528D03*
X000785Y001528D03*
D26*
X000790Y001528D03*
X001365Y001528D03*
X002040Y002423D03*
X002255Y002463D03*
X002255Y005748D03*
D27*
X002245Y005748D03*
X001700Y005748D03*
X001965Y002503D03*
X001970Y002498D03*
X002020Y002448D03*
X001355Y001528D03*
X000795Y001528D03*
D28*
X000800Y001528D03*
X001350Y001528D03*
X001700Y002463D03*
X001985Y002483D03*
X001990Y002478D03*
X001995Y002473D03*
X002000Y002468D03*
X002005Y002463D03*
X002240Y005748D03*
X001705Y005748D03*
D29*
X001710Y005748D03*
X002235Y005748D03*
X002230Y002463D03*
X001705Y002463D03*
X001345Y001528D03*
X000805Y001528D03*
D30*
X000810Y001528D03*
X001340Y001528D03*
X001710Y002463D03*
X001715Y005748D03*
D31*
X001725Y005748D03*
X001715Y002463D03*
X002215Y002463D03*
X001335Y001528D03*
X000815Y001528D03*
D32*
X000820Y001528D03*
X001330Y001528D03*
X001725Y002463D03*
X002205Y002463D03*
X001730Y005748D03*
D33*
X001735Y005748D03*
X002210Y005743D03*
X001730Y002463D03*
X001325Y001528D03*
X000825Y001528D03*
D34*
X000830Y001528D03*
X001320Y001528D03*
X001740Y002463D03*
X001740Y005748D03*
X001745Y005748D03*
D35*
X001750Y005748D03*
X002195Y005743D03*
X001750Y002463D03*
X001745Y002463D03*
X001315Y001528D03*
X000840Y001528D03*
X000835Y001528D03*
D36*
X000845Y001528D03*
X001310Y001528D03*
X001755Y002463D03*
X001760Y002463D03*
X001760Y005748D03*
X001755Y005748D03*
X002190Y005743D03*
D37*
X002180Y005743D03*
X001765Y005748D03*
X001765Y002463D03*
X001770Y002463D03*
X001305Y001528D03*
X001300Y001528D03*
X000850Y001528D03*
D38*
X000855Y001528D03*
X000860Y001528D03*
X001295Y001528D03*
X001775Y005748D03*
X002170Y005743D03*
D39*
X002160Y005743D03*
X001785Y005748D03*
X001290Y001528D03*
X001285Y001528D03*
X000865Y001528D03*
D40*
X000870Y001528D03*
X000875Y001528D03*
X001280Y001528D03*
D41*
X001275Y001528D03*
X001270Y001528D03*
X000885Y001528D03*
X000880Y001528D03*
X002130Y003333D03*
D42*
X002135Y003333D03*
X002310Y003333D03*
X001265Y001528D03*
X001260Y001528D03*
X000895Y001528D03*
X000890Y001528D03*
D43*
X000905Y001710D03*
X000905Y001345D03*
X001245Y001340D03*
X001410Y001525D03*
X001730Y001710D03*
X001735Y001710D03*
X002210Y001335D03*
X001055Y002450D03*
X002210Y004595D03*
X002215Y004595D03*
X001725Y004975D03*
X002145Y005575D03*
X002305Y005750D03*
D44*
X002140Y005565D03*
X001800Y005920D03*
X001715Y004980D03*
X001710Y004980D03*
X002225Y004590D03*
X002230Y004590D03*
X001635Y002460D03*
X001715Y001715D03*
X001720Y001715D03*
X001240Y001720D03*
X001240Y001335D03*
X000910Y001335D03*
X000910Y001720D03*
X001050Y002450D03*
X002225Y001330D03*
D45*
X002240Y001325D03*
X001705Y001720D03*
X001700Y001720D03*
X001780Y002295D03*
X001880Y002640D03*
X001230Y001730D03*
X001235Y001330D03*
X001230Y001325D03*
X000920Y001325D03*
X000915Y001330D03*
X000915Y001725D03*
X001040Y002450D03*
X002240Y004585D03*
X002245Y004585D03*
X001700Y004985D03*
X001695Y004985D03*
X001810Y005560D03*
X002130Y005555D03*
D46*
X002125Y005553D03*
X001805Y005928D03*
X001635Y005753D03*
X001690Y004988D03*
X002250Y004583D03*
X001400Y002693D03*
X001395Y002688D03*
X001390Y002688D03*
X001385Y002683D03*
X001375Y002678D03*
X001370Y002673D03*
X001360Y002668D03*
X001345Y002658D03*
X001330Y002253D03*
X001345Y002243D03*
X001355Y002238D03*
X001360Y002233D03*
X001370Y002228D03*
X001375Y002223D03*
X001380Y002223D03*
X001385Y002218D03*
X001390Y002213D03*
X001395Y002213D03*
X001400Y002208D03*
X001405Y002208D03*
X001225Y001733D03*
X000925Y001733D03*
X000920Y001728D03*
X000925Y001323D03*
X001695Y001723D03*
X002105Y002303D03*
X002175Y002613D03*
X001875Y002648D03*
X001775Y002633D03*
X002245Y001323D03*
X002250Y001323D03*
D47*
X002255Y001320D03*
X001690Y001725D03*
X001685Y001725D03*
X001790Y002285D03*
X001785Y002290D03*
X001870Y002650D03*
X001405Y002695D03*
X001380Y002680D03*
X001365Y002670D03*
X001355Y002665D03*
X001350Y002660D03*
X001340Y002655D03*
X001335Y002650D03*
X001330Y002650D03*
X001325Y002645D03*
X001320Y002640D03*
X001315Y002640D03*
X001310Y002635D03*
X001300Y002630D03*
X001295Y002625D03*
X001285Y002620D03*
X001270Y002610D03*
X001255Y002300D03*
X001270Y002290D03*
X001280Y002285D03*
X001285Y002280D03*
X001295Y002275D03*
X001300Y002270D03*
X001305Y002270D03*
X001310Y002265D03*
X001315Y002260D03*
X001320Y002260D03*
X001325Y002255D03*
X001335Y002250D03*
X001340Y002245D03*
X001350Y002240D03*
X001365Y002230D03*
X001035Y002450D03*
X000930Y001735D03*
X000930Y001320D03*
X000935Y001315D03*
X001220Y001315D03*
X001225Y001320D03*
X001220Y001735D03*
X001215Y001740D03*
X002255Y004580D03*
X002260Y004580D03*
X001685Y004990D03*
X001680Y004990D03*
X001815Y005555D03*
X001810Y005935D03*
X002140Y005930D03*
X002310Y005750D03*
X002120Y005550D03*
X002115Y005545D03*
D48*
X002110Y005543D03*
X002135Y005933D03*
X001815Y005938D03*
X001820Y005553D03*
X001825Y005548D03*
X001675Y004993D03*
X002265Y004578D03*
X001410Y002693D03*
X001305Y002633D03*
X001290Y002623D03*
X001280Y002618D03*
X001275Y002613D03*
X001265Y002608D03*
X001260Y002603D03*
X001255Y002603D03*
X001250Y002598D03*
X001245Y002593D03*
X001240Y002593D03*
X001235Y002588D03*
X001225Y002583D03*
X001220Y002578D03*
X001210Y002573D03*
X001030Y002453D03*
X001210Y002328D03*
X001220Y002323D03*
X001225Y002318D03*
X001230Y002318D03*
X001235Y002313D03*
X001240Y002308D03*
X001245Y002308D03*
X001250Y002303D03*
X001260Y002298D03*
X001265Y002293D03*
X001275Y002288D03*
X001290Y002278D03*
X001410Y002208D03*
X001200Y001748D03*
X001210Y001743D03*
X001415Y001528D03*
X001215Y001313D03*
X001210Y001313D03*
X001205Y001308D03*
X000940Y001313D03*
X000935Y001738D03*
X000940Y001743D03*
X001680Y001728D03*
X001795Y002283D03*
X001780Y002638D03*
X001865Y002653D03*
X002170Y002618D03*
X002180Y002303D03*
X002260Y001318D03*
X002265Y001318D03*
D49*
X002270Y001315D03*
X001675Y001730D03*
X001670Y001730D03*
X001415Y002205D03*
X001215Y002325D03*
X001025Y002450D03*
X001215Y002575D03*
X001230Y002585D03*
X001415Y002695D03*
X001805Y002275D03*
X001860Y002655D03*
X002110Y002295D03*
X002165Y002625D03*
X001205Y001745D03*
X001195Y001750D03*
X001190Y001750D03*
X001180Y001755D03*
X000960Y001750D03*
X000955Y001750D03*
X000950Y001745D03*
X000945Y001745D03*
X000945Y001310D03*
X000950Y001305D03*
X000955Y001305D03*
X001185Y001300D03*
X001195Y001305D03*
X001200Y001305D03*
X002270Y004575D03*
X002275Y004575D03*
X001670Y004995D03*
X001665Y004995D03*
X001835Y005540D03*
X001840Y005540D03*
X001830Y005545D03*
X002090Y005535D03*
X002095Y005535D03*
X002100Y005540D03*
X002105Y005540D03*
X002130Y005940D03*
X001825Y005945D03*
X001820Y005940D03*
D50*
X001805Y005568D03*
X002135Y005563D03*
X002145Y005923D03*
X001705Y004983D03*
X002235Y004588D03*
X002310Y002463D03*
X001710Y001718D03*
X001235Y001723D03*
X001045Y002453D03*
X002230Y001328D03*
X002235Y001328D03*
D51*
X002205Y001338D03*
X001740Y001708D03*
X001060Y002453D03*
X002205Y004598D03*
X001735Y004973D03*
X001730Y004973D03*
X001640Y005753D03*
D52*
X001740Y004970D03*
X002195Y004600D03*
X002200Y004600D03*
X001890Y002625D03*
X001750Y001705D03*
X001745Y001705D03*
X002195Y001340D03*
X002200Y001340D03*
X001250Y001350D03*
X001065Y002450D03*
D53*
X001070Y002450D03*
X001640Y002460D03*
X002095Y002325D03*
X001760Y001700D03*
X002180Y001345D03*
X002185Y001345D03*
X002185Y004605D03*
X002180Y004605D03*
X001755Y004965D03*
X001795Y005590D03*
X002150Y005585D03*
D54*
X001765Y004963D03*
X001760Y004963D03*
X002175Y004608D03*
X001895Y002618D03*
X001770Y001698D03*
X001765Y001698D03*
X002175Y001348D03*
X001075Y002453D03*
D55*
X001080Y002450D03*
X001405Y001525D03*
X001775Y001695D03*
X002165Y001350D03*
X002170Y001350D03*
X002170Y004610D03*
X002165Y004610D03*
X001770Y004960D03*
X002300Y005750D03*
D56*
X001785Y004955D03*
X002155Y004615D03*
X001085Y002450D03*
X001790Y001690D03*
X002150Y001355D03*
X002155Y001355D03*
X002090Y002335D03*
D57*
X001645Y002460D03*
X001805Y001685D03*
X002135Y001360D03*
X002140Y001360D03*
X001095Y002450D03*
X002140Y004620D03*
X001800Y004950D03*
D58*
X001815Y004945D03*
X002125Y004625D03*
X001650Y005750D03*
X001100Y002450D03*
X001820Y001680D03*
X002120Y001365D03*
X002125Y001365D03*
X002085Y002345D03*
D59*
X001905Y002595D03*
X001835Y001675D03*
X002105Y001370D03*
X002110Y001370D03*
X001110Y002450D03*
X002110Y004630D03*
X001830Y004940D03*
D60*
X001840Y004935D03*
X001845Y004935D03*
X002095Y004635D03*
X001655Y005750D03*
X001115Y002450D03*
X001850Y001670D03*
X002095Y001375D03*
X002080Y002355D03*
D61*
X001865Y001665D03*
X002080Y001380D03*
X001125Y002450D03*
X001120Y002450D03*
X002080Y004640D03*
X001860Y004930D03*
X001855Y004930D03*
D62*
X001870Y004925D03*
X001875Y004925D03*
X002065Y004645D03*
X001660Y005750D03*
X001915Y002575D03*
X001880Y001660D03*
X002065Y001385D03*
X001130Y002450D03*
D63*
X001135Y002450D03*
X001140Y002450D03*
X001890Y001655D03*
X001895Y001655D03*
X002050Y001390D03*
X002070Y002375D03*
X002050Y004650D03*
X001890Y004920D03*
X001885Y004920D03*
D64*
X001900Y004915D03*
X001905Y004915D03*
X002035Y004655D03*
X002040Y004655D03*
X001920Y002565D03*
X001910Y001650D03*
X001905Y001650D03*
X002035Y001395D03*
X001145Y002450D03*
D65*
X001150Y002450D03*
X001155Y002450D03*
X001665Y002460D03*
X002065Y002385D03*
X001925Y001645D03*
X001920Y001645D03*
X002020Y001400D03*
X002020Y004660D03*
X002025Y004660D03*
X001920Y004910D03*
X001915Y004910D03*
X001670Y005750D03*
D66*
X001930Y004905D03*
X001935Y004905D03*
X002005Y004665D03*
X002010Y004665D03*
X001160Y002450D03*
X001935Y001640D03*
X001940Y001640D03*
X002005Y001405D03*
D67*
X001990Y001410D03*
X001955Y001635D03*
X001950Y001635D03*
X002055Y002400D03*
X002270Y002460D03*
X001670Y002460D03*
X001170Y002450D03*
X001165Y002450D03*
X001235Y000750D03*
X001990Y004670D03*
X001995Y004670D03*
X001945Y004900D03*
X002130Y006510D03*
D68*
X002260Y005745D03*
X001685Y005750D03*
X001680Y002460D03*
X002045Y002415D03*
X001185Y002450D03*
X001180Y002450D03*
D69*
X001190Y002450D03*
X001950Y002520D03*
X001690Y005750D03*
D70*
X001955Y002515D03*
X002035Y002430D03*
X001685Y002460D03*
X001200Y002450D03*
X001195Y002450D03*
D71*
X001205Y002450D03*
X001690Y002460D03*
X002025Y002440D03*
X002245Y002460D03*
D72*
X001935Y002543D03*
X001960Y001633D03*
X001980Y001413D03*
X001985Y001413D03*
X001375Y001528D03*
X001410Y000758D03*
X001240Y000753D03*
X001985Y004673D03*
X001955Y004898D03*
X001950Y004898D03*
X002265Y005748D03*
X002305Y006503D03*
X002135Y006508D03*
D73*
X002150Y005913D03*
X001800Y005573D03*
X001720Y004978D03*
X002220Y004593D03*
X001885Y002633D03*
X001775Y002303D03*
X002100Y002313D03*
X002180Y002603D03*
X001725Y001713D03*
X001245Y001713D03*
X002215Y001333D03*
X002220Y001333D03*
D74*
X001255Y001528D03*
X002140Y003333D03*
X002145Y003333D03*
X002150Y003333D03*
X002155Y003333D03*
X002160Y003333D03*
X002165Y003333D03*
X002170Y003333D03*
X002175Y003333D03*
X002180Y003333D03*
X002185Y003333D03*
X002190Y003333D03*
X002195Y003333D03*
X002200Y003333D03*
X002205Y003333D03*
X002210Y003333D03*
X002215Y003333D03*
X002220Y003333D03*
X002225Y003333D03*
X002230Y003333D03*
X002235Y003333D03*
X002240Y003333D03*
X002245Y003333D03*
X002250Y003333D03*
X002255Y003333D03*
X002260Y003333D03*
X002265Y003333D03*
X002270Y003333D03*
X002275Y003333D03*
X002280Y003333D03*
X002285Y003333D03*
X002290Y003333D03*
X002295Y003333D03*
X002300Y003333D03*
X002305Y003333D03*
D75*
X001960Y002508D03*
X002030Y002433D03*
X002250Y002463D03*
X001360Y001528D03*
X001695Y005748D03*
X002250Y005748D03*
D76*
X001965Y004893D03*
X001940Y002533D03*
X002050Y002408D03*
X002265Y002463D03*
X001370Y001528D03*
D77*
X001380Y001528D03*
X001930Y001643D03*
X002010Y001403D03*
X002015Y001403D03*
X002275Y002463D03*
X001925Y002558D03*
X002015Y004663D03*
X001925Y004908D03*
D78*
X001835Y004938D03*
X002100Y004633D03*
X002105Y004633D03*
X002290Y005748D03*
X001650Y002458D03*
X001840Y001673D03*
X001845Y001673D03*
X002100Y001373D03*
X001395Y001528D03*
D79*
X001400Y001528D03*
X001810Y001683D03*
X001815Y001683D03*
X002130Y001363D03*
X002130Y004623D03*
X002135Y004623D03*
X001810Y004948D03*
X001805Y004948D03*
X002295Y005748D03*
D80*
X001870Y005958D03*
X001635Y005003D03*
X001635Y004563D03*
X002310Y005003D03*
X002310Y001743D03*
X002310Y001303D03*
X001635Y001303D03*
X001420Y001528D03*
D81*
X001425Y001528D03*
X002085Y005923D03*
D82*
X001620Y002468D03*
D83*
X001620Y005760D03*
X002060Y005875D03*
D84*
X002090Y005933D03*
X001880Y005943D03*
X001625Y002463D03*
D85*
X002105Y002615D03*
X002320Y005750D03*
X001625Y005755D03*
D86*
X001850Y005958D03*
X001855Y005958D03*
X002110Y005953D03*
X001645Y005003D03*
X002290Y004568D03*
X002295Y004568D03*
X001640Y003333D03*
X001805Y002658D03*
X001810Y002658D03*
X001800Y002653D03*
X001835Y002663D03*
X001840Y002663D03*
X001630Y002463D03*
X001835Y002263D03*
X001840Y002263D03*
X001845Y002263D03*
X002130Y002638D03*
X002135Y002638D03*
X002140Y002638D03*
X002145Y002633D03*
X002315Y002463D03*
X002170Y002293D03*
X001650Y001738D03*
X002290Y001308D03*
X002295Y001308D03*
X002305Y000733D03*
X001640Y000733D03*
D87*
X001635Y000733D03*
X001640Y001303D03*
X001645Y001303D03*
X001650Y001303D03*
X001655Y001303D03*
X001660Y001303D03*
X001665Y001303D03*
X001670Y001303D03*
X001675Y001303D03*
X001680Y001303D03*
X001685Y001303D03*
X001690Y001303D03*
X001695Y001303D03*
X001700Y001303D03*
X001705Y001303D03*
X001710Y001303D03*
X001715Y001303D03*
X001720Y001303D03*
X001725Y001303D03*
X001730Y001303D03*
X001735Y001303D03*
X001740Y001303D03*
X001745Y001303D03*
X001750Y001303D03*
X001755Y001303D03*
X001760Y001303D03*
X001765Y001303D03*
X001770Y001303D03*
X001775Y001303D03*
X001780Y001303D03*
X001785Y001303D03*
X001790Y001303D03*
X001795Y001303D03*
X001800Y001303D03*
X001805Y001303D03*
X001810Y001303D03*
X001815Y001303D03*
X001820Y001303D03*
X001825Y001303D03*
X001830Y001303D03*
X001835Y001303D03*
X001840Y001303D03*
X001845Y001303D03*
X001850Y001303D03*
X001855Y001303D03*
X001860Y001303D03*
X001865Y001303D03*
X001870Y001303D03*
X001875Y001303D03*
X001880Y001303D03*
X001885Y001303D03*
X001890Y001303D03*
X001895Y001303D03*
X001900Y001303D03*
X001905Y001303D03*
X001910Y001303D03*
X001915Y001303D03*
X001920Y001303D03*
X001925Y001303D03*
X001930Y001303D03*
X001935Y001303D03*
X001940Y001303D03*
X001945Y001303D03*
X001950Y001303D03*
X001955Y001303D03*
X001960Y001303D03*
X001965Y001303D03*
X001975Y001743D03*
X001980Y001743D03*
X001985Y001743D03*
X001990Y001743D03*
X001995Y001743D03*
X002000Y001743D03*
X002005Y001743D03*
X002010Y001743D03*
X002015Y001743D03*
X002020Y001743D03*
X002025Y001743D03*
X002030Y001743D03*
X002035Y001743D03*
X002040Y001743D03*
X002045Y001743D03*
X002050Y001743D03*
X002055Y001743D03*
X002060Y001743D03*
X002065Y001743D03*
X002070Y001743D03*
X002075Y001743D03*
X002080Y001743D03*
X002085Y001743D03*
X002090Y001743D03*
X002095Y001743D03*
X002100Y001743D03*
X002105Y001743D03*
X002110Y001743D03*
X002115Y001743D03*
X002120Y001743D03*
X002125Y001743D03*
X002130Y001743D03*
X002135Y001743D03*
X002140Y001743D03*
X002145Y001743D03*
X002150Y001743D03*
X002155Y001743D03*
X002160Y001743D03*
X002165Y001743D03*
X002170Y001743D03*
X002175Y001743D03*
X002180Y001743D03*
X002185Y001743D03*
X002190Y001743D03*
X002195Y001743D03*
X002200Y001743D03*
X002205Y001743D03*
X002210Y001743D03*
X002215Y001743D03*
X002220Y001743D03*
X002225Y001743D03*
X002230Y001743D03*
X002235Y001743D03*
X002240Y001743D03*
X002245Y001743D03*
X002250Y001743D03*
X002255Y001743D03*
X002260Y001743D03*
X002265Y001743D03*
X002270Y001743D03*
X002275Y001743D03*
X002280Y001743D03*
X002285Y001743D03*
X002290Y001743D03*
X002295Y001743D03*
X002300Y001743D03*
X002305Y001743D03*
X002305Y001303D03*
X002310Y000733D03*
X001640Y001743D03*
X001870Y002263D03*
X002130Y002283D03*
X002135Y002283D03*
X002140Y002283D03*
X002145Y002283D03*
X002150Y002283D03*
X002155Y002283D03*
X001635Y003333D03*
X001640Y004563D03*
X001645Y004563D03*
X001650Y004563D03*
X001655Y004563D03*
X001660Y004563D03*
X001665Y004563D03*
X001670Y004563D03*
X001675Y004563D03*
X001680Y004563D03*
X001685Y004563D03*
X001690Y004563D03*
X001695Y004563D03*
X001700Y004563D03*
X001705Y004563D03*
X001710Y004563D03*
X001715Y004563D03*
X001720Y004563D03*
X001725Y004563D03*
X001730Y004563D03*
X001735Y004563D03*
X001740Y004563D03*
X001745Y004563D03*
X001750Y004563D03*
X001755Y004563D03*
X001760Y004563D03*
X001765Y004563D03*
X001770Y004563D03*
X001775Y004563D03*
X001780Y004563D03*
X001785Y004563D03*
X001790Y004563D03*
X001795Y004563D03*
X001800Y004563D03*
X001805Y004563D03*
X001810Y004563D03*
X001815Y004563D03*
X001820Y004563D03*
X001825Y004563D03*
X001830Y004563D03*
X001835Y004563D03*
X001840Y004563D03*
X001845Y004563D03*
X001850Y004563D03*
X001855Y004563D03*
X001860Y004563D03*
X001865Y004563D03*
X001870Y004563D03*
X001875Y004563D03*
X001880Y004563D03*
X001885Y004563D03*
X001890Y004563D03*
X001895Y004563D03*
X001900Y004563D03*
X001905Y004563D03*
X001910Y004563D03*
X001915Y004563D03*
X001920Y004563D03*
X001925Y004563D03*
X001930Y004563D03*
X001935Y004563D03*
X001940Y004563D03*
X001945Y004563D03*
X001950Y004563D03*
X001955Y004563D03*
X001960Y004563D03*
X001965Y004563D03*
X001640Y005003D03*
X001630Y005753D03*
X001865Y005958D03*
X002305Y005003D03*
X002305Y004563D03*
D88*
X002310Y004565D03*
X002315Y005750D03*
X002100Y005950D03*
X002110Y002640D03*
X001635Y001740D03*
D89*
X001645Y001740D03*
X001850Y002260D03*
X001855Y002260D03*
X001860Y002260D03*
X001865Y002260D03*
X002125Y002285D03*
X002160Y002285D03*
X002165Y002290D03*
X002125Y002640D03*
X002120Y002640D03*
X002115Y002640D03*
X001830Y002660D03*
X001825Y002660D03*
X001820Y002660D03*
X001815Y002660D03*
X001635Y004030D03*
X002310Y004030D03*
X002300Y004565D03*
X002300Y005005D03*
X002295Y005005D03*
X002290Y005005D03*
X002285Y005005D03*
X002280Y005005D03*
X002275Y005005D03*
X002270Y005005D03*
X002265Y005005D03*
X002260Y005005D03*
X002255Y005005D03*
X002250Y005005D03*
X002245Y005005D03*
X002240Y005005D03*
X002235Y005005D03*
X002230Y005005D03*
X002225Y005005D03*
X002220Y005005D03*
X002215Y005005D03*
X002210Y005005D03*
X002205Y005005D03*
X002200Y005005D03*
X002195Y005005D03*
X002190Y005005D03*
X002185Y005005D03*
X002180Y005005D03*
X002175Y005005D03*
X002170Y005005D03*
X002165Y005005D03*
X002160Y005005D03*
X002155Y005005D03*
X002150Y005005D03*
X002145Y005005D03*
X002140Y005005D03*
X002135Y005005D03*
X002130Y005005D03*
X002125Y005005D03*
X002120Y005005D03*
X002115Y005005D03*
X002110Y005005D03*
X002105Y005005D03*
X002100Y005005D03*
X002095Y005005D03*
X002090Y005005D03*
X002085Y005005D03*
X002080Y005005D03*
X002075Y005005D03*
X002070Y005005D03*
X002065Y005005D03*
X002060Y005005D03*
X002055Y005005D03*
X002050Y005005D03*
X002045Y005005D03*
X002040Y005005D03*
X002035Y005005D03*
X002030Y005005D03*
X002025Y005005D03*
X002020Y005005D03*
X002015Y005005D03*
X002010Y005005D03*
X002005Y005005D03*
X002000Y005005D03*
X001995Y005005D03*
X001990Y005005D03*
X001985Y005005D03*
X001980Y005005D03*
X001975Y005005D03*
X002105Y005950D03*
X001860Y005960D03*
X002300Y001305D03*
D90*
X002160Y001353D03*
X001785Y001693D03*
X001780Y001693D03*
X002160Y004613D03*
X001780Y004958D03*
X001775Y004958D03*
X001645Y005753D03*
D91*
X001975Y002490D03*
X001980Y002485D03*
X002010Y002455D03*
X002015Y002450D03*
X002240Y002460D03*
X001695Y002460D03*
D92*
X001720Y002460D03*
X002210Y002460D03*
X002220Y005745D03*
D93*
X002225Y005745D03*
X001720Y005750D03*
X002220Y002460D03*
D94*
X002190Y002460D03*
X002185Y002460D03*
X001735Y002460D03*
X002205Y005745D03*
D95*
X002175Y005745D03*
X001770Y005745D03*
D96*
X001780Y005745D03*
X002165Y005745D03*
D97*
X002155Y005745D03*
X001790Y005745D03*
D98*
X001850Y004933D03*
X002085Y004638D03*
X002090Y004638D03*
X001910Y002583D03*
X002290Y002463D03*
X001860Y001668D03*
X001855Y001668D03*
X002085Y001378D03*
X002090Y001378D03*
D99*
X001875Y002295D03*
D100*
X001875Y005948D03*
D101*
X001880Y002333D03*
D102*
X002285Y002463D03*
X001885Y001658D03*
X002055Y001388D03*
X002060Y001388D03*
X002060Y004648D03*
X002055Y004648D03*
X001880Y004923D03*
D103*
X001885Y005935D03*
D104*
X001890Y005928D03*
D105*
X001895Y005920D03*
D106*
X001900Y005913D03*
X002075Y005903D03*
D107*
X001905Y005905D03*
D108*
X001910Y005895D03*
X002325Y005750D03*
D109*
X001915Y005890D03*
D110*
X001920Y005885D03*
D111*
X001970Y001523D03*
D112*
X001970Y004785D03*
D113*
X002065Y005883D03*
D114*
X002070Y005893D03*
D115*
X002080Y005913D03*
D116*
X002095Y005945D03*
D117*
X002100Y002575D03*
X002325Y002465D03*
D118*
X002185Y005745D03*
D119*
X002215Y005745D03*
X002200Y002460D03*
X002195Y002460D03*
D120*
X002200Y005745D03*
D121*
X002230Y005745D03*
X002225Y002460D03*
D122*
X002235Y002460D03*
D123*
X002320Y002463D03*
M02*
