G75*
G70*
%OFA0B0*%
%FSLAX24Y24*%
%IPPOS*%
%LPD*%
%AMOC8*
5,1,8,0,0,1.08239X$1,22.5*
%
%ADD10R,0.0197X0.0591*%
%ADD11R,0.0591X0.0197*%
%ADD12R,0.0197X0.0315*%
%ADD13R,0.0500X0.0500*%
%ADD14R,0.0394X0.0500*%
D10*
X004170Y005175D03*
X004564Y005175D03*
X004958Y005175D03*
X005351Y005175D03*
X005745Y005175D03*
X006139Y005175D03*
X006532Y005175D03*
X006926Y005175D03*
X007320Y005175D03*
X007714Y005175D03*
X007714Y007675D03*
X007320Y007675D03*
X006926Y007675D03*
X006532Y007675D03*
X006139Y007675D03*
X005745Y007675D03*
X005351Y007675D03*
X004958Y007675D03*
X004564Y007675D03*
X004170Y007675D03*
D11*
X008422Y007409D03*
X008422Y007015D03*
X008422Y006622D03*
X008422Y006228D03*
X008422Y005834D03*
X008422Y005440D03*
D12*
X008084Y004442D03*
X007493Y004442D03*
X006903Y004442D03*
X006312Y004442D03*
X005572Y004319D03*
X004981Y004319D03*
X007493Y003458D03*
X007493Y002867D03*
X008084Y002867D03*
X008084Y003458D03*
D13*
X004166Y001666D03*
X004166Y003792D03*
X006292Y003792D03*
X006292Y001666D03*
D14*
X005229Y001666D03*
X005229Y003792D03*
M02*
