  0
SECTION
  2
HEADER
  9
$ACADVER
  1
AC1013
  9
$MEASUREMENT
 70
     1
  0
ENDSEC
  0
SECTION
  2
ENTITIES
  0
LWPOLYLINE
  8
0
 62
7
 90
5
 70
1
 10
1.750500
 20
5.560000
 10
1.750500
 20
5.684500
 10
1.169500
 20
5.684500
 10
1.169500
 20
5.435500
 10
1.750500
 20
5.435500
  0
LWPOLYLINE
  8
0
 62
7
 90
5
 70
1
 10
1.750500
 20
5.060000
 10
1.750500
 20
5.184500
 10
1.169500
 20
5.184500
 10
1.169500
 20
4.935500
 10
1.750500
 20
4.935500
  0
LWPOLYLINE
  8
0
 62
7
 90
5
 70
1
 10
1.750500
 20
4.560000
 10
1.750500
 20
4.684500
 10
1.169500
 20
4.684500
 10
1.169500
 20
4.435500
 10
1.750500
 20
4.435500
  0
LWPOLYLINE
  8
0
 62
7
 90
5
 70
1
 10
1.750500
 20
4.060000
 10
1.750500
 20
4.184500
 10
1.169500
 20
4.184500
 10
1.169500
 20
3.935500
 10
1.750500
 20
3.935500
  0
LWPOLYLINE
  8
0
 62
7
 90
5
 70
1
 10
1.750500
 20
3.560000
 10
1.750500
 20
3.684500
 10
1.169500
 20
3.684500
 10
1.169500
 20
3.435500
 10
1.750500
 20
3.435500
  0
LWPOLYLINE
  8
0
 62
7
 90
5
 70
1
 10
1.750500
 20
3.060000
 10
1.750500
 20
3.184500
 10
1.169500
 20
3.184500
 10
1.169500
 20
2.935500
 10
1.750500
 20
2.935500
  0
LWPOLYLINE
  8
0
 62
7
 90
5
 70
1
 10
1.750500
 20
2.560000
 10
1.750500
 20
2.684500
 10
1.169500
 20
2.684500
 10
1.169500
 20
2.435500
 10
1.750500
 20
2.435500
  0
LWPOLYLINE
  8
0
 62
7
 90
5
 70
1
 10
1.750500
 20
2.060000
 10
1.750500
 20
2.184500
 10
1.169500
 20
2.184500
 10
1.169500
 20
1.935500
 10
1.750500
 20
1.935500
  0
LWPOLYLINE
  8
0
 62
7
 90
5
 70
1
 10
2.184500
 20
1.460000
 10
2.184500
 20
1.750500
 10
1.935500
 20
1.750500
 10
1.935500
 20
1.169500
 10
2.184500
 20
1.169500
  0
LWPOLYLINE
  8
0
 62
7
 90
5
 70
1
 10
2.684500
 20
1.460000
 10
2.684500
 20
1.750500
 10
2.435500
 20
1.750500
 10
2.435500
 20
1.169500
 10
2.684500
 20
1.169500
  0
LWPOLYLINE
  8
0
 62
7
 90
5
 70
1
 10
3.184500
 20
1.460000
 10
3.184500
 20
1.750500
 10
2.935500
 20
1.750500
 10
2.935500
 20
1.169500
 10
3.184500
 20
1.169500
  0
LWPOLYLINE
  8
0
 62
7
 90
5
 70
1
 10
3.684500
 20
1.460000
 10
3.684500
 20
1.750500
 10
3.435500
 20
1.750500
 10
3.435500
 20
1.169500
 10
3.684500
 20
1.169500
  0
LWPOLYLINE
  8
0
 62
7
 90
5
 70
1
 10
4.184500
 20
1.460000
 10
4.184500
 20
1.750500
 10
3.935500
 20
1.750500
 10
3.935500
 20
1.169500
 10
4.184500
 20
1.169500
  0
LWPOLYLINE
  8
0
 62
7
 90
5
 70
1
 10
4.684500
 20
1.460000
 10
4.684500
 20
1.750500
 10
4.435500
 20
1.750500
 10
4.435500
 20
1.169500
 10
4.684500
 20
1.169500
  0
LWPOLYLINE
  8
0
 62
7
 90
5
 70
1
 10
5.184500
 20
1.460000
 10
5.184500
 20
1.750500
 10
4.935500
 20
1.750500
 10
4.935500
 20
1.169500
 10
5.184500
 20
1.169500
  0
LWPOLYLINE
  8
0
 62
7
 90
5
 70
1
 10
5.684500
 20
1.460000
 10
5.684500
 20
1.750500
 10
5.435500
 20
1.750500
 10
5.435500
 20
1.169500
 10
5.684500
 20
1.169500
  0
LWPOLYLINE
  8
0
 62
7
 90
5
 70
1
 10
6.450500
 20
2.060000
 10
6.450500
 20
2.184500
 10
5.869500
 20
2.184500
 10
5.869500
 20
1.935500
 10
6.450500
 20
1.935500
  0
LWPOLYLINE
  8
0
 62
7
 90
5
 70
1
 10
6.450500
 20
2.560000
 10
6.450500
 20
2.684500
 10
5.869500
 20
2.684500
 10
5.869500
 20
2.435500
 10
6.450500
 20
2.435500
  0
LWPOLYLINE
  8
0
 62
7
 90
5
 70
1
 10
6.450500
 20
3.060000
 10
6.450500
 20
3.184500
 10
5.869500
 20
3.184500
 10
5.869500
 20
2.935500
 10
6.450500
 20
2.935500
  0
LWPOLYLINE
  8
0
 62
7
 90
5
 70
1
 10
6.450500
 20
3.560000
 10
6.450500
 20
3.684500
 10
5.869500
 20
3.684500
 10
5.869500
 20
3.435500
 10
6.450500
 20
3.435500
  0
LWPOLYLINE
  8
0
 62
7
 90
5
 70
1
 10
6.450500
 20
4.060000
 10
6.450500
 20
4.184500
 10
5.869500
 20
4.184500
 10
5.869500
 20
3.935500
 10
6.450500
 20
3.935500
  0
LWPOLYLINE
  8
0
 62
7
 90
5
 70
1
 10
6.450500
 20
4.560000
 10
6.450500
 20
4.684500
 10
5.869500
 20
4.684500
 10
5.869500
 20
4.435500
 10
6.450500
 20
4.435500
  0
LWPOLYLINE
  8
0
 62
7
 90
5
 70
1
 10
6.450500
 20
5.060000
 10
6.450500
 20
5.184500
 10
5.869500
 20
5.184500
 10
5.869500
 20
4.935500
 10
6.450500
 20
4.935500
  0
LWPOLYLINE
  8
0
 62
7
 90
5
 70
1
 10
6.450500
 20
5.560000
 10
6.450500
 20
5.684500
 10
5.869500
 20
5.684500
 10
5.869500
 20
5.435500
 10
6.450500
 20
5.435500
  0
LWPOLYLINE
  8
0
 62
7
 90
5
 70
1
 10
5.684500
 20
6.160000
 10
5.684500
 20
6.450500
 10
5.435500
 20
6.450500
 10
5.435500
 20
5.869500
 10
5.684500
 20
5.869500
  0
LWPOLYLINE
  8
0
 62
7
 90
5
 70
1
 10
5.184500
 20
6.160000
 10
5.184500
 20
6.450500
 10
4.935500
 20
6.450500
 10
4.935500
 20
5.869500
 10
5.184500
 20
5.869500
  0
LWPOLYLINE
  8
0
 62
7
 90
5
 70
1
 10
4.684500
 20
6.160000
 10
4.684500
 20
6.450500
 10
4.435500
 20
6.450500
 10
4.435500
 20
5.869500
 10
4.684500
 20
5.869500
  0
LWPOLYLINE
  8
0
 62
7
 90
5
 70
1
 10
4.184500
 20
6.160000
 10
4.184500
 20
6.450500
 10
3.935500
 20
6.450500
 10
3.935500
 20
5.869500
 10
4.184500
 20
5.869500
  0
LWPOLYLINE
  8
0
 62
7
 90
5
 70
1
 10
3.684500
 20
6.160000
 10
3.684500
 20
6.450500
 10
3.435500
 20
6.450500
 10
3.435500
 20
5.869500
 10
3.684500
 20
5.869500
  0
LWPOLYLINE
  8
0
 62
7
 90
5
 70
1
 10
3.184500
 20
6.160000
 10
3.184500
 20
6.450500
 10
2.935500
 20
6.450500
 10
2.935500
 20
5.869500
 10
3.184500
 20
5.869500
  0
LWPOLYLINE
  8
0
 62
7
 90
5
 70
1
 10
2.684500
 20
6.160000
 10
2.684500
 20
6.450500
 10
2.435500
 20
6.450500
 10
2.435500
 20
5.869500
 10
2.684500
 20
5.869500
  0
LWPOLYLINE
  8
0
 62
7
 90
5
 70
1
 10
2.184500
 20
6.160000
 10
2.184500
 20
6.450500
 10
1.935500
 20
6.450500
 10
1.935500
 20
5.869500
 10
2.184500
 20
5.869500
  0
LWPOLYLINE
  8
0
 62
7
 90
5
 70
1
 10
3.810000
 20
3.810000
 10
3.810000
 20
3.810000
 10
3.810000
 20
3.810000
 10
3.810000
 20
3.810000
 10
3.810000
 20
3.810000
  0
ENDSEC
  0
EOF
