  0
SECTION
  2
HEADER
  9
$ACADVER
  1
AC1013
  9
$MEASUREMENT
 70
     1
  0
ENDSEC
  0
SECTION
  2
ENTITIES
  0
LWPOLYLINE
  8
0
 62
7
 90
5
 70
1
 10
10.437400
 20
27.201900
 10
10.732050
 20
27.201900
 10
10.732050
 20
28.446900
 10
10.142750
 20
28.446900
 10
10.142750
 20
27.201900
  0
LWPOLYLINE
  8
0
 62
7
 90
5
 70
1
 10
5.837400
 20
27.201900
 10
6.132050
 20
27.201900
 10
6.132050
 20
28.446900
 10
5.542750
 20
28.446900
 10
5.542750
 20
27.201900
  0
LWPOLYLINE
  8
0
 62
7
 90
5
 70
1
 10
8.137400
 20
27.201900
 10
8.432050
 20
27.201900
 10
8.432050
 20
28.446900
 10
7.842750
 20
28.446900
 10
7.842750
 20
27.201900
  0
LWPOLYLINE
  8
0
 62
7
 90
5
 70
1
 10
7.237400
 20
22.099400
 10
7.237400
 20
21.486900
 10
9.037400
 20
21.486900
 10
9.037400
 20
22.711900
 10
7.237400
 20
22.711900
  0
LWPOLYLINE
  8
0
 62
7
 90
5
 70
1
 10
17.295400
 20
27.201900
 10
17.590050
 20
27.201900
 10
17.590050
 20
28.446900
 10
17.000750
 20
28.446900
 10
17.000750
 20
27.201900
  0
LWPOLYLINE
  8
0
 62
7
 90
5
 70
1
 10
12.695400
 20
27.201900
 10
12.990050
 20
27.201900
 10
12.990050
 20
28.446900
 10
12.400750
 20
28.446900
 10
12.400750
 20
27.201900
  0
LWPOLYLINE
  8
0
 62
7
 90
5
 70
1
 10
14.995400
 20
27.201900
 10
15.290050
 20
27.201900
 10
15.290050
 20
28.446900
 10
14.700750
 20
28.446900
 10
14.700750
 20
27.201900
  0
LWPOLYLINE
  8
0
 62
7
 90
5
 70
1
 10
14.095400
 20
22.099400
 10
14.095400
 20
21.486900
 10
15.895400
 20
21.486900
 10
15.895400
 20
22.711900
 10
14.095400
 20
22.711900
  0
LWPOLYLINE
  8
0
 62
7
 90
5
 70
1
 10
8.758000
 20
14.935200
 10
8.758000
 20
14.603200
 10
9.173000
 20
14.603200
 10
9.173000
 20
15.267200
 10
8.758000
 20
15.267200
  0
LWPOLYLINE
  8
0
 62
7
 90
5
 70
1
 10
10.258000
 20
14.935200
 10
10.258000
 20
14.603200
 10
10.673000
 20
14.603200
 10
10.673000
 20
15.267200
 10
10.258000
 20
15.267200
  0
LWPOLYLINE
  8
0
 62
7
 90
5
 70
1
 10
10.510600
 20
4.242500
 10
10.510600
 20
3.910500
 10
10.925600
 20
3.910500
 10
10.925600
 20
4.574500
 10
10.510600
 20
4.574500
  0
LWPOLYLINE
  8
0
 62
7
 90
5
 70
1
 10
12.010600
 20
4.242500
 10
12.010600
 20
3.910500
 10
12.425600
 20
3.910500
 10
12.425600
 20
4.574500
 10
12.010600
 20
4.574500
  0
LWPOLYLINE
  8
0
 62
7
 90
5
 70
1
 10
19.817000
 20
18.351500
 10
19.817000
 20
18.683500
 10
19.402000
 20
18.683500
 10
19.402000
 20
18.019500
 10
19.817000
 20
18.019500
  0
LWPOLYLINE
  8
0
 62
7
 90
5
 70
1
 10
18.317000
 20
18.351500
 10
18.317000
 20
18.683500
 10
17.902000
 20
18.683500
 10
17.902000
 20
18.019500
 10
18.317000
 20
18.019500
  0
LWPOLYLINE
  8
0
 62
7
 90
5
 70
1
 10
31.745828
 20
18.263878
 10
31.745828
 20
18.927878
 10
31.040328
 20
18.927878
 10
31.040328
 20
17.599878
 10
31.745828
 20
17.599878
  0
LWPOLYLINE
  8
0
 62
7
 90
5
 70
1
 10
34.795828
 20
18.263878
 10
34.795828
 20
18.927878
 10
34.090328
 20
18.927878
 10
34.090328
 20
17.599878
 10
34.795828
 20
17.599878
  0
LWPOLYLINE
  8
0
 62
7
 90
5
 70
1
 10
13.386581
 20
19.552159
 10
14.548581
 20
19.552159
 10
14.548581
 20
20.382159
 10
12.224581
 20
20.382159
 10
12.224581
 20
19.552159
  0
LWPOLYLINE
  8
0
 62
7
 90
5
 70
1
 10
13.386581
 20
17.082159
 10
12.224581
 20
17.082159
 10
12.224581
 20
16.252159
 10
14.548581
 20
16.252159
 10
14.548581
 20
17.082159
  0
LWPOLYLINE
  8
0
 62
7
 90
5
 70
1
 10
9.744541
 20
19.555419
 10
10.906541
 20
19.555419
 10
10.906541
 20
20.385419
 10
8.582541
 20
20.385419
 10
8.582541
 20
19.555419
  0
LWPOLYLINE
  8
0
 62
7
 90
5
 70
1
 10
9.744541
 20
17.085419
 10
8.582541
 20
17.085419
 10
8.582541
 20
16.255419
 10
10.906541
 20
16.255419
 10
10.906541
 20
17.085419
  0
LWPOLYLINE
  8
0
 62
7
 90
5
 70
1
 10
21.742400
 20
15.295800
 10
21.410400
 20
15.295800
 10
21.410400
 20
14.880800
 10
22.074400
 20
14.880800
 10
22.074400
 20
15.295800
  0
LWPOLYLINE
  8
0
 62
7
 90
5
 70
1
 10
21.742400
 20
13.795800
 10
21.410400
 20
13.795800
 10
21.410400
 20
13.380800
 10
22.074400
 20
13.380800
 10
22.074400
 20
13.795800
  0
LWPOLYLINE
  8
0
 62
7
 90
5
 70
1
 10
9.486200
 20
5.811200
 10
9.361700
 20
5.811200
 10
9.361700
 20
5.230200
 10
9.610700
 20
5.230200
 10
9.610700
 20
5.811200
  0
LWPOLYLINE
  8
0
 62
7
 90
5
 70
1
 10
9.986200
 20
5.811200
 10
9.861700
 20
5.811200
 10
9.861700
 20
5.230200
 10
10.110700
 20
5.230200
 10
10.110700
 20
5.811200
  0
LWPOLYLINE
  8
0
 62
7
 90
5
 70
1
 10
10.486200
 20
5.811200
 10
10.361700
 20
5.811200
 10
10.361700
 20
5.230200
 10
10.610700
 20
5.230200
 10
10.610700
 20
5.811200
  0
LWPOLYLINE
  8
0
 62
7
 90
5
 70
1
 10
10.986200
 20
5.811200
 10
10.861700
 20
5.811200
 10
10.861700
 20
5.230200
 10
11.110700
 20
5.230200
 10
11.110700
 20
5.811200
  0
LWPOLYLINE
  8
0
 62
7
 90
5
 70
1
 10
11.486200
 20
5.811200
 10
11.361700
 20
5.811200
 10
11.361700
 20
5.230200
 10
11.610700
 20
5.230200
 10
11.610700
 20
5.811200
  0
LWPOLYLINE
  8
0
 62
7
 90
5
 70
1
 10
11.986200
 20
5.811200
 10
11.861700
 20
5.811200
 10
11.861700
 20
5.230200
 10
12.110700
 20
5.230200
 10
12.110700
 20
5.811200
  0
LWPOLYLINE
  8
0
 62
7
 90
5
 70
1
 10
12.486200
 20
5.811200
 10
12.361700
 20
5.811200
 10
12.361700
 20
5.230200
 10
12.610700
 20
5.230200
 10
12.610700
 20
5.811200
  0
LWPOLYLINE
  8
0
 62
7
 90
5
 70
1
 10
12.986200
 20
5.811200
 10
12.861700
 20
5.811200
 10
12.861700
 20
5.230200
 10
13.110700
 20
5.230200
 10
13.110700
 20
5.811200
  0
LWPOLYLINE
  8
0
 62
7
 90
5
 70
1
 10
13.586200
 20
6.245200
 10
13.295700
 20
6.245200
 10
13.295700
 20
5.996200
 10
13.876700
 20
5.996200
 10
13.876700
 20
6.245200
  0
LWPOLYLINE
  8
0
 62
7
 90
5
 70
1
 10
13.586200
 20
6.745200
 10
13.295700
 20
6.745200
 10
13.295700
 20
6.496200
 10
13.876700
 20
6.496200
 10
13.876700
 20
6.745200
  0
LWPOLYLINE
  8
0
 62
7
 90
5
 70
1
 10
13.586200
 20
7.245200
 10
13.295700
 20
7.245200
 10
13.295700
 20
6.996200
 10
13.876700
 20
6.996200
 10
13.876700
 20
7.245200
  0
LWPOLYLINE
  8
0
 62
7
 90
5
 70
1
 10
13.586200
 20
7.745200
 10
13.295700
 20
7.745200
 10
13.295700
 20
7.496200
 10
13.876700
 20
7.496200
 10
13.876700
 20
7.745200
  0
LWPOLYLINE
  8
0
 62
7
 90
5
 70
1
 10
13.586200
 20
8.245200
 10
13.295700
 20
8.245200
 10
13.295700
 20
7.996200
 10
13.876700
 20
7.996200
 10
13.876700
 20
8.245200
  0
LWPOLYLINE
  8
0
 62
7
 90
5
 70
1
 10
13.586200
 20
8.745200
 10
13.295700
 20
8.745200
 10
13.295700
 20
8.496200
 10
13.876700
 20
8.496200
 10
13.876700
 20
8.745200
  0
LWPOLYLINE
  8
0
 62
7
 90
5
 70
1
 10
13.586200
 20
9.245200
 10
13.295700
 20
9.245200
 10
13.295700
 20
8.996200
 10
13.876700
 20
8.996200
 10
13.876700
 20
9.245200
  0
LWPOLYLINE
  8
0
 62
7
 90
5
 70
1
 10
13.586200
 20
9.745200
 10
13.295700
 20
9.745200
 10
13.295700
 20
9.496200
 10
13.876700
 20
9.496200
 10
13.876700
 20
9.745200
  0
LWPOLYLINE
  8
0
 62
7
 90
5
 70
1
 10
12.986200
 20
10.511200
 10
12.861700
 20
10.511200
 10
12.861700
 20
9.930200
 10
13.110700
 20
9.930200
 10
13.110700
 20
10.511200
  0
LWPOLYLINE
  8
0
 62
7
 90
5
 70
1
 10
12.486200
 20
10.511200
 10
12.361700
 20
10.511200
 10
12.361700
 20
9.930200
 10
12.610700
 20
9.930200
 10
12.610700
 20
10.511200
  0
LWPOLYLINE
  8
0
 62
7
 90
5
 70
1
 10
11.986200
 20
10.511200
 10
11.861700
 20
10.511200
 10
11.861700
 20
9.930200
 10
12.110700
 20
9.930200
 10
12.110700
 20
10.511200
  0
LWPOLYLINE
  8
0
 62
7
 90
5
 70
1
 10
11.486200
 20
10.511200
 10
11.361700
 20
10.511200
 10
11.361700
 20
9.930200
 10
11.610700
 20
9.930200
 10
11.610700
 20
10.511200
  0
LWPOLYLINE
  8
0
 62
7
 90
5
 70
1
 10
10.986200
 20
10.511200
 10
10.861700
 20
10.511200
 10
10.861700
 20
9.930200
 10
11.110700
 20
9.930200
 10
11.110700
 20
10.511200
  0
LWPOLYLINE
  8
0
 62
7
 90
5
 70
1
 10
10.486200
 20
10.511200
 10
10.361700
 20
10.511200
 10
10.361700
 20
9.930200
 10
10.610700
 20
9.930200
 10
10.610700
 20
10.511200
  0
LWPOLYLINE
  8
0
 62
7
 90
5
 70
1
 10
9.986200
 20
10.511200
 10
9.861700
 20
10.511200
 10
9.861700
 20
9.930200
 10
10.110700
 20
9.930200
 10
10.110700
 20
10.511200
  0
LWPOLYLINE
  8
0
 62
7
 90
5
 70
1
 10
9.486200
 20
10.511200
 10
9.361700
 20
10.511200
 10
9.361700
 20
9.930200
 10
9.610700
 20
9.930200
 10
9.610700
 20
10.511200
  0
LWPOLYLINE
  8
0
 62
7
 90
5
 70
1
 10
8.886200
 20
9.745200
 10
8.595700
 20
9.745200
 10
8.595700
 20
9.496200
 10
9.176700
 20
9.496200
 10
9.176700
 20
9.745200
  0
LWPOLYLINE
  8
0
 62
7
 90
5
 70
1
 10
8.886200
 20
9.245200
 10
8.595700
 20
9.245200
 10
8.595700
 20
8.996200
 10
9.176700
 20
8.996200
 10
9.176700
 20
9.245200
  0
LWPOLYLINE
  8
0
 62
7
 90
5
 70
1
 10
8.886200
 20
8.745200
 10
8.595700
 20
8.745200
 10
8.595700
 20
8.496200
 10
9.176700
 20
8.496200
 10
9.176700
 20
8.745200
  0
LWPOLYLINE
  8
0
 62
7
 90
5
 70
1
 10
8.886200
 20
8.245200
 10
8.595700
 20
8.245200
 10
8.595700
 20
7.996200
 10
9.176700
 20
7.996200
 10
9.176700
 20
8.245200
  0
LWPOLYLINE
  8
0
 62
7
 90
5
 70
1
 10
8.886200
 20
7.745200
 10
8.595700
 20
7.745200
 10
8.595700
 20
7.496200
 10
9.176700
 20
7.496200
 10
9.176700
 20
7.745200
  0
LWPOLYLINE
  8
0
 62
7
 90
5
 70
1
 10
8.886200
 20
7.245200
 10
8.595700
 20
7.245200
 10
8.595700
 20
6.996200
 10
9.176700
 20
6.996200
 10
9.176700
 20
7.245200
  0
LWPOLYLINE
  8
0
 62
7
 90
5
 70
1
 10
8.886200
 20
6.745200
 10
8.595700
 20
6.745200
 10
8.595700
 20
6.496200
 10
9.176700
 20
6.496200
 10
9.176700
 20
6.745200
  0
LWPOLYLINE
  8
0
 62
7
 90
5
 70
1
 10
8.886200
 20
6.245200
 10
8.595700
 20
6.245200
 10
8.595700
 20
5.996200
 10
9.176700
 20
5.996200
 10
9.176700
 20
6.245200
  0
LWPOLYLINE
  8
0
 62
7
 90
5
 70
1
 10
11.236200
 20
7.870700
 10
11.236200
 20
7.870700
 10
11.236200
 20
7.870700
 10
11.236200
 20
7.870700
 10
11.236200
 20
7.870700
  0
LWPOLYLINE
  8
0
 62
7
 90
5
 70
1
 10
19.958500
 20
16.851700
 10
20.083000
 20
16.851700
 10
20.083000
 20
17.432700
 10
19.834000
 20
17.432700
 10
19.834000
 20
16.851700
  0
LWPOLYLINE
  8
0
 62
7
 90
5
 70
1
 10
19.458500
 20
16.851700
 10
19.583000
 20
16.851700
 10
19.583000
 20
17.432700
 10
19.334000
 20
17.432700
 10
19.334000
 20
16.851700
  0
LWPOLYLINE
  8
0
 62
7
 90
5
 70
1
 10
18.958500
 20
16.851700
 10
19.083000
 20
16.851700
 10
19.083000
 20
17.432700
 10
18.834000
 20
17.432700
 10
18.834000
 20
16.851700
  0
LWPOLYLINE
  8
0
 62
7
 90
5
 70
1
 10
18.458500
 20
16.851700
 10
18.583000
 20
16.851700
 10
18.583000
 20
17.432700
 10
18.334000
 20
17.432700
 10
18.334000
 20
16.851700
  0
LWPOLYLINE
  8
0
 62
7
 90
5
 70
1
 10
17.958500
 20
16.851700
 10
18.083000
 20
16.851700
 10
18.083000
 20
17.432700
 10
17.834000
 20
17.432700
 10
17.834000
 20
16.851700
  0
LWPOLYLINE
  8
0
 62
7
 90
5
 70
1
 10
17.458500
 20
16.851700
 10
17.583000
 20
16.851700
 10
17.583000
 20
17.432700
 10
17.334000
 20
17.432700
 10
17.334000
 20
16.851700
  0
LWPOLYLINE
  8
0
 62
7
 90
5
 70
1
 10
16.958500
 20
16.851700
 10
17.083000
 20
16.851700
 10
17.083000
 20
17.432700
 10
16.834000
 20
17.432700
 10
16.834000
 20
16.851700
  0
LWPOLYLINE
  8
0
 62
7
 90
5
 70
1
 10
16.458500
 20
16.851700
 10
16.583000
 20
16.851700
 10
16.583000
 20
17.432700
 10
16.334000
 20
17.432700
 10
16.334000
 20
16.851700
  0
LWPOLYLINE
  8
0
 62
7
 90
5
 70
1
 10
15.858500
 20
16.417700
 10
16.149000
 20
16.417700
 10
16.149000
 20
16.666700
 10
15.568000
 20
16.666700
 10
15.568000
 20
16.417700
  0
LWPOLYLINE
  8
0
 62
7
 90
5
 70
1
 10
15.858500
 20
15.917700
 10
16.149000
 20
15.917700
 10
16.149000
 20
16.166700
 10
15.568000
 20
16.166700
 10
15.568000
 20
15.917700
  0
LWPOLYLINE
  8
0
 62
7
 90
5
 70
1
 10
15.858500
 20
15.417700
 10
16.149000
 20
15.417700
 10
16.149000
 20
15.666700
 10
15.568000
 20
15.666700
 10
15.568000
 20
15.417700
  0
LWPOLYLINE
  8
0
 62
7
 90
5
 70
1
 10
15.858500
 20
14.917700
 10
16.149000
 20
14.917700
 10
16.149000
 20
15.166700
 10
15.568000
 20
15.166700
 10
15.568000
 20
14.917700
  0
LWPOLYLINE
  8
0
 62
7
 90
5
 70
1
 10
15.858500
 20
14.417700
 10
16.149000
 20
14.417700
 10
16.149000
 20
14.666700
 10
15.568000
 20
14.666700
 10
15.568000
 20
14.417700
  0
LWPOLYLINE
  8
0
 62
7
 90
5
 70
1
 10
15.858500
 20
13.917700
 10
16.149000
 20
13.917700
 10
16.149000
 20
14.166700
 10
15.568000
 20
14.166700
 10
15.568000
 20
13.917700
  0
LWPOLYLINE
  8
0
 62
7
 90
5
 70
1
 10
15.858500
 20
13.417700
 10
16.149000
 20
13.417700
 10
16.149000
 20
13.666700
 10
15.568000
 20
13.666700
 10
15.568000
 20
13.417700
  0
LWPOLYLINE
  8
0
 62
7
 90
5
 70
1
 10
15.858500
 20
12.917700
 10
16.149000
 20
12.917700
 10
16.149000
 20
13.166700
 10
15.568000
 20
13.166700
 10
15.568000
 20
12.917700
  0
LWPOLYLINE
  8
0
 62
7
 90
5
 70
1
 10
16.458500
 20
12.151700
 10
16.583000
 20
12.151700
 10
16.583000
 20
12.732700
 10
16.334000
 20
12.732700
 10
16.334000
 20
12.151700
  0
LWPOLYLINE
  8
0
 62
7
 90
5
 70
1
 10
16.958500
 20
12.151700
 10
17.083000
 20
12.151700
 10
17.083000
 20
12.732700
 10
16.834000
 20
12.732700
 10
16.834000
 20
12.151700
  0
LWPOLYLINE
  8
0
 62
7
 90
5
 70
1
 10
17.458500
 20
12.151700
 10
17.583000
 20
12.151700
 10
17.583000
 20
12.732700
 10
17.334000
 20
12.732700
 10
17.334000
 20
12.151700
  0
LWPOLYLINE
  8
0
 62
7
 90
5
 70
1
 10
17.958500
 20
12.151700
 10
18.083000
 20
12.151700
 10
18.083000
 20
12.732700
 10
17.834000
 20
12.732700
 10
17.834000
 20
12.151700
  0
LWPOLYLINE
  8
0
 62
7
 90
5
 70
1
 10
18.458500
 20
12.151700
 10
18.583000
 20
12.151700
 10
18.583000
 20
12.732700
 10
18.334000
 20
12.732700
 10
18.334000
 20
12.151700
  0
LWPOLYLINE
  8
0
 62
7
 90
5
 70
1
 10
18.958500
 20
12.151700
 10
19.083000
 20
12.151700
 10
19.083000
 20
12.732700
 10
18.834000
 20
12.732700
 10
18.834000
 20
12.151700
  0
LWPOLYLINE
  8
0
 62
7
 90
5
 70
1
 10
19.458500
 20
12.151700
 10
19.583000
 20
12.151700
 10
19.583000
 20
12.732700
 10
19.334000
 20
12.732700
 10
19.334000
 20
12.151700
  0
LWPOLYLINE
  8
0
 62
7
 90
5
 70
1
 10
19.958500
 20
12.151700
 10
20.083000
 20
12.151700
 10
20.083000
 20
12.732700
 10
19.834000
 20
12.732700
 10
19.834000
 20
12.151700
  0
LWPOLYLINE
  8
0
 62
7
 90
5
 70
1
 10
20.558500
 20
12.917700
 10
20.849000
 20
12.917700
 10
20.849000
 20
13.166700
 10
20.268000
 20
13.166700
 10
20.268000
 20
12.917700
  0
LWPOLYLINE
  8
0
 62
7
 90
5
 70
1
 10
20.558500
 20
13.417700
 10
20.849000
 20
13.417700
 10
20.849000
 20
13.666700
 10
20.268000
 20
13.666700
 10
20.268000
 20
13.417700
  0
LWPOLYLINE
  8
0
 62
7
 90
5
 70
1
 10
20.558500
 20
13.917700
 10
20.849000
 20
13.917700
 10
20.849000
 20
14.166700
 10
20.268000
 20
14.166700
 10
20.268000
 20
13.917700
  0
LWPOLYLINE
  8
0
 62
7
 90
5
 70
1
 10
20.558500
 20
14.417700
 10
20.849000
 20
14.417700
 10
20.849000
 20
14.666700
 10
20.268000
 20
14.666700
 10
20.268000
 20
14.417700
  0
LWPOLYLINE
  8
0
 62
7
 90
5
 70
1
 10
20.558500
 20
14.917700
 10
20.849000
 20
14.917700
 10
20.849000
 20
15.166700
 10
20.268000
 20
15.166700
 10
20.268000
 20
14.917700
  0
LWPOLYLINE
  8
0
 62
7
 90
5
 70
1
 10
20.558500
 20
15.417700
 10
20.849000
 20
15.417700
 10
20.849000
 20
15.666700
 10
20.268000
 20
15.666700
 10
20.268000
 20
15.417700
  0
LWPOLYLINE
  8
0
 62
7
 90
5
 70
1
 10
20.558500
 20
15.917700
 10
20.849000
 20
15.917700
 10
20.849000
 20
16.166700
 10
20.268000
 20
16.166700
 10
20.268000
 20
15.917700
  0
LWPOLYLINE
  8
0
 62
7
 90
5
 70
1
 10
20.558500
 20
16.417700
 10
20.849000
 20
16.417700
 10
20.849000
 20
16.666700
 10
20.268000
 20
16.666700
 10
20.268000
 20
16.417700
  0
LWPOLYLINE
  8
0
 62
7
 90
5
 70
1
 10
18.208500
 20
14.792200
 10
18.208500
 20
14.792200
 10
18.208500
 20
14.792200
 10
18.208500
 20
14.792200
 10
18.208500
 20
14.792200
  0
LWPOLYLINE
  8
0
 62
7
 90
5
 70
1
 10
20.151994
 20
21.624150
 10
20.151994
 20
21.956150
 10
19.736994
 20
21.956150
 10
19.736994
 20
21.292150
 10
20.151994
 20
21.292150
  0
LWPOLYLINE
  8
0
 62
7
 90
5
 70
1
 10
18.651994
 20
21.624150
 10
18.651994
 20
21.956150
 10
18.236994
 20
21.956150
 10
18.236994
 20
21.292150
 10
18.651994
 20
21.292150
  0
LWPOLYLINE
  8
0
 62
7
 90
5
 70
1
 10
20.219800
 20
6.882900
 10
20.053800
 20
6.882900
 10
20.053800
 20
4.724900
 10
20.385800
 20
4.724900
 10
20.385800
 20
6.882900
  0
LWPOLYLINE
  8
0
 62
7
 90
5
 70
1
 10
18.719800
 20
6.882900
 10
18.553800
 20
6.882900
 10
18.553800
 20
4.724900
 10
18.885800
 20
4.724900
 10
18.885800
 20
6.882900
  0
LWPOLYLINE
  8
0
 62
7
 90
5
 70
1
 10
17.219800
 20
6.882900
 10
17.053800
 20
6.882900
 10
17.053800
 20
4.724900
 10
17.385800
 20
4.724900
 10
17.385800
 20
6.882900
  0
LWPOLYLINE
  8
0
 62
7
 90
5
 70
1
 10
20.219800
 20
10.057900
 10
20.053800
 20
10.057900
 10
20.053800
 20
7.899900
 10
20.385800
 20
7.899900
 10
20.385800
 20
10.057900
  0
LWPOLYLINE
  8
0
 62
7
 90
5
 70
1
 10
18.719800
 20
10.057900
 10
18.553800
 20
10.057900
 10
18.553800
 20
7.899900
 10
18.885800
 20
7.899900
 10
18.885800
 20
10.057900
  0
LWPOLYLINE
  8
0
 62
7
 90
5
 70
1
 10
17.219800
 20
10.057900
 10
17.053800
 20
10.057900
 10
17.053800
 20
7.899900
 10
17.385800
 20
7.899900
 10
17.385800
 20
10.057900
  0
LWPOLYLINE
  8
0
 62
7
 90
5
 70
1
 10
8.758000
 20
13.411200
 10
8.758000
 20
13.079200
 10
9.173000
 20
13.079200
 10
9.173000
 20
13.743200
 10
8.758000
 20
13.743200
  0
LWPOLYLINE
  8
0
 62
7
 90
5
 70
1
 10
10.258000
 20
13.411200
 10
10.258000
 20
13.079200
 10
10.673000
 20
13.079200
 10
10.673000
 20
13.743200
 10
10.258000
 20
13.743200
  0
LWPOLYLINE
  8
0
 62
7
 90
5
 70
1
 10
6.863000
 20
4.242500
 10
6.863000
 20
4.574500
 10
6.448000
 20
4.574500
 10
6.448000
 20
3.910500
 10
6.863000
 20
3.910500
  0
LWPOLYLINE
  8
0
 62
7
 90
5
 70
1
 10
5.363000
 20
4.242500
 10
5.363000
 20
4.574500
 10
4.948000
 20
4.574500
 10
4.948000
 20
3.910500
 10
5.363000
 20
3.910500
  0
LWPOLYLINE
  8
0
 62
7
 90
5
 70
1
 10
10.673000
 20
11.887200
 10
10.673000
 20
12.219200
 10
10.258000
 20
12.219200
 10
10.258000
 20
11.555200
 10
10.673000
 20
11.555200
  0
LWPOLYLINE
  8
0
 62
7
 90
5
 70
1
 10
9.173000
 20
11.887200
 10
9.173000
 20
12.219200
 10
8.758000
 20
12.219200
 10
8.758000
 20
11.555200
 10
9.173000
 20
11.555200
  0
LWPOLYLINE
  8
0
 62
7
 90
5
 70
1
 10
21.691600
 20
6.126400
 10
21.359600
 20
6.126400
 10
21.359600
 20
5.711400
 10
22.023600
 20
5.711400
 10
22.023600
 20
6.126400
  0
LWPOLYLINE
  8
0
 62
7
 90
5
 70
1
 10
21.691600
 20
4.626400
 10
21.359600
 20
4.626400
 10
21.359600
 20
4.211400
 10
22.023600
 20
4.211400
 10
22.023600
 20
4.626400
  0
LWPOLYLINE
  8
0
 62
7
 90
5
 70
1
 10
21.691600
 20
8.666400
 10
21.359600
 20
8.666400
 10
21.359600
 20
8.251400
 10
22.023600
 20
8.251400
 10
22.023600
 20
8.666400
  0
LWPOLYLINE
  8
0
 62
7
 90
5
 70
1
 10
21.691600
 20
7.166400
 10
21.359600
 20
7.166400
 10
21.359600
 20
6.751400
 10
22.023600
 20
6.751400
 10
22.023600
 20
7.166400
  0
LWPOLYLINE
  8
0
 62
7
 90
5
 70
1
 10
21.691600
 20
9.291400
 10
22.023600
 20
9.291400
 10
22.023600
 20
9.706400
 10
21.359600
 20
9.706400
 10
21.359600
 20
9.291400
  0
LWPOLYLINE
  8
0
 62
7
 90
5
 70
1
 10
21.691600
 20
10.791400
 10
22.023600
 20
10.791400
 10
22.023600
 20
11.206400
 10
21.359600
 20
11.206400
 10
21.359600
 20
10.791400
  0
LWPOLYLINE
  8
0
 62
7
 90
5
 70
1
 10
21.742400
 20
15.920800
 10
22.074400
 20
15.920800
 10
22.074400
 20
16.335800
 10
21.410400
 20
16.335800
 10
21.410400
 20
15.920800
  0
LWPOLYLINE
  8
0
 62
7
 90
5
 70
1
 10
21.742400
 20
17.420800
 10
22.074400
 20
17.420800
 10
22.074400
 20
17.835800
 10
21.410400
 20
17.835800
 10
21.410400
 20
17.420800
  0
LWPOLYLINE
  8
0
 62
7
 90
5
 70
1
 10
4.000000
 20
28.000000
 10
4.000000
 20
28.000000
 10
4.000000
 20
28.000000
 10
4.000000
 20
28.000000
 10
4.000000
 20
28.000000
  0
LWPOLYLINE
  8
0
 62
7
 90
5
 70
1
 10
35.000000
 20
5.000000
 10
35.000000
 20
5.000000
 10
35.000000
 20
5.000000
 10
35.000000
 20
5.000000
 10
35.000000
 20
5.000000
  0
LWPOLYLINE
  8
0
 62
7
 90
5
 70
1
 10
35.000000
 20
28.000000
 10
35.000000
 20
28.000000
 10
35.000000
 20
28.000000
 10
35.000000
 20
28.000000
 10
35.000000
 20
28.000000
  0
ENDSEC
  0
EOF
