  0
SECTION
  2
HEADER
  9
$ACADVER
  1
AC1013
  9
$MEASUREMENT
 70
     1
  0
ENDSEC
  0
SECTION
  2
ENTITIES
  0
LWPOLYLINE
  8
0
 62
7
 90
5
 70
1
 10
8.480597
 20
29.296897
 10
8.154822
 20
29.296897
 10
8.154822
 20
28.599697
 10
8.806372
 20
28.599697
 10
8.806372
 20
29.296897
  0
LWPOLYLINE
  8
0
 62
7
 90
5
 70
1
 10
8.480597
 20
27.839897
 10
8.154822
 20
27.839897
 10
8.154822
 20
27.142697
 10
8.806372
 20
27.142697
 10
8.806372
 20
27.839897
  0
LWPOLYLINE
  8
0
 62
7
 90
5
 70
1
 10
8.480597
 20
26.382897
 10
8.154822
 20
26.382897
 10
8.154822
 20
25.685697
 10
8.806372
 20
25.685697
 10
8.806372
 20
26.382897
  0
LWPOLYLINE
  8
0
 62
7
 90
5
 70
1
 10
8.480597
 20
24.925897
 10
8.154822
 20
24.925897
 10
8.154822
 20
24.228697
 10
8.806372
 20
24.228697
 10
8.806372
 20
24.925897
  0
LWPOLYLINE
  8
0
 62
7
 90
5
 70
1
 10
8.480597
 20
23.468897
 10
8.154822
 20
23.468897
 10
8.154822
 20
22.771697
 10
8.806372
 20
22.771697
 10
8.806372
 20
23.468897
  0
LWPOLYLINE
  8
0
 62
7
 90
5
 70
1
 10
8.480597
 20
22.011897
 10
8.154822
 20
22.011897
 10
8.154822
 20
21.314697
 10
8.806372
 20
21.314697
 10
8.806372
 20
22.011897
  0
LWPOLYLINE
  8
0
 62
7
 90
5
 70
1
 10
8.480597
 20
20.554897
 10
8.154822
 20
20.554897
 10
8.154822
 20
19.857697
 10
8.806372
 20
19.857697
 10
8.806372
 20
20.554897
  0
LWPOLYLINE
  8
0
 62
7
 90
5
 70
1
 10
8.480597
 20
19.097897
 10
8.154822
 20
19.097897
 10
8.154822
 20
18.400697
 10
8.806372
 20
18.400697
 10
8.806372
 20
19.097897
  0
LWPOLYLINE
  8
0
 62
7
 90
5
 70
1
 10
8.480597
 20
17.640897
 10
8.154822
 20
17.640897
 10
8.154822
 20
16.943697
 10
8.806372
 20
16.943697
 10
8.806372
 20
17.640897
  0
LWPOLYLINE
  8
0
 62
7
 90
5
 70
1
 10
8.480597
 20
16.183897
 10
8.154822
 20
16.183897
 10
8.154822
 20
15.486697
 10
8.806372
 20
15.486697
 10
8.806372
 20
16.183897
  0
LWPOLYLINE
  8
0
 62
7
 90
5
 70
1
 10
8.480597
 20
14.726897
 10
8.154822
 20
14.726897
 10
8.154822
 20
14.029697
 10
8.806372
 20
14.029697
 10
8.806372
 20
14.726897
  0
LWPOLYLINE
  8
0
 62
7
 90
5
 70
1
 10
8.480597
 20
13.269897
 10
8.154822
 20
13.269897
 10
8.154822
 20
12.572697
 10
8.806372
 20
12.572697
 10
8.806372
 20
13.269897
  0
LWPOLYLINE
  8
0
 62
7
 90
5
 70
1
 10
8.480597
 20
11.812897
 10
8.154822
 20
11.812897
 10
8.154822
 20
11.115697
 10
8.806372
 20
11.115697
 10
8.806372
 20
11.812897
  0
LWPOLYLINE
  8
0
 62
7
 90
5
 70
1
 10
9.680597
 20
10.612897
 10
9.331997
 20
10.612897
 10
9.331997
 20
9.915697
 10
10.029197
 20
9.915697
 10
10.029197
 20
10.612897
  0
LWPOLYLINE
  8
0
 62
7
 90
5
 70
1
 10
11.100597
 20
10.612897
 10
10.751997
 20
10.612897
 10
10.751997
 20
9.915697
 10
11.449197
 20
9.915697
 10
11.449197
 20
10.612897
  0
LWPOLYLINE
  8
0
 62
7
 90
5
 70
1
 10
12.520597
 20
10.612897
 10
12.171997
 20
10.612897
 10
12.171997
 20
9.915697
 10
12.869197
 20
9.915697
 10
12.869197
 20
10.612897
  0
LWPOLYLINE
  8
0
 62
7
 90
5
 70
1
 10
13.940597
 20
10.612897
 10
13.591997
 20
10.612897
 10
13.591997
 20
9.915697
 10
14.289197
 20
9.915697
 10
14.289197
 20
10.612897
  0
LWPOLYLINE
  8
0
 62
7
 90
5
 70
1
 10
15.360597
 20
10.612897
 10
15.011997
 20
10.612897
 10
15.011997
 20
9.915697
 10
15.709197
 20
9.915697
 10
15.709197
 20
10.612897
  0
LWPOLYLINE
  8
0
 62
7
 90
5
 70
1
 10
16.780597
 20
10.612897
 10
16.431997
 20
10.612897
 10
16.431997
 20
9.915697
 10
17.129197
 20
9.915697
 10
17.129197
 20
10.612897
  0
LWPOLYLINE
  8
0
 62
7
 90
5
 70
1
 10
18.200597
 20
10.612897
 10
17.851997
 20
10.612897
 10
17.851997
 20
9.915697
 10
18.549197
 20
9.915697
 10
18.549197
 20
10.612897
  0
LWPOLYLINE
  8
0
 62
7
 90
5
 70
1
 10
19.620597
 20
10.612897
 10
19.271997
 20
10.612897
 10
19.271997
 20
9.915697
 10
19.969197
 20
9.915697
 10
19.969197
 20
10.612897
  0
LWPOLYLINE
  8
0
 62
7
 90
5
 70
1
 10
21.040597
 20
10.612897
 10
20.691997
 20
10.612897
 10
20.691997
 20
9.915697
 10
21.389197
 20
9.915697
 10
21.389197
 20
10.612897
  0
LWPOLYLINE
  8
0
 62
7
 90
5
 70
1
 10
22.195597
 20
11.812897
 10
21.869822
 20
11.812897
 10
21.869822
 20
11.115697
 10
22.521372
 20
11.115697
 10
22.521372
 20
11.812897
  0
LWPOLYLINE
  8
0
 62
7
 90
5
 70
1
 10
22.195597
 20
13.269897
 10
21.869822
 20
13.269897
 10
21.869822
 20
12.572697
 10
22.521372
 20
12.572697
 10
22.521372
 20
13.269897
  0
LWPOLYLINE
  8
0
 62
7
 90
5
 70
1
 10
22.195597
 20
14.726897
 10
21.869822
 20
14.726897
 10
21.869822
 20
14.029697
 10
22.521372
 20
14.029697
 10
22.521372
 20
14.726897
  0
LWPOLYLINE
  8
0
 62
7
 90
5
 70
1
 10
22.195597
 20
16.183897
 10
21.869822
 20
16.183897
 10
21.869822
 20
15.486697
 10
22.521372
 20
15.486697
 10
22.521372
 20
16.183897
  0
LWPOLYLINE
  8
0
 62
7
 90
5
 70
1
 10
22.195597
 20
17.640897
 10
21.869822
 20
17.640897
 10
21.869822
 20
16.943697
 10
22.521372
 20
16.943697
 10
22.521372
 20
17.640897
  0
LWPOLYLINE
  8
0
 62
7
 90
5
 70
1
 10
22.195597
 20
19.097897
 10
21.869822
 20
19.097897
 10
21.869822
 20
18.400697
 10
22.521372
 20
18.400697
 10
22.521372
 20
19.097897
  0
LWPOLYLINE
  8
0
 62
7
 90
5
 70
1
 10
22.195597
 20
20.554897
 10
21.869822
 20
20.554897
 10
21.869822
 20
19.857697
 10
22.521372
 20
19.857697
 10
22.521372
 20
20.554897
  0
LWPOLYLINE
  8
0
 62
7
 90
5
 70
1
 10
22.195597
 20
22.011897
 10
21.869822
 20
22.011897
 10
21.869822
 20
21.314697
 10
22.521372
 20
21.314697
 10
22.521372
 20
22.011897
  0
LWPOLYLINE
  8
0
 62
7
 90
5
 70
1
 10
22.195597
 20
23.468897
 10
21.869822
 20
23.468897
 10
21.869822
 20
22.771697
 10
22.521372
 20
22.771697
 10
22.521372
 20
23.468897
  0
LWPOLYLINE
  8
0
 62
7
 90
5
 70
1
 10
22.195597
 20
24.925897
 10
21.869822
 20
24.925897
 10
21.869822
 20
24.228697
 10
22.521372
 20
24.228697
 10
22.521372
 20
24.925897
  0
LWPOLYLINE
  8
0
 62
7
 90
5
 70
1
 10
22.195597
 20
26.382897
 10
21.869822
 20
26.382897
 10
21.869822
 20
25.685697
 10
22.521372
 20
25.685697
 10
22.521372
 20
26.382897
  0
LWPOLYLINE
  8
0
 62
7
 90
5
 70
1
 10
22.195597
 20
27.839897
 10
21.869822
 20
27.839897
 10
21.869822
 20
27.142697
 10
22.521372
 20
27.142697
 10
22.521372
 20
27.839897
  0
LWPOLYLINE
  8
0
 62
7
 90
5
 70
1
 10
22.195597
 20
29.296897
 10
21.869822
 20
29.296897
 10
21.869822
 20
28.599697
 10
22.521372
 20
28.599697
 10
22.521372
 20
29.296897
  0
LWPOLYLINE
  8
0
 62
7
 90
5
 70
1
 10
21.040597
 20
30.502897
 10
20.691997
 20
30.502897
 10
20.691997
 20
29.805697
 10
21.389197
 20
29.805697
 10
21.389197
 20
30.502897
  0
LWPOLYLINE
  8
0
 62
7
 90
5
 70
1
 10
19.620597
 20
30.502897
 10
19.271997
 20
30.502897
 10
19.271997
 20
29.805697
 10
19.969197
 20
29.805697
 10
19.969197
 20
30.502897
  0
LWPOLYLINE
  8
0
 62
7
 90
5
 70
1
 10
18.200597
 20
30.502897
 10
17.851997
 20
30.502897
 10
17.851997
 20
29.805697
 10
18.549197
 20
29.805697
 10
18.549197
 20
30.502897
  0
LWPOLYLINE
  8
0
 62
7
 90
5
 70
1
 10
16.780597
 20
30.502897
 10
16.431997
 20
30.502897
 10
16.431997
 20
29.805697
 10
17.129197
 20
29.805697
 10
17.129197
 20
30.502897
  0
LWPOLYLINE
  8
0
 62
7
 90
5
 70
1
 10
15.360597
 20
30.502897
 10
15.011997
 20
30.502897
 10
15.011997
 20
29.805697
 10
15.709197
 20
29.805697
 10
15.709197
 20
30.502897
  0
LWPOLYLINE
  8
0
 62
7
 90
5
 70
1
 10
13.940597
 20
30.502897
 10
13.591997
 20
30.502897
 10
13.591997
 20
29.805697
 10
14.289197
 20
29.805697
 10
14.289197
 20
30.502897
  0
LWPOLYLINE
  8
0
 62
7
 90
5
 70
1
 10
12.520597
 20
30.502897
 10
12.171997
 20
30.502897
 10
12.171997
 20
29.805697
 10
12.869197
 20
29.805697
 10
12.869197
 20
30.502897
  0
LWPOLYLINE
  8
0
 62
7
 90
5
 70
1
 10
11.100597
 20
30.502897
 10
10.751997
 20
30.502897
 10
10.751997
 20
29.805697
 10
11.449197
 20
29.805697
 10
11.449197
 20
30.502897
  0
LWPOLYLINE
  8
0
 62
7
 90
5
 70
1
 10
9.680597
 20
30.502897
 10
9.331997
 20
30.502897
 10
9.331997
 20
29.805697
 10
10.029197
 20
29.805697
 10
10.029197
 20
30.502897
  0
ENDSEC
  0
EOF
