G75*
%MOIN*%
%OFA0B0*%
%FSLAX24Y24*%
%IPPOS*%
%LPD*%
%AMOC8*
5,1,8,0,0,1.08239X$1,22.5*
%
%ADD10C,0.0000*%
%ADD11C,0.0197*%
%ADD12R,0.0413X0.0157*%
%ADD13C,0.0472*%
%ADD14C,0.0650*%
%ADD15R,0.0472X0.0472*%
%ADD16OC8,0.0480*%
%ADD17C,0.0160*%
D10*
X000310Y000198D02*
X000310Y009155D01*
X000310Y018210D01*
X000310Y027265D01*
X000310Y036222D01*
X005920Y036222D01*
X011629Y036222D01*
X017338Y036222D01*
X023046Y036222D01*
X028755Y036222D01*
X034464Y036222D01*
X040172Y036222D01*
X045881Y036222D01*
X051590Y036222D01*
X057200Y036222D01*
X057200Y027265D01*
X057200Y018210D01*
X057200Y009155D01*
X057200Y000198D01*
X051590Y000198D01*
X045881Y000198D01*
X040172Y000198D01*
X034464Y000198D01*
X028755Y000198D01*
X023046Y000198D01*
X017338Y000198D01*
X011629Y000198D01*
X005920Y000198D01*
X000310Y000198D01*
D11*
X005920Y000198D02*
X005920Y036222D01*
X011629Y036222D02*
X011629Y000198D01*
X017338Y000198D02*
X017338Y036222D01*
X023046Y036222D02*
X023046Y000198D01*
X028755Y000198D02*
X028755Y036222D01*
X034464Y036222D02*
X034464Y000198D01*
X040172Y000198D02*
X040172Y036222D01*
X045881Y036222D02*
X045881Y000198D01*
X051590Y000198D02*
X051590Y036222D01*
X057200Y027265D02*
X000310Y027265D01*
X000310Y018210D02*
X057200Y018210D01*
X057200Y009155D02*
X000310Y009155D01*
D12*
X001235Y010358D03*
X001235Y010732D03*
X001235Y011106D03*
X002160Y011106D03*
X002160Y010732D03*
X002160Y010358D03*
X006944Y010358D03*
X006944Y010732D03*
X006944Y011106D03*
X007869Y011106D03*
X007869Y010732D03*
X007869Y010358D03*
X012653Y010358D03*
X012653Y010732D03*
X012653Y011106D03*
X013578Y011106D03*
X013578Y010732D03*
X013578Y010358D03*
X018361Y010358D03*
X018361Y010732D03*
X018361Y011106D03*
X019286Y011106D03*
X019286Y010732D03*
X019286Y010358D03*
X024070Y010358D03*
X024070Y010732D03*
X024070Y011106D03*
X024995Y011106D03*
X024995Y010732D03*
X024995Y010358D03*
X029779Y010358D03*
X029779Y010732D03*
X029779Y011106D03*
X030704Y011106D03*
X030704Y010732D03*
X030704Y010358D03*
X035487Y010358D03*
X035487Y010732D03*
X035487Y011106D03*
X036412Y011106D03*
X036412Y010732D03*
X036412Y010358D03*
X041196Y010358D03*
X041196Y010732D03*
X041196Y011106D03*
X042121Y011106D03*
X042121Y010732D03*
X042121Y010358D03*
X046905Y010358D03*
X046905Y010732D03*
X046905Y011106D03*
X047830Y011106D03*
X047830Y010732D03*
X047830Y010358D03*
X052613Y010358D03*
X052613Y010732D03*
X052613Y011106D03*
X053538Y011106D03*
X053538Y010732D03*
X053538Y010358D03*
X053538Y002051D03*
X053538Y001677D03*
X053538Y001303D03*
X052613Y001303D03*
X052613Y001677D03*
X052613Y002051D03*
X047830Y002051D03*
X047830Y001677D03*
X047830Y001303D03*
X046905Y001303D03*
X046905Y001677D03*
X046905Y002051D03*
X042121Y002051D03*
X042121Y001677D03*
X042121Y001303D03*
X041196Y001303D03*
X041196Y001677D03*
X041196Y002051D03*
X036412Y002051D03*
X036412Y001677D03*
X036412Y001303D03*
X035487Y001303D03*
X035487Y001677D03*
X035487Y002051D03*
X030704Y002051D03*
X030704Y001677D03*
X030704Y001303D03*
X029779Y001303D03*
X029779Y001677D03*
X029779Y002051D03*
X024995Y002051D03*
X024995Y001677D03*
X024995Y001303D03*
X024070Y001303D03*
X024070Y001677D03*
X024070Y002051D03*
X019286Y002051D03*
X019286Y001677D03*
X019286Y001303D03*
X018361Y001303D03*
X018361Y001677D03*
X018361Y002051D03*
X013578Y002051D03*
X013578Y001677D03*
X013578Y001303D03*
X012653Y001303D03*
X012653Y001677D03*
X012653Y002051D03*
X007869Y002051D03*
X007869Y001677D03*
X007869Y001303D03*
X006944Y001303D03*
X006944Y001677D03*
X006944Y002051D03*
X002160Y002051D03*
X002160Y001677D03*
X002160Y001303D03*
X001235Y001303D03*
X001235Y001677D03*
X001235Y002051D03*
X001235Y019413D03*
X001235Y019787D03*
X001235Y020161D03*
X002160Y020161D03*
X002160Y019787D03*
X002160Y019413D03*
X006944Y019413D03*
X006944Y019787D03*
X006944Y020161D03*
X007869Y020161D03*
X007869Y019787D03*
X007869Y019413D03*
X012653Y019413D03*
X012653Y019787D03*
X012653Y020161D03*
X013578Y020161D03*
X013578Y019787D03*
X013578Y019413D03*
X018361Y019413D03*
X018361Y019787D03*
X018361Y020161D03*
X019286Y020161D03*
X019286Y019787D03*
X019286Y019413D03*
X024070Y019413D03*
X024070Y019787D03*
X024070Y020161D03*
X024995Y020161D03*
X024995Y019787D03*
X024995Y019413D03*
X029779Y019413D03*
X029779Y019787D03*
X029779Y020161D03*
X030704Y020161D03*
X030704Y019787D03*
X030704Y019413D03*
X035487Y019413D03*
X035487Y019787D03*
X035487Y020161D03*
X036412Y020161D03*
X036412Y019787D03*
X036412Y019413D03*
X041196Y019413D03*
X041196Y019787D03*
X041196Y020161D03*
X042121Y020161D03*
X042121Y019787D03*
X042121Y019413D03*
X046905Y019413D03*
X046905Y019787D03*
X046905Y020161D03*
X047830Y020161D03*
X047830Y019787D03*
X047830Y019413D03*
X052613Y019413D03*
X052613Y019787D03*
X052613Y020161D03*
X053538Y020161D03*
X053538Y019787D03*
X053538Y019413D03*
X053538Y028468D03*
X053538Y028842D03*
X053538Y029216D03*
X052613Y029216D03*
X052613Y028842D03*
X052613Y028468D03*
X047830Y028468D03*
X047830Y028842D03*
X047830Y029216D03*
X046905Y029216D03*
X046905Y028842D03*
X046905Y028468D03*
X042121Y028468D03*
X042121Y028842D03*
X042121Y029216D03*
X041196Y029216D03*
X041196Y028842D03*
X041196Y028468D03*
X036412Y028468D03*
X036412Y028842D03*
X036412Y029216D03*
X035487Y029216D03*
X035487Y028842D03*
X035487Y028468D03*
X030704Y028468D03*
X030704Y028842D03*
X030704Y029216D03*
X029779Y029216D03*
X029779Y028842D03*
X029779Y028468D03*
X024995Y028468D03*
X024995Y028842D03*
X024995Y029216D03*
X024070Y029216D03*
X024070Y028842D03*
X024070Y028468D03*
X019286Y028468D03*
X019286Y028842D03*
X019286Y029216D03*
X018361Y029216D03*
X018361Y028842D03*
X018361Y028468D03*
X013578Y028468D03*
X013578Y028842D03*
X013578Y029216D03*
X012653Y029216D03*
X012653Y028842D03*
X012653Y028468D03*
X007869Y028468D03*
X007869Y028842D03*
X007869Y029216D03*
X006944Y029216D03*
X006944Y028842D03*
X006944Y028468D03*
X002160Y028468D03*
X002160Y028842D03*
X002160Y029216D03*
X001235Y029216D03*
X001235Y028842D03*
X001235Y028468D03*
D13*
X001386Y026199D03*
X001386Y025199D03*
X001386Y024199D03*
X007095Y024199D03*
X007095Y025199D03*
X007095Y026199D03*
X012803Y026199D03*
X012803Y025199D03*
X012803Y024199D03*
X018512Y024199D03*
X018512Y025199D03*
X018512Y026199D03*
X024221Y026199D03*
X024221Y025199D03*
X024221Y024199D03*
X029929Y024199D03*
X029929Y025199D03*
X029929Y026199D03*
X035638Y026199D03*
X035638Y025199D03*
X035638Y024199D03*
X041347Y024199D03*
X041347Y025199D03*
X041347Y026199D03*
X047055Y026199D03*
X047055Y025199D03*
X047055Y024199D03*
X052764Y024199D03*
X052764Y025199D03*
X052764Y026199D03*
X052764Y033254D03*
X052764Y034254D03*
X052764Y035254D03*
X047055Y035254D03*
X047055Y034254D03*
X047055Y033254D03*
X041347Y033254D03*
X041347Y034254D03*
X041347Y035254D03*
X035638Y035254D03*
X035638Y034254D03*
X035638Y033254D03*
X029929Y033254D03*
X029929Y034254D03*
X029929Y035254D03*
X024221Y035254D03*
X024221Y034254D03*
X024221Y033254D03*
X018512Y033254D03*
X018512Y034254D03*
X018512Y035254D03*
X012803Y035254D03*
X012803Y034254D03*
X012803Y033254D03*
X007095Y033254D03*
X007095Y034254D03*
X007095Y035254D03*
X001386Y035254D03*
X001386Y034254D03*
X001386Y033254D03*
X001386Y017143D03*
X001386Y016143D03*
X001386Y015143D03*
X007095Y015143D03*
X007095Y016143D03*
X007095Y017143D03*
X012803Y017143D03*
X012803Y016143D03*
X012803Y015143D03*
X018512Y015143D03*
X018512Y016143D03*
X018512Y017143D03*
X024221Y017143D03*
X024221Y016143D03*
X024221Y015143D03*
X029929Y015143D03*
X029929Y016143D03*
X029929Y017143D03*
X035638Y017143D03*
X035638Y016143D03*
X035638Y015143D03*
X041347Y015143D03*
X041347Y016143D03*
X041347Y017143D03*
X047055Y017143D03*
X047055Y016143D03*
X047055Y015143D03*
X052764Y015143D03*
X052764Y016143D03*
X052764Y017143D03*
X052764Y008088D03*
X052764Y007088D03*
X052764Y006088D03*
X047055Y006088D03*
X047055Y007088D03*
X047055Y008088D03*
X041347Y008088D03*
X041347Y007088D03*
X041347Y006088D03*
X035638Y006088D03*
X035638Y007088D03*
X035638Y008088D03*
X029929Y008088D03*
X029929Y007088D03*
X029929Y006088D03*
X024221Y006088D03*
X024221Y007088D03*
X024221Y008088D03*
X018512Y008088D03*
X018512Y007088D03*
X018512Y006088D03*
X012803Y006088D03*
X012803Y007088D03*
X012803Y008088D03*
X007095Y008088D03*
X007095Y007088D03*
X007095Y006088D03*
X001386Y006088D03*
X001386Y007088D03*
X001386Y008088D03*
D14*
X004110Y010322D02*
X004110Y010972D01*
X005051Y010972D02*
X005051Y010322D01*
X009819Y010322D02*
X009819Y010972D01*
X010759Y010972D02*
X010759Y010322D01*
X015527Y010322D02*
X015527Y010972D01*
X016468Y010972D02*
X016468Y010322D01*
X021236Y010322D02*
X021236Y010972D01*
X022177Y010972D02*
X022177Y010322D01*
X026945Y010322D02*
X026945Y010972D01*
X027885Y010972D02*
X027885Y010322D01*
X032653Y010322D02*
X032653Y010972D01*
X033594Y010972D02*
X033594Y010322D01*
X038362Y010322D02*
X038362Y010972D01*
X039303Y010972D02*
X039303Y010322D01*
X044071Y010322D02*
X044071Y010972D01*
X045011Y010972D02*
X045011Y010322D01*
X049779Y010322D02*
X049779Y010972D01*
X050720Y010972D02*
X050720Y010322D01*
X055488Y010322D02*
X055488Y010972D01*
X056429Y010972D02*
X056429Y010322D01*
X056429Y001917D02*
X056429Y001267D01*
X055488Y001267D02*
X055488Y001917D01*
X050720Y001917D02*
X050720Y001267D01*
X049779Y001267D02*
X049779Y001917D01*
X045011Y001917D02*
X045011Y001267D01*
X044071Y001267D02*
X044071Y001917D01*
X039303Y001917D02*
X039303Y001267D01*
X038362Y001267D02*
X038362Y001917D01*
X033594Y001917D02*
X033594Y001267D01*
X032653Y001267D02*
X032653Y001917D01*
X027885Y001917D02*
X027885Y001267D01*
X026945Y001267D02*
X026945Y001917D01*
X022177Y001917D02*
X022177Y001267D01*
X021236Y001267D02*
X021236Y001917D01*
X016468Y001917D02*
X016468Y001267D01*
X015527Y001267D02*
X015527Y001917D01*
X010759Y001917D02*
X010759Y001267D01*
X009819Y001267D02*
X009819Y001917D01*
X005051Y001917D02*
X005051Y001267D01*
X004110Y001267D02*
X004110Y001917D01*
X004110Y019378D02*
X004110Y020027D01*
X005051Y020027D02*
X005051Y019378D01*
X009819Y019378D02*
X009819Y020027D01*
X010759Y020027D02*
X010759Y019378D01*
X015527Y019378D02*
X015527Y020027D01*
X016468Y020027D02*
X016468Y019378D01*
X021236Y019378D02*
X021236Y020027D01*
X022177Y020027D02*
X022177Y019378D01*
X026945Y019378D02*
X026945Y020027D01*
X027885Y020027D02*
X027885Y019378D01*
X032653Y019378D02*
X032653Y020027D01*
X033594Y020027D02*
X033594Y019378D01*
X038362Y019378D02*
X038362Y020027D01*
X039303Y020027D02*
X039303Y019378D01*
X044071Y019378D02*
X044071Y020027D01*
X045011Y020027D02*
X045011Y019378D01*
X049779Y019378D02*
X049779Y020027D01*
X050720Y020027D02*
X050720Y019378D01*
X055488Y019378D02*
X055488Y020027D01*
X056429Y020027D02*
X056429Y019378D01*
X056429Y028433D02*
X056429Y029082D01*
X055488Y029082D02*
X055488Y028433D01*
X050720Y028433D02*
X050720Y029082D01*
X049779Y029082D02*
X049779Y028433D01*
X045011Y028433D02*
X045011Y029082D01*
X044071Y029082D02*
X044071Y028433D01*
X039303Y028433D02*
X039303Y029082D01*
X038362Y029082D02*
X038362Y028433D01*
X033594Y028433D02*
X033594Y029082D01*
X032653Y029082D02*
X032653Y028433D01*
X027885Y028433D02*
X027885Y029082D01*
X026945Y029082D02*
X026945Y028433D01*
X022177Y028433D02*
X022177Y029082D01*
X021236Y029082D02*
X021236Y028433D01*
X016468Y028433D02*
X016468Y029082D01*
X015527Y029082D02*
X015527Y028433D01*
X010759Y028433D02*
X010759Y029082D01*
X009819Y029082D02*
X009819Y028433D01*
X005051Y028433D02*
X005051Y029082D01*
X004110Y029082D02*
X004110Y028433D01*
D15*
X004743Y030635D03*
X004743Y031423D03*
X007105Y031423D03*
X007105Y032210D03*
X007105Y030635D03*
X010452Y030635D03*
X010452Y031423D03*
X012814Y031423D03*
X012814Y032210D03*
X012814Y030635D03*
X016160Y030635D03*
X016160Y031423D03*
X018523Y031423D03*
X018523Y032210D03*
X018523Y030635D03*
X021869Y030635D03*
X021869Y031423D03*
X024231Y031423D03*
X024231Y032210D03*
X024231Y030635D03*
X027578Y030635D03*
X027578Y031423D03*
X029940Y031423D03*
X029940Y032210D03*
X029940Y030635D03*
X033286Y030635D03*
X033286Y031423D03*
X035649Y031423D03*
X035649Y032210D03*
X035649Y030635D03*
X038995Y030635D03*
X038995Y031423D03*
X041357Y031423D03*
X041357Y032210D03*
X041357Y030635D03*
X044704Y030635D03*
X044704Y031423D03*
X047066Y031423D03*
X047066Y032210D03*
X047066Y030635D03*
X050412Y030635D03*
X050412Y031423D03*
X052775Y031423D03*
X052775Y032210D03*
X052775Y030635D03*
X056121Y030635D03*
X056121Y031423D03*
X052775Y023155D03*
X052775Y022368D03*
X052775Y021580D03*
X050412Y021580D03*
X050412Y022368D03*
X047066Y022368D03*
X047066Y023155D03*
X047066Y021580D03*
X044704Y021580D03*
X044704Y022368D03*
X041357Y022368D03*
X041357Y023155D03*
X041357Y021580D03*
X038995Y021580D03*
X038995Y022368D03*
X035649Y022368D03*
X035649Y023155D03*
X035649Y021580D03*
X033286Y021580D03*
X033286Y022368D03*
X029940Y022368D03*
X029940Y023155D03*
X029940Y021580D03*
X027578Y021580D03*
X027578Y022368D03*
X024231Y022368D03*
X024231Y023155D03*
X024231Y021580D03*
X021869Y021580D03*
X021869Y022368D03*
X018523Y022368D03*
X018523Y023155D03*
X018523Y021580D03*
X016160Y021580D03*
X016160Y022368D03*
X012814Y022368D03*
X012814Y023155D03*
X012814Y021580D03*
X010452Y021580D03*
X010452Y022368D03*
X007105Y022368D03*
X007105Y023155D03*
X007105Y021580D03*
X004743Y021580D03*
X004743Y022368D03*
X001397Y022368D03*
X001397Y023155D03*
X001397Y021580D03*
X001397Y014100D03*
X001397Y013313D03*
X001397Y012525D03*
X004743Y012525D03*
X004743Y013313D03*
X007105Y013313D03*
X007105Y014100D03*
X007105Y012525D03*
X010452Y012525D03*
X010452Y013313D03*
X012814Y013313D03*
X012814Y014100D03*
X012814Y012525D03*
X016160Y012525D03*
X016160Y013313D03*
X018523Y013313D03*
X018523Y014100D03*
X018523Y012525D03*
X021869Y012525D03*
X021869Y013313D03*
X024231Y013313D03*
X024231Y014100D03*
X024231Y012525D03*
X027578Y012525D03*
X027578Y013313D03*
X029940Y013313D03*
X029940Y014100D03*
X029940Y012525D03*
X033286Y012525D03*
X033286Y013313D03*
X035649Y013313D03*
X035649Y014100D03*
X035649Y012525D03*
X038995Y012525D03*
X038995Y013313D03*
X041357Y013313D03*
X041357Y014100D03*
X041357Y012525D03*
X044704Y012525D03*
X044704Y013313D03*
X047066Y013313D03*
X047066Y014100D03*
X047066Y012525D03*
X050412Y012525D03*
X050412Y013313D03*
X052775Y013313D03*
X052775Y014100D03*
X052775Y012525D03*
X056121Y012525D03*
X056121Y013313D03*
X056121Y021580D03*
X056121Y022368D03*
X052775Y005045D03*
X052775Y004257D03*
X052775Y003470D03*
X050412Y003470D03*
X050412Y004257D03*
X047066Y004257D03*
X047066Y003470D03*
X047066Y005045D03*
X044704Y004257D03*
X044704Y003470D03*
X041357Y003470D03*
X041357Y004257D03*
X041357Y005045D03*
X038995Y004257D03*
X038995Y003470D03*
X035649Y003470D03*
X035649Y004257D03*
X035649Y005045D03*
X033286Y004257D03*
X033286Y003470D03*
X029940Y003470D03*
X029940Y004257D03*
X029940Y005045D03*
X027578Y004257D03*
X027578Y003470D03*
X024231Y003470D03*
X024231Y004257D03*
X024231Y005045D03*
X021869Y004257D03*
X021869Y003470D03*
X018523Y003470D03*
X018523Y004257D03*
X018523Y005045D03*
X016160Y004257D03*
X016160Y003470D03*
X012814Y003470D03*
X012814Y004257D03*
X012814Y005045D03*
X010452Y004257D03*
X010452Y003470D03*
X007105Y003470D03*
X007105Y004257D03*
X007105Y005045D03*
X004743Y004257D03*
X004743Y003470D03*
X001397Y003470D03*
X001397Y004257D03*
X001397Y005045D03*
X001397Y030635D03*
X001397Y031423D03*
X001397Y032210D03*
X056121Y004257D03*
X056121Y003470D03*
D16*
X054944Y004234D03*
X053944Y004234D03*
X049235Y004234D03*
X048235Y004234D03*
X043527Y004234D03*
X042527Y004234D03*
X037818Y004234D03*
X036818Y004234D03*
X032109Y004234D03*
X031109Y004234D03*
X026401Y004234D03*
X025401Y004234D03*
X020692Y004234D03*
X019692Y004234D03*
X014983Y004234D03*
X013983Y004234D03*
X009275Y004234D03*
X008275Y004234D03*
X003566Y004234D03*
X002566Y004234D03*
X002566Y013289D03*
X003566Y013289D03*
X008275Y013289D03*
X009275Y013289D03*
X013983Y013289D03*
X014983Y013289D03*
X019692Y013289D03*
X020692Y013289D03*
X025401Y013289D03*
X026401Y013289D03*
X031109Y013289D03*
X032109Y013289D03*
X036818Y013289D03*
X037818Y013289D03*
X042527Y013289D03*
X043527Y013289D03*
X048235Y013289D03*
X049235Y013289D03*
X053944Y013289D03*
X054944Y013289D03*
X054944Y022344D03*
X053944Y022344D03*
X049235Y022344D03*
X048235Y022344D03*
X043527Y022344D03*
X042527Y022344D03*
X037818Y022344D03*
X036818Y022344D03*
X032109Y022344D03*
X031109Y022344D03*
X026401Y022344D03*
X025401Y022344D03*
X020692Y022344D03*
X019692Y022344D03*
X014983Y022344D03*
X013983Y022344D03*
X009275Y022344D03*
X008275Y022344D03*
X003566Y022344D03*
X002566Y022344D03*
X002566Y031399D03*
X003566Y031399D03*
X008275Y031399D03*
X009275Y031399D03*
X013983Y031399D03*
X014983Y031399D03*
X019692Y031399D03*
X020692Y031399D03*
X025401Y031399D03*
X026401Y031399D03*
X031109Y031399D03*
X032109Y031399D03*
X036818Y031399D03*
X037818Y031399D03*
X042527Y031399D03*
X043527Y031399D03*
X048235Y031399D03*
X049235Y031399D03*
X053944Y031399D03*
X054944Y031399D03*
D17*
X054944Y031125D01*
X053988Y030169D01*
X053988Y028906D01*
X053923Y028842D01*
X053538Y028842D01*
X053538Y028468D02*
X054136Y028468D01*
X054345Y028676D01*
X054345Y029954D01*
X055813Y031423D01*
X056121Y031423D01*
X056121Y030635D02*
X055590Y030635D01*
X054680Y029726D01*
X054680Y028506D01*
X054224Y028049D01*
X052735Y028049D01*
X052613Y028171D01*
X052613Y028468D01*
X052613Y028842D02*
X052318Y028842D01*
X052190Y028970D01*
X052190Y030839D01*
X052775Y031423D01*
X052775Y032210D02*
X052682Y032210D01*
X052332Y032560D01*
X052332Y033822D01*
X052764Y034254D01*
X053331Y034891D02*
X052969Y035254D01*
X052764Y035254D01*
X053331Y034891D02*
X053331Y030443D01*
X052613Y029726D01*
X052613Y029216D01*
X053538Y029216D02*
X053538Y030210D01*
X053944Y030615D01*
X053944Y031399D01*
X050412Y031423D02*
X050105Y031423D01*
X048636Y029954D01*
X048636Y028676D01*
X048428Y028468D01*
X047830Y028468D01*
X047830Y028842D02*
X048215Y028842D01*
X048279Y028906D01*
X048279Y030169D01*
X049235Y031125D01*
X049235Y031399D01*
X048235Y031399D02*
X048235Y030615D01*
X047830Y030210D01*
X047830Y029216D01*
X046905Y029216D02*
X046905Y029726D01*
X047622Y030443D01*
X047622Y034891D01*
X047260Y035254D01*
X047055Y035254D01*
X047055Y034254D02*
X046623Y033822D01*
X046623Y032560D01*
X046973Y032210D01*
X047066Y032210D01*
X047066Y031423D02*
X046482Y030839D01*
X046482Y028970D01*
X046609Y028842D01*
X046905Y028842D01*
X046905Y028468D02*
X046905Y028171D01*
X047026Y028049D01*
X048515Y028049D01*
X048971Y028506D01*
X048971Y029726D01*
X049881Y030635D01*
X050412Y030635D01*
X044704Y030635D02*
X044172Y030635D01*
X043263Y029726D01*
X043263Y028506D01*
X042807Y028049D01*
X041318Y028049D01*
X041196Y028171D01*
X041196Y028468D01*
X041196Y028842D02*
X040901Y028842D01*
X040773Y028970D01*
X040773Y030839D01*
X041357Y031423D01*
X041357Y032210D02*
X041265Y032210D01*
X040915Y032560D01*
X040915Y033822D01*
X041347Y034254D01*
X041913Y034891D02*
X041551Y035254D01*
X041347Y035254D01*
X041913Y034891D02*
X041913Y030443D01*
X041196Y029726D01*
X041196Y029216D01*
X042121Y029216D02*
X042121Y030210D01*
X042527Y030615D01*
X042527Y031399D01*
X043527Y031399D02*
X043527Y031125D01*
X042570Y030169D01*
X042570Y028906D01*
X042506Y028842D01*
X042121Y028842D01*
X042121Y028468D02*
X042719Y028468D01*
X042927Y028676D01*
X042927Y029954D01*
X044396Y031423D01*
X044704Y031423D01*
X038995Y031423D02*
X038687Y031423D01*
X037219Y029954D01*
X037219Y028676D01*
X037010Y028468D01*
X036412Y028468D01*
X036412Y028842D02*
X036797Y028842D01*
X036862Y028906D01*
X036862Y030169D01*
X037818Y031125D01*
X037818Y031399D01*
X036818Y031399D02*
X036818Y030615D01*
X036412Y030210D01*
X036412Y029216D01*
X035487Y029216D02*
X035487Y029726D01*
X036205Y030443D01*
X036205Y034891D01*
X035843Y035254D01*
X035638Y035254D01*
X035638Y034254D02*
X035206Y033822D01*
X035206Y032560D01*
X035556Y032210D01*
X035649Y032210D01*
X035649Y031423D02*
X035064Y030839D01*
X035064Y028970D01*
X035192Y028842D01*
X035487Y028842D01*
X035487Y028468D02*
X035487Y028171D01*
X035609Y028049D01*
X037098Y028049D01*
X037554Y028506D01*
X037554Y029726D01*
X038464Y030635D01*
X038995Y030635D01*
X033286Y030635D02*
X032755Y030635D01*
X031846Y029726D01*
X031846Y028506D01*
X031389Y028049D01*
X029900Y028049D01*
X029779Y028171D01*
X029779Y028468D01*
X029779Y028842D02*
X029483Y028842D01*
X029356Y028970D01*
X029356Y030839D01*
X029940Y031423D01*
X029940Y032210D02*
X029847Y032210D01*
X029497Y032560D01*
X029497Y033822D01*
X029929Y034254D01*
X030496Y034891D02*
X030134Y035254D01*
X029929Y035254D01*
X030496Y034891D02*
X030496Y030443D01*
X029779Y029726D01*
X029779Y029216D01*
X030704Y029216D02*
X030704Y030210D01*
X031109Y030615D01*
X031109Y031399D01*
X032109Y031399D02*
X032109Y031125D01*
X031153Y030169D01*
X031153Y028906D01*
X031089Y028842D01*
X030704Y028842D01*
X030704Y028468D02*
X031302Y028468D01*
X031510Y028676D01*
X031510Y029954D01*
X032979Y031423D01*
X033286Y031423D01*
X027578Y031423D02*
X027270Y031423D01*
X025801Y029954D01*
X025801Y028676D01*
X025593Y028468D01*
X024995Y028468D01*
X024995Y028842D02*
X025380Y028842D01*
X025444Y028906D01*
X025444Y030169D01*
X026401Y031125D01*
X026401Y031399D01*
X025401Y031399D02*
X025401Y030615D01*
X024995Y030210D01*
X024995Y029216D01*
X024070Y029216D02*
X024070Y029726D01*
X024787Y030443D01*
X024787Y034891D01*
X024425Y035254D01*
X024221Y035254D01*
X024221Y034254D02*
X023789Y033822D01*
X023789Y032560D01*
X024139Y032210D01*
X024231Y032210D01*
X024231Y031423D02*
X023647Y030839D01*
X023647Y028970D01*
X023775Y028842D01*
X024070Y028842D01*
X024070Y028468D02*
X024070Y028171D01*
X024192Y028049D01*
X025681Y028049D01*
X026137Y028506D01*
X026137Y029726D01*
X027046Y030635D01*
X027578Y030635D01*
X021869Y030635D02*
X021338Y030635D01*
X020428Y029726D01*
X020428Y028506D01*
X019972Y028049D01*
X018483Y028049D01*
X018361Y028171D01*
X018361Y028468D01*
X018361Y028842D02*
X018066Y028842D01*
X017938Y028970D01*
X017938Y030839D01*
X018523Y031423D01*
X018523Y032210D02*
X018430Y032210D01*
X018080Y032560D01*
X018080Y033822D01*
X018512Y034254D01*
X019079Y034891D02*
X018717Y035254D01*
X018512Y035254D01*
X019079Y034891D02*
X019079Y030443D01*
X018361Y029726D01*
X018361Y029216D01*
X019286Y029216D02*
X019286Y030210D01*
X019692Y030615D01*
X019692Y031399D01*
X020692Y031399D02*
X020692Y031125D01*
X019736Y030169D01*
X019736Y028906D01*
X019671Y028842D01*
X019286Y028842D01*
X019286Y028468D02*
X019884Y028468D01*
X020093Y028676D01*
X020093Y029954D01*
X021561Y031423D01*
X021869Y031423D01*
X016160Y031423D02*
X015853Y031423D01*
X014384Y029954D01*
X014384Y028676D01*
X014176Y028468D01*
X013578Y028468D01*
X013578Y028842D02*
X013963Y028842D01*
X014027Y028906D01*
X014027Y030169D01*
X014983Y031125D01*
X014983Y031399D01*
X013983Y031399D02*
X013983Y030615D01*
X013578Y030210D01*
X013578Y029216D01*
X012653Y029216D02*
X012653Y029726D01*
X013370Y030443D01*
X013370Y034891D01*
X013008Y035254D01*
X012803Y035254D01*
X012803Y034254D02*
X012371Y033822D01*
X012371Y032560D01*
X012721Y032210D01*
X012814Y032210D01*
X012814Y031423D02*
X012230Y030839D01*
X012230Y028970D01*
X012357Y028842D01*
X012653Y028842D01*
X012653Y028468D02*
X012653Y028171D01*
X012774Y028049D01*
X014263Y028049D01*
X014720Y028506D01*
X014720Y029726D01*
X015629Y030635D01*
X016160Y030635D01*
X010452Y030635D02*
X009920Y030635D01*
X009011Y029726D01*
X009011Y028506D01*
X008555Y028049D01*
X007066Y028049D01*
X006944Y028171D01*
X006944Y028468D01*
X006944Y028842D02*
X006649Y028842D01*
X006521Y028970D01*
X006521Y030839D01*
X007105Y031423D01*
X007105Y032210D02*
X007013Y032210D01*
X006663Y032560D01*
X006663Y033822D01*
X007095Y034254D01*
X007661Y034891D02*
X007299Y035254D01*
X007095Y035254D01*
X007661Y034891D02*
X007661Y030443D01*
X006944Y029726D01*
X006944Y029216D01*
X007869Y029216D02*
X007869Y030210D01*
X008275Y030615D01*
X008275Y031399D01*
X009275Y031399D02*
X009275Y031125D01*
X008318Y030169D01*
X008318Y028906D01*
X008254Y028842D01*
X007869Y028842D01*
X007869Y028468D02*
X008467Y028468D01*
X008675Y028676D01*
X008675Y029954D01*
X010144Y031423D01*
X010452Y031423D01*
X004743Y031423D02*
X004435Y031423D01*
X002967Y029954D01*
X002967Y028676D01*
X002759Y028468D01*
X002160Y028468D01*
X002160Y028842D02*
X002546Y028842D01*
X002610Y028906D01*
X002610Y030169D01*
X003566Y031125D01*
X003566Y031399D01*
X004212Y030635D02*
X004743Y030635D01*
X004212Y030635D02*
X003302Y029726D01*
X003302Y028506D01*
X002846Y028049D01*
X001357Y028049D01*
X001235Y028171D01*
X001235Y028468D01*
X001235Y028842D02*
X000940Y028842D01*
X000812Y028970D01*
X000812Y030839D01*
X001397Y031423D01*
X001397Y032210D02*
X001304Y032210D01*
X000954Y032560D01*
X000954Y033822D01*
X001386Y034254D01*
X001953Y034891D02*
X001591Y035254D01*
X001386Y035254D01*
X001953Y034891D02*
X001953Y030443D01*
X001235Y029726D01*
X001235Y029216D01*
X002160Y029216D02*
X002160Y030210D01*
X002566Y030615D01*
X002566Y031399D01*
X001591Y026199D02*
X001386Y026199D01*
X001591Y026199D02*
X001953Y025836D01*
X001953Y021388D01*
X001235Y020670D01*
X001235Y020161D01*
X001235Y019787D02*
X000940Y019787D01*
X000812Y019915D01*
X000812Y021783D01*
X001397Y022368D01*
X001397Y023155D02*
X001304Y023155D01*
X000954Y023505D01*
X000954Y024767D01*
X001386Y025199D01*
X002566Y022344D02*
X002566Y021560D01*
X002160Y021155D01*
X002160Y020161D01*
X002160Y019787D02*
X002546Y019787D01*
X002610Y019851D01*
X002610Y021113D01*
X003566Y022070D01*
X003566Y022344D01*
X004435Y022368D02*
X004743Y022368D01*
X004435Y022368D02*
X002967Y020899D01*
X002967Y019621D01*
X002759Y019413D01*
X002160Y019413D01*
X002846Y018994D02*
X001357Y018994D01*
X001235Y019116D01*
X001235Y019413D01*
X002846Y018994D02*
X003302Y019450D01*
X003302Y020671D01*
X004212Y021580D01*
X004743Y021580D01*
X006521Y021783D02*
X007105Y022368D01*
X007105Y023155D02*
X007013Y023155D01*
X006663Y023505D01*
X006663Y024767D01*
X007095Y025199D01*
X007661Y025836D02*
X007299Y026199D01*
X007095Y026199D01*
X007661Y025836D02*
X007661Y021388D01*
X006944Y020670D01*
X006944Y020161D01*
X006944Y019787D02*
X006649Y019787D01*
X006521Y019915D01*
X006521Y021783D01*
X007869Y021155D02*
X008275Y021560D01*
X008275Y022344D01*
X009275Y022344D02*
X009275Y022070D01*
X008318Y021113D01*
X008318Y019851D01*
X008254Y019787D01*
X007869Y019787D01*
X007869Y019413D02*
X008467Y019413D01*
X008675Y019621D01*
X008675Y020899D01*
X010144Y022368D01*
X010452Y022368D01*
X010452Y021580D02*
X009920Y021580D01*
X009011Y020671D01*
X009011Y019450D01*
X008555Y018994D01*
X007066Y018994D01*
X006944Y019116D01*
X006944Y019413D01*
X007869Y020161D02*
X007869Y021155D01*
X012230Y021783D02*
X012230Y019915D01*
X012357Y019787D01*
X012653Y019787D01*
X012653Y019413D02*
X012653Y019116D01*
X012774Y018994D01*
X014263Y018994D01*
X014720Y019450D01*
X014720Y020671D01*
X015629Y021580D01*
X016160Y021580D01*
X016160Y022368D02*
X015853Y022368D01*
X014384Y020899D01*
X014384Y019621D01*
X014176Y019413D01*
X013578Y019413D01*
X013578Y019787D02*
X013963Y019787D01*
X014027Y019851D01*
X014027Y021113D01*
X014983Y022070D01*
X014983Y022344D01*
X013983Y022344D02*
X013983Y021560D01*
X013578Y021155D01*
X013578Y020161D01*
X012653Y020161D02*
X012653Y020670D01*
X013370Y021388D01*
X013370Y025836D01*
X013008Y026199D01*
X012803Y026199D01*
X012803Y025199D02*
X012371Y024767D01*
X012371Y023505D01*
X012721Y023155D01*
X012814Y023155D01*
X012814Y022368D02*
X012230Y021783D01*
X017938Y021783D02*
X017938Y019915D01*
X018066Y019787D01*
X018361Y019787D01*
X018361Y019413D02*
X018361Y019116D01*
X018483Y018994D01*
X019972Y018994D01*
X020428Y019450D01*
X020428Y020671D01*
X021338Y021580D01*
X021869Y021580D01*
X021869Y022368D02*
X021561Y022368D01*
X020093Y020899D01*
X020093Y019621D01*
X019884Y019413D01*
X019286Y019413D01*
X019286Y019787D02*
X019671Y019787D01*
X019736Y019851D01*
X019736Y021113D01*
X020692Y022070D01*
X020692Y022344D01*
X019692Y022344D02*
X019692Y021560D01*
X019286Y021155D01*
X019286Y020161D01*
X018361Y020161D02*
X018361Y020670D01*
X019079Y021388D01*
X019079Y025836D01*
X018717Y026199D01*
X018512Y026199D01*
X018512Y025199D02*
X018080Y024767D01*
X018080Y023505D01*
X018430Y023155D01*
X018523Y023155D01*
X018523Y022368D02*
X017938Y021783D01*
X023647Y021783D02*
X023647Y019915D01*
X023775Y019787D01*
X024070Y019787D01*
X024070Y019413D02*
X024070Y019116D01*
X024192Y018994D01*
X025681Y018994D01*
X026137Y019450D01*
X026137Y020671D01*
X027046Y021580D01*
X027578Y021580D01*
X027578Y022368D02*
X027270Y022368D01*
X025801Y020899D01*
X025801Y019621D01*
X025593Y019413D01*
X024995Y019413D01*
X024995Y019787D02*
X025380Y019787D01*
X025444Y019851D01*
X025444Y021113D01*
X026401Y022070D01*
X026401Y022344D01*
X025401Y022344D02*
X025401Y021560D01*
X024995Y021155D01*
X024995Y020161D01*
X024070Y020161D02*
X024070Y020670D01*
X024787Y021388D01*
X024787Y025836D01*
X024425Y026199D01*
X024221Y026199D01*
X024221Y025199D02*
X023789Y024767D01*
X023789Y023505D01*
X024139Y023155D01*
X024231Y023155D01*
X024231Y022368D02*
X023647Y021783D01*
X029356Y021783D02*
X029356Y019915D01*
X029483Y019787D01*
X029779Y019787D01*
X029779Y019413D02*
X029779Y019116D01*
X029900Y018994D01*
X031389Y018994D01*
X031846Y019450D01*
X031846Y020671D01*
X032755Y021580D01*
X033286Y021580D01*
X033286Y022368D02*
X032979Y022368D01*
X031510Y020899D01*
X031510Y019621D01*
X031302Y019413D01*
X030704Y019413D01*
X030704Y019787D02*
X031089Y019787D01*
X031153Y019851D01*
X031153Y021113D01*
X032109Y022070D01*
X032109Y022344D01*
X031109Y022344D02*
X031109Y021560D01*
X030704Y021155D01*
X030704Y020161D01*
X029779Y020161D02*
X029779Y020670D01*
X030496Y021388D01*
X030496Y025836D01*
X030134Y026199D01*
X029929Y026199D01*
X029929Y025199D02*
X029497Y024767D01*
X029497Y023505D01*
X029847Y023155D01*
X029940Y023155D01*
X029940Y022368D02*
X029356Y021783D01*
X035064Y021783D02*
X035064Y019915D01*
X035192Y019787D01*
X035487Y019787D01*
X035487Y019413D02*
X035487Y019116D01*
X035609Y018994D01*
X037098Y018994D01*
X037554Y019450D01*
X037554Y020671D01*
X038464Y021580D01*
X038995Y021580D01*
X038995Y022368D02*
X038687Y022368D01*
X037219Y020899D01*
X037219Y019621D01*
X037010Y019413D01*
X036412Y019413D01*
X036412Y019787D02*
X036797Y019787D01*
X036862Y019851D01*
X036862Y021113D01*
X037818Y022070D01*
X037818Y022344D01*
X036818Y022344D02*
X036818Y021560D01*
X036412Y021155D01*
X036412Y020161D01*
X035487Y020161D02*
X035487Y020670D01*
X036205Y021388D01*
X036205Y025836D01*
X035843Y026199D01*
X035638Y026199D01*
X035638Y025199D02*
X035206Y024767D01*
X035206Y023505D01*
X035556Y023155D01*
X035649Y023155D01*
X035649Y022368D02*
X035064Y021783D01*
X040773Y021783D02*
X040773Y019915D01*
X040901Y019787D01*
X041196Y019787D01*
X041196Y019413D02*
X041196Y019116D01*
X041318Y018994D01*
X042807Y018994D01*
X043263Y019450D01*
X043263Y020671D01*
X044172Y021580D01*
X044704Y021580D01*
X044704Y022368D02*
X044396Y022368D01*
X042927Y020899D01*
X042927Y019621D01*
X042719Y019413D01*
X042121Y019413D01*
X042121Y019787D02*
X042506Y019787D01*
X042570Y019851D01*
X042570Y021113D01*
X043527Y022070D01*
X043527Y022344D01*
X042527Y022344D02*
X042527Y021560D01*
X042121Y021155D01*
X042121Y020161D01*
X041196Y020161D02*
X041196Y020670D01*
X041913Y021388D01*
X041913Y025836D01*
X041551Y026199D01*
X041347Y026199D01*
X041347Y025199D02*
X040915Y024767D01*
X040915Y023505D01*
X041265Y023155D01*
X041357Y023155D01*
X041357Y022368D02*
X040773Y021783D01*
X046482Y021783D02*
X046482Y019915D01*
X046609Y019787D01*
X046905Y019787D01*
X046905Y019413D02*
X046905Y019116D01*
X047026Y018994D01*
X048515Y018994D01*
X048971Y019450D01*
X048971Y020671D01*
X049881Y021580D01*
X050412Y021580D01*
X050412Y022368D02*
X050105Y022368D01*
X048636Y020899D01*
X048636Y019621D01*
X048428Y019413D01*
X047830Y019413D01*
X047830Y019787D02*
X048215Y019787D01*
X048279Y019851D01*
X048279Y021113D01*
X049235Y022070D01*
X049235Y022344D01*
X048235Y022344D02*
X048235Y021560D01*
X047830Y021155D01*
X047830Y020161D01*
X046905Y020161D02*
X046905Y020670D01*
X047622Y021388D01*
X047622Y025836D01*
X047260Y026199D01*
X047055Y026199D01*
X047055Y025199D02*
X046623Y024767D01*
X046623Y023505D01*
X046973Y023155D01*
X047066Y023155D01*
X047066Y022368D02*
X046482Y021783D01*
X052190Y021783D02*
X052190Y019915D01*
X052318Y019787D01*
X052613Y019787D01*
X052613Y019413D02*
X052613Y019116D01*
X052735Y018994D01*
X054224Y018994D01*
X054680Y019450D01*
X054680Y020671D01*
X055590Y021580D01*
X056121Y021580D01*
X056121Y022368D02*
X055813Y022368D01*
X054345Y020899D01*
X054345Y019621D01*
X054136Y019413D01*
X053538Y019413D01*
X053538Y019787D02*
X053923Y019787D01*
X053988Y019851D01*
X053988Y021113D01*
X054944Y022070D01*
X054944Y022344D01*
X053944Y022344D02*
X053944Y021560D01*
X053538Y021155D01*
X053538Y020161D01*
X052613Y020161D02*
X052613Y020670D01*
X053331Y021388D01*
X053331Y025836D01*
X052969Y026199D01*
X052764Y026199D01*
X052764Y025199D02*
X052332Y024767D01*
X052332Y023505D01*
X052682Y023155D01*
X052775Y023155D01*
X052775Y022368D02*
X052190Y021783D01*
X052764Y017143D02*
X052969Y017143D01*
X053331Y016781D01*
X053331Y012333D01*
X052613Y011615D01*
X052613Y011106D01*
X052613Y010732D02*
X052318Y010732D01*
X052190Y010859D01*
X052190Y012728D01*
X052775Y013313D01*
X052775Y014100D02*
X052682Y014100D01*
X052332Y014450D01*
X052332Y015711D01*
X052764Y016143D01*
X053944Y013289D02*
X053944Y012505D01*
X053538Y012100D01*
X053538Y011106D01*
X053538Y010732D02*
X053923Y010732D01*
X053988Y010796D01*
X053988Y012058D01*
X054944Y013015D01*
X054944Y013289D01*
X055813Y013313D02*
X056121Y013313D01*
X055813Y013313D02*
X054345Y011844D01*
X054345Y010566D01*
X054136Y010358D01*
X053538Y010358D01*
X054224Y009939D02*
X054680Y010395D01*
X054680Y011616D01*
X055590Y012525D01*
X056121Y012525D01*
X052613Y010358D02*
X052613Y010061D01*
X052735Y009939D01*
X054224Y009939D01*
X052969Y008088D02*
X052764Y008088D01*
X052969Y008088D02*
X053331Y007726D01*
X053331Y003278D01*
X052613Y002560D01*
X052613Y002051D01*
X052613Y001677D02*
X052318Y001677D01*
X052190Y001804D01*
X052190Y003673D01*
X052775Y004257D01*
X052775Y005045D02*
X052682Y005045D01*
X052332Y005395D01*
X052332Y006656D01*
X052764Y007088D01*
X053944Y004234D02*
X053944Y003450D01*
X053538Y003044D01*
X053538Y002051D01*
X053538Y001677D02*
X053923Y001677D01*
X053988Y001741D01*
X053988Y003003D01*
X054944Y003959D01*
X054944Y004234D01*
X055813Y004257D02*
X056121Y004257D01*
X055813Y004257D02*
X054345Y002789D01*
X054345Y001511D01*
X054136Y001303D01*
X053538Y001303D01*
X054224Y000884D02*
X054680Y001340D01*
X054680Y002561D01*
X055590Y003470D01*
X056121Y003470D01*
X052613Y001303D02*
X052613Y001006D01*
X052735Y000884D01*
X054224Y000884D01*
X050412Y003470D02*
X049881Y003470D01*
X048971Y002561D01*
X048971Y001340D01*
X048515Y000884D01*
X047026Y000884D01*
X046905Y001006D01*
X046905Y001303D01*
X046905Y001677D02*
X046609Y001677D01*
X046482Y001804D01*
X046482Y003673D01*
X047066Y004257D01*
X047066Y005045D02*
X046973Y005045D01*
X046623Y005395D01*
X046623Y006656D01*
X047055Y007088D01*
X047622Y007726D02*
X047260Y008088D01*
X047055Y008088D01*
X047622Y007726D02*
X047622Y003278D01*
X046905Y002560D01*
X046905Y002051D01*
X047830Y002051D02*
X047830Y003044D01*
X048235Y003450D01*
X048235Y004234D01*
X049235Y004234D02*
X049235Y003959D01*
X048279Y003003D01*
X048279Y001741D01*
X048215Y001677D01*
X047830Y001677D01*
X047830Y001303D02*
X048428Y001303D01*
X048636Y001511D01*
X048636Y002789D01*
X050105Y004257D01*
X050412Y004257D01*
X044704Y004257D02*
X044396Y004257D01*
X042927Y002789D01*
X042927Y001511D01*
X042719Y001303D01*
X042121Y001303D01*
X042121Y001677D02*
X042506Y001677D01*
X042570Y001741D01*
X042570Y003003D01*
X043527Y003959D01*
X043527Y004234D01*
X042527Y004234D02*
X042527Y003450D01*
X042121Y003044D01*
X042121Y002051D01*
X041196Y002051D02*
X041196Y002560D01*
X041913Y003278D01*
X041913Y007726D01*
X041551Y008088D01*
X041347Y008088D01*
X041347Y007088D02*
X040915Y006656D01*
X040915Y005395D01*
X041265Y005045D01*
X041357Y005045D01*
X041357Y004257D02*
X040773Y003673D01*
X040773Y001804D01*
X040901Y001677D01*
X041196Y001677D01*
X041196Y001303D02*
X041196Y001006D01*
X041318Y000884D01*
X042807Y000884D01*
X043263Y001340D01*
X043263Y002561D01*
X044172Y003470D01*
X044704Y003470D01*
X038995Y003470D02*
X038464Y003470D01*
X037554Y002561D01*
X037554Y001340D01*
X037098Y000884D01*
X035609Y000884D01*
X035487Y001006D01*
X035487Y001303D01*
X035487Y001677D02*
X035192Y001677D01*
X035064Y001804D01*
X035064Y003673D01*
X035649Y004257D01*
X035649Y005045D02*
X035556Y005045D01*
X035206Y005395D01*
X035206Y006656D01*
X035638Y007088D01*
X036205Y007726D02*
X035843Y008088D01*
X035638Y008088D01*
X036205Y007726D02*
X036205Y003278D01*
X035487Y002560D01*
X035487Y002051D01*
X036412Y002051D02*
X036412Y003044D01*
X036818Y003450D01*
X036818Y004234D01*
X037818Y004234D02*
X037818Y003959D01*
X036862Y003003D01*
X036862Y001741D01*
X036797Y001677D01*
X036412Y001677D01*
X036412Y001303D02*
X037010Y001303D01*
X037219Y001511D01*
X037219Y002789D01*
X038687Y004257D01*
X038995Y004257D01*
X033286Y004257D02*
X032979Y004257D01*
X031510Y002789D01*
X031510Y001511D01*
X031302Y001303D01*
X030704Y001303D01*
X030704Y001677D02*
X031089Y001677D01*
X031153Y001741D01*
X031153Y003003D01*
X032109Y003959D01*
X032109Y004234D01*
X031109Y004234D02*
X031109Y003450D01*
X030704Y003044D01*
X030704Y002051D01*
X029779Y002051D02*
X029779Y002560D01*
X030496Y003278D01*
X030496Y007726D01*
X030134Y008088D01*
X029929Y008088D01*
X029929Y007088D02*
X029497Y006656D01*
X029497Y005395D01*
X029847Y005045D01*
X029940Y005045D01*
X029940Y004257D02*
X029356Y003673D01*
X029356Y001804D01*
X029483Y001677D01*
X029779Y001677D01*
X029779Y001303D02*
X029779Y001006D01*
X029900Y000884D01*
X031389Y000884D01*
X031846Y001340D01*
X031846Y002561D01*
X032755Y003470D01*
X033286Y003470D01*
X027578Y003470D02*
X027046Y003470D01*
X026137Y002561D01*
X026137Y001340D01*
X025681Y000884D01*
X024192Y000884D01*
X024070Y001006D01*
X024070Y001303D01*
X024070Y001677D02*
X023775Y001677D01*
X023647Y001804D01*
X023647Y003673D01*
X024231Y004257D01*
X024231Y005045D02*
X024139Y005045D01*
X023789Y005395D01*
X023789Y006656D01*
X024221Y007088D01*
X024787Y007726D02*
X024425Y008088D01*
X024221Y008088D01*
X024787Y007726D02*
X024787Y003278D01*
X024070Y002560D01*
X024070Y002051D01*
X024995Y002051D02*
X024995Y003044D01*
X025401Y003450D01*
X025401Y004234D01*
X026401Y004234D02*
X026401Y003959D01*
X025444Y003003D01*
X025444Y001741D01*
X025380Y001677D01*
X024995Y001677D01*
X024995Y001303D02*
X025593Y001303D01*
X025801Y001511D01*
X025801Y002789D01*
X027270Y004257D01*
X027578Y004257D01*
X021869Y004257D02*
X021561Y004257D01*
X020093Y002789D01*
X020093Y001511D01*
X019884Y001303D01*
X019286Y001303D01*
X019286Y001677D02*
X019671Y001677D01*
X019736Y001741D01*
X019736Y003003D01*
X020692Y003959D01*
X020692Y004234D01*
X019692Y004234D02*
X019692Y003450D01*
X019286Y003044D01*
X019286Y002051D01*
X018361Y002051D02*
X018361Y002560D01*
X019079Y003278D01*
X019079Y007726D01*
X018717Y008088D01*
X018512Y008088D01*
X018512Y007088D02*
X018080Y006656D01*
X018080Y005395D01*
X018430Y005045D01*
X018523Y005045D01*
X018523Y004257D02*
X017938Y003673D01*
X017938Y001804D01*
X018066Y001677D01*
X018361Y001677D01*
X018361Y001303D02*
X018361Y001006D01*
X018483Y000884D01*
X019972Y000884D01*
X020428Y001340D01*
X020428Y002561D01*
X021338Y003470D01*
X021869Y003470D01*
X016160Y003470D02*
X015629Y003470D01*
X014720Y002561D01*
X014720Y001340D01*
X014263Y000884D01*
X012774Y000884D01*
X012653Y001006D01*
X012653Y001303D01*
X012653Y001677D02*
X012357Y001677D01*
X012230Y001804D01*
X012230Y003673D01*
X012814Y004257D01*
X012814Y005045D02*
X012721Y005045D01*
X012371Y005395D01*
X012371Y006656D01*
X012803Y007088D01*
X013370Y007726D02*
X013008Y008088D01*
X012803Y008088D01*
X013370Y007726D02*
X013370Y003278D01*
X012653Y002560D01*
X012653Y002051D01*
X013578Y002051D02*
X013578Y003044D01*
X013983Y003450D01*
X013983Y004234D01*
X014983Y004234D02*
X014983Y003959D01*
X014027Y003003D01*
X014027Y001741D01*
X013963Y001677D01*
X013578Y001677D01*
X013578Y001303D02*
X014176Y001303D01*
X014384Y001511D01*
X014384Y002789D01*
X015853Y004257D01*
X016160Y004257D01*
X010452Y004257D02*
X010144Y004257D01*
X008675Y002789D01*
X008675Y001511D01*
X008467Y001303D01*
X007869Y001303D01*
X007869Y001677D02*
X008254Y001677D01*
X008318Y001741D01*
X008318Y003003D01*
X009275Y003959D01*
X009275Y004234D01*
X009920Y003470D02*
X010452Y003470D01*
X009920Y003470D02*
X009011Y002561D01*
X009011Y001340D01*
X008555Y000884D01*
X007066Y000884D01*
X006944Y001006D01*
X006944Y001303D01*
X006944Y001677D02*
X006649Y001677D01*
X006521Y001804D01*
X006521Y003673D01*
X007105Y004257D01*
X007105Y005045D02*
X007013Y005045D01*
X006663Y005395D01*
X006663Y006656D01*
X007095Y007088D01*
X007661Y007726D02*
X007299Y008088D01*
X007095Y008088D01*
X007661Y007726D02*
X007661Y003278D01*
X006944Y002560D01*
X006944Y002051D01*
X007869Y002051D02*
X007869Y003044D01*
X008275Y003450D01*
X008275Y004234D01*
X004743Y004257D02*
X004435Y004257D01*
X002967Y002789D01*
X002967Y001511D01*
X002759Y001303D01*
X002160Y001303D01*
X002160Y001677D02*
X002546Y001677D01*
X002610Y001741D01*
X002610Y003003D01*
X003566Y003959D01*
X003566Y004234D01*
X002566Y004234D02*
X002566Y003450D01*
X002160Y003044D01*
X002160Y002051D01*
X001235Y002051D02*
X001235Y002560D01*
X001953Y003278D01*
X001953Y007726D01*
X001591Y008088D01*
X001386Y008088D01*
X001386Y007088D02*
X000954Y006656D01*
X000954Y005395D01*
X001304Y005045D01*
X001397Y005045D01*
X001397Y004257D02*
X000812Y003673D01*
X000812Y001804D01*
X000940Y001677D01*
X001235Y001677D01*
X001235Y001303D02*
X001235Y001006D01*
X001357Y000884D01*
X002846Y000884D01*
X003302Y001340D01*
X003302Y002561D01*
X004212Y003470D01*
X004743Y003470D01*
X002846Y009939D02*
X001357Y009939D01*
X001235Y010061D01*
X001235Y010358D01*
X001235Y010732D02*
X000940Y010732D01*
X000812Y010859D01*
X000812Y012728D01*
X001397Y013313D01*
X001397Y014100D02*
X001304Y014100D01*
X000954Y014450D01*
X000954Y015711D01*
X001386Y016143D01*
X001953Y016781D02*
X001591Y017143D01*
X001386Y017143D01*
X001953Y016781D02*
X001953Y012333D01*
X001235Y011615D01*
X001235Y011106D01*
X002160Y011106D02*
X002160Y012100D01*
X002566Y012505D01*
X002566Y013289D01*
X003566Y013289D02*
X003566Y013015D01*
X002610Y012058D01*
X002610Y010796D01*
X002546Y010732D01*
X002160Y010732D01*
X002160Y010358D02*
X002759Y010358D01*
X002967Y010566D01*
X002967Y011844D01*
X004435Y013313D01*
X004743Y013313D01*
X004743Y012525D02*
X004212Y012525D01*
X003302Y011616D01*
X003302Y010395D01*
X002846Y009939D01*
X006521Y010859D02*
X006521Y012728D01*
X007105Y013313D01*
X007105Y014100D02*
X007013Y014100D01*
X006663Y014450D01*
X006663Y015711D01*
X007095Y016143D01*
X007661Y016781D02*
X007299Y017143D01*
X007095Y017143D01*
X007661Y016781D02*
X007661Y012333D01*
X006944Y011615D01*
X006944Y011106D01*
X006944Y010732D02*
X006649Y010732D01*
X006521Y010859D01*
X006944Y010358D02*
X006944Y010061D01*
X007066Y009939D01*
X008555Y009939D01*
X009011Y010395D01*
X009011Y011616D01*
X009920Y012525D01*
X010452Y012525D01*
X010452Y013313D02*
X010144Y013313D01*
X008675Y011844D01*
X008675Y010566D01*
X008467Y010358D01*
X007869Y010358D01*
X007869Y010732D02*
X008254Y010732D01*
X008318Y010796D01*
X008318Y012058D01*
X009275Y013015D01*
X009275Y013289D01*
X008275Y013289D02*
X008275Y012505D01*
X007869Y012100D01*
X007869Y011106D01*
X012230Y010859D02*
X012230Y012728D01*
X012814Y013313D01*
X012814Y014100D02*
X012721Y014100D01*
X012371Y014450D01*
X012371Y015711D01*
X012803Y016143D01*
X013370Y016781D02*
X013008Y017143D01*
X012803Y017143D01*
X013370Y016781D02*
X013370Y012333D01*
X012653Y011615D01*
X012653Y011106D01*
X012653Y010732D02*
X012357Y010732D01*
X012230Y010859D01*
X012653Y010358D02*
X012653Y010061D01*
X012774Y009939D01*
X014263Y009939D01*
X014720Y010395D01*
X014720Y011616D01*
X015629Y012525D01*
X016160Y012525D01*
X016160Y013313D02*
X015853Y013313D01*
X014384Y011844D01*
X014384Y010566D01*
X014176Y010358D01*
X013578Y010358D01*
X013578Y010732D02*
X013963Y010732D01*
X014027Y010796D01*
X014027Y012058D01*
X014983Y013015D01*
X014983Y013289D01*
X013983Y013289D02*
X013983Y012505D01*
X013578Y012100D01*
X013578Y011106D01*
X017938Y010859D02*
X017938Y012728D01*
X018523Y013313D01*
X018523Y014100D02*
X018430Y014100D01*
X018080Y014450D01*
X018080Y015711D01*
X018512Y016143D01*
X019079Y016781D02*
X018717Y017143D01*
X018512Y017143D01*
X019079Y016781D02*
X019079Y012333D01*
X018361Y011615D01*
X018361Y011106D01*
X018361Y010732D02*
X018066Y010732D01*
X017938Y010859D01*
X018361Y010358D02*
X018361Y010061D01*
X018483Y009939D01*
X019972Y009939D01*
X020428Y010395D01*
X020428Y011616D01*
X021338Y012525D01*
X021869Y012525D01*
X021869Y013313D02*
X021561Y013313D01*
X020093Y011844D01*
X020093Y010566D01*
X019884Y010358D01*
X019286Y010358D01*
X019286Y010732D02*
X019671Y010732D01*
X019736Y010796D01*
X019736Y012058D01*
X020692Y013015D01*
X020692Y013289D01*
X019692Y013289D02*
X019692Y012505D01*
X019286Y012100D01*
X019286Y011106D01*
X023647Y010859D02*
X023647Y012728D01*
X024231Y013313D01*
X024231Y014100D02*
X024139Y014100D01*
X023789Y014450D01*
X023789Y015711D01*
X024221Y016143D01*
X024787Y016781D02*
X024425Y017143D01*
X024221Y017143D01*
X024787Y016781D02*
X024787Y012333D01*
X024070Y011615D01*
X024070Y011106D01*
X024070Y010732D02*
X023775Y010732D01*
X023647Y010859D01*
X024070Y010358D02*
X024070Y010061D01*
X024192Y009939D01*
X025681Y009939D01*
X026137Y010395D01*
X026137Y011616D01*
X027046Y012525D01*
X027578Y012525D01*
X027578Y013313D02*
X027270Y013313D01*
X025801Y011844D01*
X025801Y010566D01*
X025593Y010358D01*
X024995Y010358D01*
X024995Y010732D02*
X025380Y010732D01*
X025444Y010796D01*
X025444Y012058D01*
X026401Y013015D01*
X026401Y013289D01*
X025401Y013289D02*
X025401Y012505D01*
X024995Y012100D01*
X024995Y011106D01*
X029356Y010859D02*
X029356Y012728D01*
X029940Y013313D01*
X029940Y014100D02*
X029847Y014100D01*
X029497Y014450D01*
X029497Y015711D01*
X029929Y016143D01*
X030496Y016781D02*
X030134Y017143D01*
X029929Y017143D01*
X030496Y016781D02*
X030496Y012333D01*
X029779Y011615D01*
X029779Y011106D01*
X029779Y010732D02*
X029483Y010732D01*
X029356Y010859D01*
X029779Y010358D02*
X029779Y010061D01*
X029900Y009939D01*
X031389Y009939D01*
X031846Y010395D01*
X031846Y011616D01*
X032755Y012525D01*
X033286Y012525D01*
X033286Y013313D02*
X032979Y013313D01*
X031510Y011844D01*
X031510Y010566D01*
X031302Y010358D01*
X030704Y010358D01*
X030704Y010732D02*
X031089Y010732D01*
X031153Y010796D01*
X031153Y012058D01*
X032109Y013015D01*
X032109Y013289D01*
X031109Y013289D02*
X031109Y012505D01*
X030704Y012100D01*
X030704Y011106D01*
X035064Y010859D02*
X035064Y012728D01*
X035649Y013313D01*
X035649Y014100D02*
X035556Y014100D01*
X035206Y014450D01*
X035206Y015711D01*
X035638Y016143D01*
X036205Y016781D02*
X035843Y017143D01*
X035638Y017143D01*
X036205Y016781D02*
X036205Y012333D01*
X035487Y011615D01*
X035487Y011106D01*
X035487Y010732D02*
X035192Y010732D01*
X035064Y010859D01*
X035487Y010358D02*
X035487Y010061D01*
X035609Y009939D01*
X037098Y009939D01*
X037554Y010395D01*
X037554Y011616D01*
X038464Y012525D01*
X038995Y012525D01*
X038995Y013313D02*
X038687Y013313D01*
X037219Y011844D01*
X037219Y010566D01*
X037010Y010358D01*
X036412Y010358D01*
X036412Y010732D02*
X036797Y010732D01*
X036862Y010796D01*
X036862Y012058D01*
X037818Y013015D01*
X037818Y013289D01*
X036818Y013289D02*
X036818Y012505D01*
X036412Y012100D01*
X036412Y011106D01*
X040773Y010859D02*
X040773Y012728D01*
X041357Y013313D01*
X041357Y014100D02*
X041265Y014100D01*
X040915Y014450D01*
X040915Y015711D01*
X041347Y016143D01*
X041913Y016781D02*
X041551Y017143D01*
X041347Y017143D01*
X041913Y016781D02*
X041913Y012333D01*
X041196Y011615D01*
X041196Y011106D01*
X041196Y010732D02*
X040901Y010732D01*
X040773Y010859D01*
X041196Y010358D02*
X041196Y010061D01*
X041318Y009939D01*
X042807Y009939D01*
X043263Y010395D01*
X043263Y011616D01*
X044172Y012525D01*
X044704Y012525D01*
X044704Y013313D02*
X044396Y013313D01*
X042927Y011844D01*
X042927Y010566D01*
X042719Y010358D01*
X042121Y010358D01*
X042121Y010732D02*
X042506Y010732D01*
X042570Y010796D01*
X042570Y012058D01*
X043527Y013015D01*
X043527Y013289D01*
X042527Y013289D02*
X042527Y012505D01*
X042121Y012100D01*
X042121Y011106D01*
X046482Y010859D02*
X046482Y012728D01*
X047066Y013313D01*
X047066Y014100D02*
X046973Y014100D01*
X046623Y014450D01*
X046623Y015711D01*
X047055Y016143D01*
X047622Y016781D02*
X047260Y017143D01*
X047055Y017143D01*
X047622Y016781D02*
X047622Y012333D01*
X046905Y011615D01*
X046905Y011106D01*
X046905Y010732D02*
X046609Y010732D01*
X046482Y010859D01*
X046905Y010358D02*
X046905Y010061D01*
X047026Y009939D01*
X048515Y009939D01*
X048971Y010395D01*
X048971Y011616D01*
X049881Y012525D01*
X050412Y012525D01*
X050412Y013313D02*
X050105Y013313D01*
X048636Y011844D01*
X048636Y010566D01*
X048428Y010358D01*
X047830Y010358D01*
X047830Y010732D02*
X048215Y010732D01*
X048279Y010796D01*
X048279Y012058D01*
X049235Y013015D01*
X049235Y013289D01*
X048235Y013289D02*
X048235Y012505D01*
X047830Y012100D01*
X047830Y011106D01*
M02*
