G75*
%MOIN*%
%OFA0B0*%
%FSLAX24Y24*%
%IPPOS*%
%LPD*%
%AMOC8*
5,1,8,0,0,1.08239X$1,22.5*
%
%ADD10C,0.0000*%
%ADD11C,0.0197*%
D10*
X000310Y000198D02*
X000310Y009155D01*
X000310Y018210D01*
X000310Y027265D01*
X000310Y036222D01*
X005920Y036222D01*
X011629Y036222D01*
X017338Y036222D01*
X023046Y036222D01*
X028755Y036222D01*
X034464Y036222D01*
X040172Y036222D01*
X045881Y036222D01*
X051590Y036222D01*
X057200Y036222D01*
X057200Y027265D01*
X057200Y018210D01*
X057200Y009155D01*
X057200Y000198D01*
X051590Y000198D01*
X045881Y000198D01*
X040172Y000198D01*
X034464Y000198D01*
X028755Y000198D01*
X023046Y000198D01*
X017338Y000198D01*
X011629Y000198D01*
X005920Y000198D01*
X000310Y000198D01*
D11*
X005920Y000198D02*
X005920Y036222D01*
X011629Y036222D02*
X011629Y000198D01*
X017338Y000198D02*
X017338Y036222D01*
X023046Y036222D02*
X023046Y000198D01*
X028755Y000198D02*
X028755Y036222D01*
X034464Y036222D02*
X034464Y000198D01*
X040172Y000198D02*
X040172Y036222D01*
X045881Y036222D02*
X045881Y000198D01*
X051590Y000198D02*
X051590Y036222D01*
X057200Y027265D02*
X000310Y027265D01*
X000310Y018210D02*
X057200Y018210D01*
X057200Y009155D02*
X000310Y009155D01*
M02*
