G75*
%MOIN*%
%OFA0B0*%
%FSLAX24Y24*%
%IPPOS*%
%LPD*%
%AMOC8*
5,1,8,0,0,1.08239X$1,22.5*
%
%ADD10C,0.0100*%
%ADD11C,0.0000*%
%ADD12C,0.0050*%
%ADD13R,0.0010X0.0090*%
%ADD14R,0.0010X0.0130*%
%ADD15R,0.0010X0.0160*%
%ADD16R,0.0010X0.0190*%
%ADD17R,0.0010X0.0210*%
%ADD18R,0.0010X0.0230*%
%ADD19R,0.0010X0.0250*%
%ADD20R,0.0010X0.0070*%
%ADD21R,0.0010X0.0120*%
%ADD22R,0.0010X0.0110*%
%ADD23R,0.0010X0.0100*%
%ADD24R,0.0010X0.0050*%
%ADD25R,0.0010X0.0150*%
%ADD26R,0.0010X0.0080*%
%ADD27R,0.0010X0.0180*%
%ADD28R,0.0010X0.0240*%
%ADD29R,0.0010X0.0260*%
%ADD30R,0.0010X0.0290*%
%ADD31R,0.0010X0.0220*%
%ADD32R,0.0010X0.0280*%
%ADD33R,0.0010X0.0060*%
%ADD34R,0.0010X0.0350*%
%ADD35R,0.0010X0.0530*%
%ADD36R,0.0010X0.0670*%
%ADD37R,0.0010X0.0790*%
%ADD38R,0.0010X0.0890*%
%ADD39R,0.0010X0.0980*%
%ADD40R,0.0010X0.1120*%
%ADD41R,0.0010X0.0360*%
%ADD42R,0.0010X0.0440*%
%ADD43R,0.0010X0.0330*%
%ADD44R,0.0010X0.0300*%
%ADD45R,0.0010X0.0320*%
%ADD46R,0.0010X0.0270*%
%ADD47R,0.0010X0.0200*%
%ADD48R,0.0010X0.0170*%
%ADD49R,0.0010X0.0140*%
%ADD50R,0.0010X0.0040*%
%ADD51R,0.0010X0.0420*%
%ADD52R,0.0010X0.0470*%
%ADD53R,0.0010X0.0500*%
%ADD54R,0.0010X0.0340*%
%ADD55R,0.0010X0.0310*%
%ADD56R,0.0010X0.0390*%
%ADD57R,0.0010X0.0380*%
%ADD58R,0.0010X0.0570*%
%ADD59R,0.0010X0.0640*%
%ADD60R,0.0010X0.0750*%
%ADD61R,0.0010X0.0770*%
%ADD62R,0.0010X0.0010*%
%ADD63R,0.0010X0.0020*%
%ADD64R,0.0010X0.0030*%
%ADD65R,0.0010X0.0460*%
%ADD66R,0.0010X0.0430*%
%ADD67R,0.0010X0.0520*%
%ADD68R,0.0010X0.0560*%
%ADD69R,0.0010X0.0590*%
%ADD70R,0.0010X0.0620*%
%ADD71R,0.0010X0.0370*%
%ADD72R,0.0010X0.0400*%
%ADD73R,0.0010X0.0630*%
%ADD74R,0.0010X0.0940*%
%ADD75R,0.0010X0.1050*%
%ADD76R,0.0010X0.1180*%
%ADD77R,0.0010X0.0660*%
%ADD78R,0.0010X0.0540*%
%ADD79R,0.0010X0.0410*%
%ADD80R,0.0010X0.0810*%
%ADD81R,0.0010X0.0690*%
%ADD82R,0.0010X0.0450*%
%ADD83R,0.0010X0.1010*%
%ADD84R,0.0010X0.0930*%
%ADD85R,0.0010X0.0840*%
%ADD86R,0.0010X0.0740*%
%ADD87R,0.0010X0.0610*%
D10*
X000574Y000574D02*
X016715Y000574D01*
X016715Y015928D01*
X000574Y015928D01*
X000574Y000574D01*
X000574Y015928D01*
X016715Y015928D01*
X016715Y000574D01*
X000574Y000574D01*
D11*
X001125Y001755D02*
X001127Y001805D01*
X001133Y001855D01*
X001143Y001904D01*
X001157Y001952D01*
X001174Y001999D01*
X001195Y002044D01*
X001220Y002088D01*
X001248Y002129D01*
X001280Y002168D01*
X001314Y002205D01*
X001351Y002239D01*
X001391Y002269D01*
X001433Y002296D01*
X001477Y002320D01*
X001523Y002341D01*
X001570Y002357D01*
X001618Y002370D01*
X001668Y002379D01*
X001717Y002384D01*
X001768Y002385D01*
X001818Y002382D01*
X001867Y002375D01*
X001916Y002364D01*
X001964Y002349D01*
X002010Y002331D01*
X002055Y002309D01*
X002098Y002283D01*
X002139Y002254D01*
X002178Y002222D01*
X002214Y002187D01*
X002246Y002149D01*
X002276Y002109D01*
X002303Y002066D01*
X002326Y002022D01*
X002345Y001976D01*
X002361Y001928D01*
X002373Y001879D01*
X002381Y001830D01*
X002385Y001780D01*
X002385Y001730D01*
X002381Y001680D01*
X002373Y001631D01*
X002361Y001582D01*
X002345Y001534D01*
X002326Y001488D01*
X002303Y001444D01*
X002276Y001401D01*
X002246Y001361D01*
X002214Y001323D01*
X002178Y001288D01*
X002139Y001256D01*
X002098Y001227D01*
X002055Y001201D01*
X002010Y001179D01*
X001964Y001161D01*
X001916Y001146D01*
X001867Y001135D01*
X001818Y001128D01*
X001768Y001125D01*
X001717Y001126D01*
X001668Y001131D01*
X001618Y001140D01*
X001570Y001153D01*
X001523Y001169D01*
X001477Y001190D01*
X001433Y001214D01*
X001391Y001241D01*
X001351Y001271D01*
X001314Y001305D01*
X001280Y001342D01*
X001248Y001381D01*
X001220Y001422D01*
X001195Y001466D01*
X001174Y001511D01*
X001157Y001558D01*
X001143Y001606D01*
X001133Y001655D01*
X001127Y001705D01*
X001125Y001755D01*
X001322Y014747D02*
X001324Y014797D01*
X001330Y014847D01*
X001340Y014896D01*
X001354Y014944D01*
X001371Y014991D01*
X001392Y015036D01*
X001417Y015080D01*
X001445Y015121D01*
X001477Y015160D01*
X001511Y015197D01*
X001548Y015231D01*
X001588Y015261D01*
X001630Y015288D01*
X001674Y015312D01*
X001720Y015333D01*
X001767Y015349D01*
X001815Y015362D01*
X001865Y015371D01*
X001914Y015376D01*
X001965Y015377D01*
X002015Y015374D01*
X002064Y015367D01*
X002113Y015356D01*
X002161Y015341D01*
X002207Y015323D01*
X002252Y015301D01*
X002295Y015275D01*
X002336Y015246D01*
X002375Y015214D01*
X002411Y015179D01*
X002443Y015141D01*
X002473Y015101D01*
X002500Y015058D01*
X002523Y015014D01*
X002542Y014968D01*
X002558Y014920D01*
X002570Y014871D01*
X002578Y014822D01*
X002582Y014772D01*
X002582Y014722D01*
X002578Y014672D01*
X002570Y014623D01*
X002558Y014574D01*
X002542Y014526D01*
X002523Y014480D01*
X002500Y014436D01*
X002473Y014393D01*
X002443Y014353D01*
X002411Y014315D01*
X002375Y014280D01*
X002336Y014248D01*
X002295Y014219D01*
X002252Y014193D01*
X002207Y014171D01*
X002161Y014153D01*
X002113Y014138D01*
X002064Y014127D01*
X002015Y014120D01*
X001965Y014117D01*
X001914Y014118D01*
X001865Y014123D01*
X001815Y014132D01*
X001767Y014145D01*
X001720Y014161D01*
X001674Y014182D01*
X001630Y014206D01*
X001588Y014233D01*
X001548Y014263D01*
X001511Y014297D01*
X001477Y014334D01*
X001445Y014373D01*
X001417Y014414D01*
X001392Y014458D01*
X001371Y014503D01*
X001354Y014550D01*
X001340Y014598D01*
X001330Y014647D01*
X001324Y014697D01*
X001322Y014747D01*
X014904Y014747D02*
X014906Y014797D01*
X014912Y014847D01*
X014922Y014896D01*
X014936Y014944D01*
X014953Y014991D01*
X014974Y015036D01*
X014999Y015080D01*
X015027Y015121D01*
X015059Y015160D01*
X015093Y015197D01*
X015130Y015231D01*
X015170Y015261D01*
X015212Y015288D01*
X015256Y015312D01*
X015302Y015333D01*
X015349Y015349D01*
X015397Y015362D01*
X015447Y015371D01*
X015496Y015376D01*
X015547Y015377D01*
X015597Y015374D01*
X015646Y015367D01*
X015695Y015356D01*
X015743Y015341D01*
X015789Y015323D01*
X015834Y015301D01*
X015877Y015275D01*
X015918Y015246D01*
X015957Y015214D01*
X015993Y015179D01*
X016025Y015141D01*
X016055Y015101D01*
X016082Y015058D01*
X016105Y015014D01*
X016124Y014968D01*
X016140Y014920D01*
X016152Y014871D01*
X016160Y014822D01*
X016164Y014772D01*
X016164Y014722D01*
X016160Y014672D01*
X016152Y014623D01*
X016140Y014574D01*
X016124Y014526D01*
X016105Y014480D01*
X016082Y014436D01*
X016055Y014393D01*
X016025Y014353D01*
X015993Y014315D01*
X015957Y014280D01*
X015918Y014248D01*
X015877Y014219D01*
X015834Y014193D01*
X015789Y014171D01*
X015743Y014153D01*
X015695Y014138D01*
X015646Y014127D01*
X015597Y014120D01*
X015547Y014117D01*
X015496Y014118D01*
X015447Y014123D01*
X015397Y014132D01*
X015349Y014145D01*
X015302Y014161D01*
X015256Y014182D01*
X015212Y014206D01*
X015170Y014233D01*
X015130Y014263D01*
X015093Y014297D01*
X015059Y014334D01*
X015027Y014373D01*
X014999Y014414D01*
X014974Y014458D01*
X014953Y014503D01*
X014936Y014550D01*
X014922Y014598D01*
X014912Y014647D01*
X014906Y014697D01*
X014904Y014747D01*
X014904Y001755D02*
X014906Y001805D01*
X014912Y001855D01*
X014922Y001904D01*
X014936Y001952D01*
X014953Y001999D01*
X014974Y002044D01*
X014999Y002088D01*
X015027Y002129D01*
X015059Y002168D01*
X015093Y002205D01*
X015130Y002239D01*
X015170Y002269D01*
X015212Y002296D01*
X015256Y002320D01*
X015302Y002341D01*
X015349Y002357D01*
X015397Y002370D01*
X015447Y002379D01*
X015496Y002384D01*
X015547Y002385D01*
X015597Y002382D01*
X015646Y002375D01*
X015695Y002364D01*
X015743Y002349D01*
X015789Y002331D01*
X015834Y002309D01*
X015877Y002283D01*
X015918Y002254D01*
X015957Y002222D01*
X015993Y002187D01*
X016025Y002149D01*
X016055Y002109D01*
X016082Y002066D01*
X016105Y002022D01*
X016124Y001976D01*
X016140Y001928D01*
X016152Y001879D01*
X016160Y001830D01*
X016164Y001780D01*
X016164Y001730D01*
X016160Y001680D01*
X016152Y001631D01*
X016140Y001582D01*
X016124Y001534D01*
X016105Y001488D01*
X016082Y001444D01*
X016055Y001401D01*
X016025Y001361D01*
X015993Y001323D01*
X015957Y001288D01*
X015918Y001256D01*
X015877Y001227D01*
X015834Y001201D01*
X015789Y001179D01*
X015743Y001161D01*
X015695Y001146D01*
X015646Y001135D01*
X015597Y001128D01*
X015547Y001125D01*
X015496Y001126D01*
X015447Y001131D01*
X015397Y001140D01*
X015349Y001153D01*
X015302Y001169D01*
X015256Y001190D01*
X015212Y001214D01*
X015170Y001241D01*
X015130Y001271D01*
X015093Y001305D01*
X015059Y001342D01*
X015027Y001381D01*
X014999Y001422D01*
X014974Y001466D01*
X014953Y001511D01*
X014936Y001558D01*
X014922Y001606D01*
X014912Y001655D01*
X014906Y001705D01*
X014904Y001755D01*
D12*
X015896Y003701D02*
X015896Y003851D01*
X015821Y003776D02*
X016121Y003776D01*
X016196Y003701D01*
X016121Y004012D02*
X016046Y004087D01*
X016046Y004237D01*
X015971Y004312D01*
X015896Y004237D01*
X015896Y004012D01*
X016121Y004012D02*
X016196Y004087D01*
X016196Y004312D01*
X016196Y004467D02*
X016121Y004467D01*
X016121Y004542D01*
X016196Y004542D01*
X016196Y004467D01*
X016196Y004699D02*
X016196Y004849D01*
X016196Y004774D02*
X015896Y004774D01*
X015896Y004849D01*
X015896Y005007D02*
X015896Y005082D01*
X016046Y005233D01*
X016196Y005233D02*
X015896Y005233D01*
X015971Y005393D02*
X015896Y005468D01*
X015896Y005618D01*
X015971Y005693D01*
X016121Y005693D01*
X016196Y005618D01*
X016196Y005468D01*
X016121Y005393D01*
X015971Y005393D01*
X015526Y005391D02*
X015526Y005541D01*
X015451Y005616D01*
X015301Y005616D01*
X015226Y005541D01*
X015226Y005391D01*
X015301Y005316D01*
X015376Y005316D01*
X015376Y005616D01*
X015526Y005776D02*
X015526Y006002D01*
X015451Y006077D01*
X015301Y006077D01*
X015226Y006002D01*
X015226Y005776D01*
X015601Y005776D01*
X015676Y005851D01*
X015676Y005926D01*
X015821Y005925D02*
X016121Y005925D01*
X016196Y005850D01*
X015896Y005850D02*
X015896Y006000D01*
X016121Y006155D02*
X016196Y006155D01*
X016196Y006230D01*
X016121Y006230D01*
X016121Y006155D01*
X016121Y006390D02*
X015896Y006390D01*
X016121Y006390D02*
X016196Y006465D01*
X016121Y006540D01*
X016196Y006615D01*
X016121Y006690D01*
X015896Y006690D01*
X015896Y006851D02*
X016121Y006851D01*
X016196Y006926D01*
X016121Y007001D01*
X016196Y007076D01*
X016121Y007151D01*
X015896Y007151D01*
X015896Y007311D02*
X016121Y007311D01*
X016196Y007386D01*
X016121Y007461D01*
X016196Y007536D01*
X016121Y007611D01*
X015896Y007611D01*
X015746Y007771D02*
X016196Y008072D01*
X016196Y008532D02*
X015746Y008232D01*
X015526Y008230D02*
X015526Y008380D01*
X015451Y008455D01*
X015301Y008455D01*
X015226Y008380D01*
X015226Y008230D01*
X015301Y008155D01*
X015451Y008155D01*
X015526Y008230D01*
X015526Y007995D02*
X015226Y007995D01*
X015376Y007995D02*
X015226Y007845D01*
X015226Y007770D01*
X015226Y007611D02*
X015226Y007536D01*
X015526Y007536D01*
X015526Y007611D02*
X015526Y007461D01*
X015526Y007304D02*
X015226Y007304D01*
X015226Y007079D01*
X015301Y007004D01*
X015526Y007004D01*
X015526Y006844D02*
X015526Y006694D01*
X015526Y006769D02*
X015226Y006769D01*
X015226Y006844D01*
X015076Y006769D02*
X015001Y006769D01*
X014856Y006851D02*
X014631Y007076D01*
X014706Y007151D02*
X014406Y006851D01*
X014406Y007151D02*
X014856Y007151D01*
X014781Y007311D02*
X014481Y007311D01*
X014406Y007386D01*
X014406Y007611D01*
X014856Y007611D01*
X014856Y007386D01*
X014781Y007311D01*
X015001Y007536D02*
X015076Y007536D01*
X014856Y007771D02*
X014556Y007771D01*
X014406Y007922D01*
X014556Y008072D01*
X014856Y008072D01*
X014856Y008232D02*
X014856Y008457D01*
X014781Y008532D01*
X014556Y008532D01*
X014631Y008692D02*
X014781Y008692D01*
X014856Y008767D01*
X014856Y008992D01*
X015006Y008992D02*
X014556Y008992D01*
X014556Y008767D01*
X014631Y008692D01*
X015076Y008766D02*
X015526Y008766D01*
X015896Y008762D02*
X015896Y008687D01*
X015971Y008687D01*
X015971Y008762D01*
X015896Y008762D01*
X015971Y008922D02*
X016121Y008922D01*
X016196Y008997D01*
X016196Y009223D01*
X016346Y009223D02*
X015896Y009223D01*
X015896Y008997D01*
X015971Y008922D01*
X016121Y008762D02*
X016121Y008687D01*
X016196Y008687D01*
X016196Y008762D01*
X016121Y008762D01*
X016196Y009379D02*
X016121Y009455D01*
X015821Y009455D01*
X015896Y009530D02*
X015896Y009379D01*
X015896Y009686D02*
X015896Y009836D01*
X015821Y009761D02*
X016121Y009761D01*
X016196Y009686D01*
X016196Y009997D02*
X015971Y009997D01*
X015896Y010072D01*
X015896Y010222D01*
X015971Y010297D01*
X015746Y010297D02*
X016196Y010297D01*
X015526Y010297D02*
X015526Y010072D01*
X015451Y009997D01*
X015301Y009997D01*
X015226Y010072D01*
X015226Y010297D01*
X015076Y010297D02*
X015526Y010297D01*
X015451Y009836D02*
X015226Y009836D01*
X015451Y009836D02*
X015526Y009761D01*
X015526Y009536D01*
X015601Y009536D02*
X015676Y009611D01*
X015676Y009686D01*
X015601Y009536D02*
X015226Y009536D01*
X014856Y009536D02*
X014856Y009761D01*
X014781Y009836D01*
X014706Y009761D01*
X014706Y009536D01*
X014631Y009536D02*
X014856Y009536D01*
X014856Y009376D02*
X014556Y009376D01*
X014706Y009376D02*
X014556Y009226D01*
X014556Y009151D01*
X014631Y009536D02*
X014556Y009611D01*
X014556Y009761D01*
X014631Y009997D02*
X014631Y010297D01*
X014856Y010297D02*
X014406Y010297D01*
X014406Y009997D02*
X014856Y009997D01*
X015076Y008916D02*
X015076Y008615D01*
X015006Y008382D02*
X015006Y008307D01*
X014931Y008232D01*
X014556Y008232D01*
X014631Y008072D02*
X014631Y007771D01*
X015226Y006537D02*
X015226Y006312D01*
X015301Y006237D01*
X015526Y006237D01*
X015526Y006537D02*
X015226Y006537D01*
X014856Y006080D02*
X014556Y005930D01*
X014631Y005770D02*
X014556Y005695D01*
X014556Y005545D01*
X014631Y005469D01*
X014706Y005469D01*
X014706Y005770D01*
X014781Y005770D02*
X014631Y005770D01*
X014781Y005770D02*
X014856Y005695D01*
X014856Y005545D01*
X014856Y005309D02*
X014556Y005309D01*
X014556Y005159D02*
X014556Y005084D01*
X014556Y005159D02*
X014706Y005309D01*
X014856Y004926D02*
X014556Y004625D01*
X014481Y004625D01*
X014406Y004700D01*
X014406Y004851D01*
X014481Y004926D01*
X014856Y004926D02*
X014856Y004625D01*
X014856Y004465D02*
X014856Y004390D01*
X014781Y004390D01*
X014781Y004465D01*
X014856Y004465D01*
X014781Y004235D02*
X014481Y003935D01*
X014781Y003935D01*
X014856Y004010D01*
X014856Y004160D01*
X014781Y004235D01*
X014481Y004235D01*
X014406Y004160D01*
X014406Y004010D01*
X014481Y003935D01*
X015301Y004856D02*
X015526Y004856D01*
X015671Y004774D02*
X015746Y004774D01*
X015526Y005156D02*
X015226Y005156D01*
X015226Y004931D01*
X015301Y004856D01*
X014856Y006080D02*
X014556Y006230D01*
D13*
X010820Y010025D03*
X010770Y010055D03*
X010740Y010075D03*
X010710Y010095D03*
X010680Y010115D03*
X010650Y010135D03*
X010620Y010155D03*
X010610Y010165D03*
X010590Y010175D03*
X010580Y010185D03*
X010550Y010205D03*
X010520Y010225D03*
X010510Y010235D03*
X010490Y010245D03*
X010480Y010255D03*
X010450Y010275D03*
X010440Y010285D03*
X010190Y010125D03*
X010180Y010115D03*
X010170Y010105D03*
X010160Y010095D03*
X010150Y010085D03*
X010140Y010075D03*
X010110Y010055D03*
X010100Y010045D03*
X010090Y010035D03*
X010080Y010025D03*
X010070Y010015D03*
X010060Y010015D03*
X010050Y010005D03*
X010040Y009995D03*
X010030Y009985D03*
X010020Y009975D03*
X010010Y009975D03*
X010000Y009965D03*
X009990Y009955D03*
X009960Y009935D03*
X009950Y009925D03*
X009930Y009915D03*
X009920Y009905D03*
X009860Y009865D03*
X009830Y009845D03*
X009780Y009815D03*
X009750Y009795D03*
X009670Y009475D03*
X009660Y009475D03*
X009650Y009465D03*
X008610Y009345D03*
X008580Y009365D03*
X008570Y009375D03*
X008540Y009395D03*
X008530Y009405D03*
X008510Y009415D03*
X008500Y009425D03*
X008470Y009445D03*
X008440Y009465D03*
X008410Y009485D03*
X008580Y009765D03*
X008530Y009795D03*
X008500Y009815D03*
X008490Y009825D03*
X008470Y009835D03*
X008050Y009785D03*
X008040Y009775D03*
X008030Y009765D03*
X008020Y009755D03*
X008010Y009745D03*
X007930Y009685D03*
X007910Y009675D03*
X007370Y009855D03*
X007290Y010555D03*
X008110Y010505D03*
X008380Y010865D03*
X008610Y011095D03*
X008620Y011085D03*
X008640Y011075D03*
X008650Y011065D03*
X008660Y011055D03*
X008670Y011045D03*
X008690Y011035D03*
X008700Y011025D03*
X008710Y011015D03*
X008720Y011005D03*
X008730Y010995D03*
X008740Y010985D03*
X008970Y010685D03*
X009600Y010955D03*
X009610Y011495D03*
X009630Y011505D03*
X009640Y011515D03*
X009650Y011525D03*
X009670Y011535D03*
X009680Y011545D03*
X009690Y011555D03*
X009700Y011565D03*
X009690Y011825D03*
X009680Y011835D03*
X009670Y011845D03*
X009650Y011855D03*
X009520Y011935D03*
X009850Y012075D03*
X009880Y012095D03*
X009890Y012105D03*
X009900Y012115D03*
X009940Y012535D03*
X009930Y012545D03*
X009920Y012555D03*
X009750Y012645D03*
X010030Y013005D03*
X010020Y013015D03*
X010050Y012995D03*
X010060Y012985D03*
X010070Y012975D03*
X010080Y012965D03*
X010110Y012945D03*
X010120Y012935D03*
X010130Y012925D03*
X010140Y012915D03*
X010150Y012905D03*
X010160Y012895D03*
X009580Y013475D03*
X009570Y013465D03*
X009590Y013485D03*
X009600Y013495D03*
X009610Y013505D03*
X009620Y013515D03*
X009630Y013525D03*
X009660Y013545D03*
X009670Y013555D03*
X009680Y013565D03*
X009690Y013575D03*
X009700Y013585D03*
X009710Y013595D03*
X009730Y013605D03*
X009740Y013615D03*
X009750Y013625D03*
X009760Y013635D03*
X009770Y013645D03*
X009780Y013655D03*
X009790Y013655D03*
X009800Y013665D03*
X009810Y013675D03*
X009820Y013685D03*
X009840Y013695D03*
X009850Y013705D03*
X009880Y013725D03*
X010050Y013765D03*
X010060Y013755D03*
X009540Y013445D03*
X009530Y013435D03*
X009520Y013425D03*
X009510Y013415D03*
X009500Y013405D03*
X009490Y013395D03*
X009460Y013375D03*
X009450Y013365D03*
X009440Y013355D03*
X009430Y013345D03*
X009420Y013335D03*
X009410Y013325D03*
X009400Y013325D03*
X009340Y013275D03*
X009330Y013265D03*
X009320Y013255D03*
X009310Y013245D03*
X009290Y013235D03*
X009280Y013225D03*
X009270Y013215D03*
X009250Y013205D03*
X009240Y013195D03*
X009230Y013185D03*
X009210Y013175D03*
X009200Y013165D03*
X009190Y013155D03*
X009170Y013145D03*
X009160Y013135D03*
X009130Y013115D03*
X009100Y013095D03*
X009070Y013075D03*
X009040Y013055D03*
X009010Y013035D03*
X008980Y013015D03*
X008930Y012985D03*
X008910Y012975D03*
X008520Y012755D03*
X008490Y012735D03*
X008480Y012725D03*
X008460Y012715D03*
X008450Y012705D03*
X008440Y012695D03*
X008420Y012685D03*
X008410Y012675D03*
X008400Y012665D03*
X008390Y012655D03*
X008380Y012645D03*
X007810Y012685D03*
X007800Y012695D03*
X007790Y012705D03*
X007780Y012715D03*
X007770Y012725D03*
X007760Y012735D03*
X007740Y012745D03*
X007730Y012755D03*
X007720Y012765D03*
X007710Y012775D03*
X007700Y012775D03*
X007690Y012785D03*
X007680Y012795D03*
X007660Y012805D03*
X007650Y012815D03*
X007620Y012835D03*
X008990Y011665D03*
X009020Y011645D03*
X009040Y011635D03*
X009050Y011625D03*
X009080Y011605D03*
X009090Y011595D03*
X009110Y011585D03*
X009120Y011575D03*
X009130Y011565D03*
X009140Y011555D03*
X009160Y011545D03*
X009170Y011535D03*
X009180Y011525D03*
X009190Y011515D03*
X009200Y011505D03*
X009210Y011495D03*
X008200Y011305D03*
X008190Y011305D03*
X008180Y011305D03*
X006970Y011605D03*
X006960Y011605D03*
X006950Y011595D03*
X006930Y011585D03*
X006900Y011565D03*
X006880Y011555D03*
X006860Y011545D03*
X006850Y011545D03*
X006840Y011535D03*
X006830Y011535D03*
X006820Y011525D03*
X006810Y011525D03*
X006800Y011515D03*
X006790Y011515D03*
X006780Y011505D03*
X006760Y011495D03*
X006740Y011485D03*
X006720Y011475D03*
X006430Y011315D03*
X006380Y011285D03*
X006330Y011255D03*
X006300Y011235D03*
X006270Y011215D03*
X006240Y011195D03*
X006210Y011175D03*
X006180Y011155D03*
X006170Y011145D03*
X006150Y011135D03*
X006140Y011125D03*
X006130Y011115D03*
X006110Y011105D03*
X006100Y011095D03*
X006090Y011085D03*
X006070Y011075D03*
X006060Y011065D03*
X006050Y011055D03*
X006040Y011045D03*
X006030Y011045D03*
X006020Y011035D03*
X006010Y011025D03*
X006000Y011015D03*
X005990Y011005D03*
X005980Y010995D03*
X005410Y010225D03*
X005420Y010215D03*
X005430Y010205D03*
X005440Y010195D03*
X005450Y010185D03*
X005460Y010175D03*
X005470Y010175D03*
X005480Y010165D03*
X005490Y010155D03*
X005500Y010145D03*
X005520Y010135D03*
X005530Y010125D03*
X005560Y010105D03*
X005590Y010085D03*
X006290Y008905D03*
X006320Y008905D03*
X005510Y012605D03*
X005520Y012615D03*
X005530Y012625D03*
X005540Y012635D03*
X005550Y012645D03*
X005560Y012645D03*
X005570Y012655D03*
X005580Y012665D03*
X005590Y012675D03*
X005610Y012685D03*
X005620Y012695D03*
X005630Y012705D03*
X005650Y012715D03*
X005660Y012725D03*
X005710Y012755D03*
X009170Y013485D03*
X009220Y013455D03*
X009250Y013435D03*
X009280Y013415D03*
X009310Y013395D03*
X009340Y013375D03*
X010690Y010895D03*
X010700Y010885D03*
X010710Y010875D03*
X010730Y010865D03*
X010740Y010855D03*
X010750Y010845D03*
X010760Y010835D03*
X010770Y010825D03*
X010780Y010815D03*
X011150Y010375D03*
D14*
X011140Y010375D03*
X011080Y010475D03*
X011070Y010495D03*
X010450Y010445D03*
X010440Y010425D03*
X010430Y010415D03*
X010390Y010345D03*
X009580Y010985D03*
X009470Y011175D03*
X009450Y011205D03*
X009440Y011225D03*
X009430Y011235D03*
X008940Y010715D03*
X008950Y010705D03*
X008400Y010835D03*
X008330Y011275D03*
X008320Y011275D03*
X008300Y011285D03*
X008290Y011285D03*
X008130Y012265D03*
X008060Y012375D03*
X008040Y012405D03*
X008030Y012425D03*
X008020Y012435D03*
X008250Y012495D03*
X008260Y012515D03*
X008680Y013475D03*
X009380Y013325D03*
X009820Y012735D03*
X009770Y012655D03*
X009970Y012195D03*
X009570Y011925D03*
X010400Y012585D03*
X010380Y012615D03*
X010370Y012635D03*
X010360Y012645D03*
X008230Y009975D03*
X007940Y009835D03*
X007920Y009805D03*
X007800Y009645D03*
X007320Y009855D03*
X007040Y009855D03*
X006760Y009495D03*
X006750Y009475D03*
X006730Y009445D03*
X006720Y009425D03*
X006710Y009415D03*
X006700Y009395D03*
X006680Y009365D03*
X006660Y009335D03*
X006640Y009305D03*
X006140Y009095D03*
X006120Y009125D03*
X006110Y009145D03*
X006100Y009155D03*
X006090Y009175D03*
X006080Y009185D03*
X006070Y009205D03*
X006060Y009225D03*
X006050Y009235D03*
X006040Y009255D03*
X006020Y009285D03*
X006000Y009315D03*
X005990Y009335D03*
X005960Y009385D03*
X005210Y010465D03*
X005190Y010495D03*
X005750Y010735D03*
X005760Y010755D03*
X005770Y010765D03*
X006990Y011595D03*
X007310Y010555D03*
X008550Y009625D03*
X008560Y009605D03*
X009480Y009285D03*
X009570Y009375D03*
X009810Y009235D03*
X009850Y009215D03*
X005240Y012285D03*
X005230Y012275D03*
X005220Y012255D03*
X005250Y012305D03*
X005270Y012335D03*
D15*
X005170Y012160D03*
X005160Y012140D03*
X005150Y012120D03*
X005120Y010630D03*
X005130Y010610D03*
X005140Y010590D03*
X005630Y010340D03*
X005840Y009600D03*
X006870Y009690D03*
X007100Y009850D03*
X007110Y009850D03*
X007120Y009850D03*
X007130Y009850D03*
X007140Y009850D03*
X007150Y009850D03*
X007160Y009850D03*
X007170Y009850D03*
X007180Y009850D03*
X007190Y009850D03*
X007200Y009850D03*
X007210Y009850D03*
X007220Y009850D03*
X007230Y009850D03*
X007240Y009850D03*
X007250Y009850D03*
X007260Y009850D03*
X007850Y009680D03*
X007860Y009690D03*
X007990Y009700D03*
X008000Y009700D03*
X007970Y009890D03*
X007980Y009910D03*
X008240Y009980D03*
X008350Y010180D03*
X008360Y010200D03*
X007770Y010560D03*
X007340Y010560D03*
X007000Y011580D03*
X008210Y012420D03*
X008890Y013000D03*
X008750Y013340D03*
X009360Y013320D03*
X009880Y012840D03*
X009870Y012820D03*
X009860Y012800D03*
X009790Y012660D03*
X009980Y012220D03*
X010480Y012440D03*
X009380Y011330D03*
X009560Y011010D03*
X010400Y010350D03*
X010520Y010570D03*
X010530Y010590D03*
X011130Y010380D03*
X009720Y009410D03*
X009730Y009390D03*
X009740Y009370D03*
X009750Y009350D03*
X009760Y009330D03*
X009770Y009310D03*
X009780Y009290D03*
X008680Y009330D03*
X008590Y009550D03*
X008410Y010820D03*
D16*
X008890Y010765D03*
X008900Y010755D03*
X008390Y010275D03*
X008060Y010105D03*
X008050Y010075D03*
X008030Y010025D03*
X008430Y009815D03*
X008440Y009805D03*
X008450Y009795D03*
X007740Y010555D03*
X007370Y010555D03*
X006950Y009865D03*
X005780Y009745D03*
X005710Y010645D03*
X005090Y010705D03*
X005110Y012025D03*
X008810Y013195D03*
X009940Y012985D03*
X009960Y013035D03*
X010550Y012275D03*
X010580Y010715D03*
X010570Y010685D03*
X010850Y010285D03*
X011120Y010385D03*
X009880Y009825D03*
D17*
X010420Y010355D03*
X010890Y010185D03*
X010940Y010035D03*
X011110Y010395D03*
X009770Y011695D03*
X009520Y011055D03*
X008880Y010775D03*
X008260Y009985D03*
X008090Y010185D03*
X007710Y010555D03*
X007700Y010555D03*
X007400Y010555D03*
X007390Y010555D03*
X007010Y011565D03*
X008160Y012305D03*
X008830Y013145D03*
X009810Y012675D03*
X010040Y012355D03*
X010580Y012195D03*
X009980Y013095D03*
X010130Y013615D03*
X005760Y009795D03*
D18*
X005740Y009855D03*
X005060Y010795D03*
X005080Y011935D03*
X007430Y010555D03*
X007440Y010555D03*
X007450Y010555D03*
X007660Y010555D03*
X007670Y010555D03*
X007680Y010555D03*
X008160Y010405D03*
X009510Y011065D03*
X009760Y011695D03*
X010610Y010805D03*
X011100Y010395D03*
X008870Y013025D03*
X008170Y012315D03*
X010020Y013215D03*
D19*
X010030Y013245D03*
X008710Y013465D03*
X008180Y012325D03*
X007620Y010555D03*
X007610Y010555D03*
X007600Y010555D03*
X007590Y010555D03*
X007580Y010555D03*
X007570Y010555D03*
X007560Y010555D03*
X007550Y010555D03*
X007540Y010555D03*
X007530Y010555D03*
X007520Y010555D03*
X007510Y010555D03*
X007500Y010555D03*
X007490Y010555D03*
X008110Y010255D03*
X008280Y009995D03*
X008640Y009405D03*
X009950Y009595D03*
X010870Y010255D03*
X011090Y010405D03*
X010620Y010835D03*
X005730Y009895D03*
X005050Y010825D03*
D20*
X006570Y011395D03*
X006590Y011405D03*
X007040Y011645D03*
X007070Y011655D03*
X007090Y011665D03*
X007110Y011675D03*
X007120Y011675D03*
X007140Y011685D03*
X007170Y011695D03*
X007190Y011705D03*
X007200Y011705D03*
X007220Y011715D03*
X007230Y011715D03*
X007250Y011725D03*
X007260Y011725D03*
X007280Y011735D03*
X007290Y011735D03*
X007310Y011745D03*
X007320Y011745D03*
X007330Y011745D03*
X007340Y011755D03*
X007350Y011755D03*
X007360Y011755D03*
X007380Y011765D03*
X007390Y011765D03*
X007400Y011765D03*
X007410Y011775D03*
X007420Y011775D03*
X007430Y011775D03*
X007450Y011785D03*
X007460Y011785D03*
X007470Y011785D03*
X007480Y011785D03*
X007490Y011795D03*
X007500Y011795D03*
X007510Y011795D03*
X007520Y011795D03*
X007530Y011805D03*
X007540Y011805D03*
X007550Y011805D03*
X007560Y011805D03*
X007580Y011815D03*
X007590Y011815D03*
X007600Y011815D03*
X007610Y011815D03*
X007620Y011815D03*
X007630Y011825D03*
X007640Y011825D03*
X007650Y011825D03*
X007660Y011825D03*
X007670Y011825D03*
X007680Y011835D03*
X007690Y011835D03*
X007700Y011835D03*
X007710Y011835D03*
X007720Y011835D03*
X007730Y011835D03*
X007740Y011845D03*
X007750Y011845D03*
X007760Y011845D03*
X007770Y011845D03*
X007780Y011845D03*
X007790Y011845D03*
X007800Y011845D03*
X007820Y011855D03*
X007830Y011855D03*
X007840Y011855D03*
X007850Y011855D03*
X007860Y011855D03*
X007870Y011855D03*
X007880Y011855D03*
X007890Y011855D03*
X007900Y011865D03*
X007910Y011865D03*
X007920Y011865D03*
X007930Y011865D03*
X007940Y011865D03*
X007950Y011865D03*
X007960Y011865D03*
X007970Y011865D03*
X007980Y011865D03*
X007990Y011865D03*
X008000Y011865D03*
X008010Y011865D03*
X008020Y011865D03*
X008030Y011865D03*
X008060Y011875D03*
X008070Y011875D03*
X008080Y011875D03*
X008090Y011875D03*
X008100Y011875D03*
X008110Y011875D03*
X008120Y011875D03*
X008130Y011875D03*
X008140Y011875D03*
X008150Y011875D03*
X008160Y011875D03*
X008170Y011875D03*
X008180Y011875D03*
X008190Y011875D03*
X008200Y011875D03*
X008210Y011875D03*
X008220Y011875D03*
X008250Y011865D03*
X008260Y011865D03*
X008270Y011865D03*
X008280Y011865D03*
X008290Y011865D03*
X008300Y011865D03*
X008310Y011865D03*
X008320Y011865D03*
X008330Y011865D03*
X008340Y011865D03*
X008350Y011865D03*
X008360Y011865D03*
X008370Y011865D03*
X008390Y011855D03*
X008400Y011855D03*
X008410Y011855D03*
X008420Y011855D03*
X008430Y011855D03*
X008440Y011855D03*
X008450Y011855D03*
X008460Y011855D03*
X008470Y011845D03*
X008480Y011845D03*
X008490Y011845D03*
X008500Y011845D03*
X008510Y011845D03*
X008520Y011845D03*
X008530Y011845D03*
X008540Y011835D03*
X008550Y011835D03*
X008560Y011835D03*
X008570Y011835D03*
X008590Y011825D03*
X008600Y011825D03*
X008610Y011825D03*
X008630Y011815D03*
X008640Y011815D03*
X008650Y011815D03*
X008670Y011805D03*
X008680Y011805D03*
X008700Y011795D03*
X008710Y011795D03*
X008730Y011785D03*
X008740Y011785D03*
X008760Y011775D03*
X008770Y011775D03*
X008790Y011765D03*
X008820Y011755D03*
X008840Y011745D03*
X008860Y011735D03*
X008880Y011725D03*
X008900Y011715D03*
X008920Y011705D03*
X008460Y011295D03*
X008450Y011295D03*
X008440Y011295D03*
X008430Y011295D03*
X008420Y011295D03*
X008410Y011295D03*
X008390Y011305D03*
X008380Y011305D03*
X008470Y011285D03*
X008480Y011285D03*
X008490Y011285D03*
X008500Y011285D03*
X008510Y011285D03*
X008520Y011285D03*
X008530Y011275D03*
X008540Y011275D03*
X008550Y011275D03*
X008560Y011275D03*
X008570Y011275D03*
X008580Y011265D03*
X008590Y011265D03*
X008600Y011265D03*
X008610Y011265D03*
X008620Y011265D03*
X008640Y011255D03*
X008650Y011255D03*
X008660Y011255D03*
X008670Y011255D03*
X008680Y011245D03*
X008690Y011245D03*
X008700Y011245D03*
X008710Y011245D03*
X008730Y011235D03*
X008740Y011235D03*
X008750Y011235D03*
X008770Y011225D03*
X008780Y011225D03*
X008790Y011225D03*
X008810Y011215D03*
X008820Y011215D03*
X008830Y011215D03*
X008850Y011205D03*
X008860Y011205D03*
X008870Y011205D03*
X008890Y011195D03*
X008900Y011195D03*
X008910Y011195D03*
X008920Y011185D03*
X008930Y011185D03*
X008940Y011185D03*
X008960Y011175D03*
X008970Y011175D03*
X008980Y011175D03*
X008990Y011165D03*
X009000Y011165D03*
X009010Y011165D03*
X009020Y011155D03*
X009030Y011155D03*
X009040Y011155D03*
X009060Y011145D03*
X009070Y011145D03*
X009090Y011135D03*
X009100Y011135D03*
X009120Y011125D03*
X009130Y011125D03*
X009150Y011115D03*
X009160Y011115D03*
X009170Y011115D03*
X009180Y011105D03*
X009190Y011105D03*
X009210Y011095D03*
X009220Y011095D03*
X009240Y011085D03*
X009250Y011085D03*
X009270Y011075D03*
X009280Y011075D03*
X009300Y011065D03*
X009310Y011065D03*
X009330Y011055D03*
X009340Y011055D03*
X009360Y011045D03*
X009380Y011035D03*
X009390Y011035D03*
X009410Y011025D03*
X009440Y011015D03*
X009460Y011005D03*
X009470Y011005D03*
X009490Y010995D03*
X009610Y010945D03*
X009410Y011385D03*
X009430Y011395D03*
X009500Y011935D03*
X009610Y011975D03*
X009620Y011975D03*
X009630Y011975D03*
X009650Y011985D03*
X009660Y011985D03*
X009680Y011995D03*
X009710Y012005D03*
X009730Y012015D03*
X009780Y012035D03*
X009840Y012595D03*
X009820Y012605D03*
X009740Y012645D03*
X009100Y013525D03*
X009040Y013555D03*
X009020Y013565D03*
X009000Y013575D03*
X008980Y013585D03*
X008970Y013585D03*
X008950Y013595D03*
X008940Y013595D03*
X008920Y013605D03*
X008910Y013605D03*
X008900Y013605D03*
X008890Y013615D03*
X008880Y013615D03*
X008870Y013615D03*
X008860Y013615D03*
X008850Y013615D03*
X008840Y013615D03*
X008830Y013615D03*
X008820Y013615D03*
X008810Y013615D03*
X008800Y013615D03*
X008740Y012875D03*
X008590Y012795D03*
X007490Y012905D03*
X007470Y012915D03*
X007450Y012925D03*
X007430Y012935D03*
X007400Y012945D03*
X007380Y012955D03*
X007370Y012955D03*
X007350Y012965D03*
X007340Y012965D03*
X007320Y012975D03*
X007310Y012975D03*
X007290Y012985D03*
X007280Y012985D03*
X007260Y012995D03*
X007250Y012995D03*
X007240Y012995D03*
X007220Y013005D03*
X007210Y013005D03*
X007200Y013005D03*
X007180Y013015D03*
X007170Y013015D03*
X007160Y013015D03*
X007150Y013015D03*
X007130Y013025D03*
X007120Y013025D03*
X007110Y013025D03*
X007100Y013025D03*
X007090Y013025D03*
X007080Y013035D03*
X007070Y013035D03*
X007060Y013035D03*
X007050Y013035D03*
X007040Y013035D03*
X007030Y013035D03*
X007020Y013035D03*
X007010Y013035D03*
X007000Y013045D03*
X006990Y013045D03*
X006980Y013045D03*
X006970Y013045D03*
X006960Y013045D03*
X006950Y013045D03*
X006940Y013045D03*
X006930Y013045D03*
X006920Y013045D03*
X006910Y013045D03*
X006900Y013045D03*
X006890Y013045D03*
X006880Y013045D03*
X006870Y013045D03*
X006860Y013045D03*
X006850Y013045D03*
X006840Y013045D03*
X006800Y013045D03*
X006790Y013045D03*
X006780Y013045D03*
X006770Y013045D03*
X006760Y013045D03*
X006750Y013045D03*
X006740Y013045D03*
X006730Y013045D03*
X006720Y013045D03*
X006710Y013045D03*
X006700Y013045D03*
X006690Y013045D03*
X006680Y013045D03*
X006670Y013045D03*
X006660Y013045D03*
X006650Y013045D03*
X006640Y013045D03*
X006630Y013045D03*
X006620Y013045D03*
X006610Y013035D03*
X006600Y013035D03*
X006590Y013035D03*
X006580Y013035D03*
X006570Y013035D03*
X006560Y013035D03*
X006550Y013035D03*
X006540Y013035D03*
X006530Y013035D03*
X006520Y013025D03*
X006510Y013025D03*
X006500Y013025D03*
X006490Y013025D03*
X006480Y013025D03*
X006470Y013025D03*
X006460Y013015D03*
X006450Y013015D03*
X006440Y013015D03*
X006430Y013015D03*
X006420Y013015D03*
X006410Y013015D03*
X006390Y013005D03*
X006380Y013005D03*
X006370Y013005D03*
X006360Y013005D03*
X006340Y012995D03*
X006330Y012995D03*
X006320Y012995D03*
X006310Y012995D03*
X006300Y012985D03*
X006290Y012985D03*
X006280Y012985D03*
X006270Y012985D03*
X006250Y012975D03*
X006240Y012975D03*
X006230Y012975D03*
X006220Y012965D03*
X006210Y012965D03*
X006200Y012965D03*
X006180Y012955D03*
X006170Y012955D03*
X006160Y012955D03*
X006140Y012945D03*
X006130Y012945D03*
X006110Y012935D03*
X006100Y012935D03*
X006090Y012935D03*
X006080Y012925D03*
X006070Y012925D03*
X006060Y012925D03*
X006040Y012915D03*
X006020Y012905D03*
X006010Y012905D03*
X005990Y012895D03*
X005980Y012895D03*
X005960Y012885D03*
X005940Y012875D03*
X005920Y012865D03*
X005870Y012845D03*
X005850Y012835D03*
X007540Y011295D03*
X007550Y011295D03*
X007560Y011295D03*
X007570Y011295D03*
X007580Y011295D03*
X007590Y011295D03*
X007600Y011295D03*
X007610Y011295D03*
X007630Y011305D03*
X007640Y011305D03*
X007650Y011305D03*
X007660Y011305D03*
X007670Y011305D03*
X007680Y011305D03*
X007690Y011305D03*
X007700Y011305D03*
X007710Y011305D03*
X007720Y011305D03*
X007750Y011315D03*
X007760Y011315D03*
X007770Y011315D03*
X007780Y011315D03*
X007790Y011315D03*
X007800Y011315D03*
X007810Y011315D03*
X007820Y011315D03*
X007830Y011315D03*
X007840Y011315D03*
X007850Y011315D03*
X007860Y011315D03*
X007870Y011315D03*
X007880Y011315D03*
X007890Y011315D03*
X007900Y011315D03*
X007910Y011315D03*
X007920Y011315D03*
X007930Y011315D03*
X008000Y011325D03*
X008010Y011325D03*
X008020Y011325D03*
X008030Y011325D03*
X008040Y011325D03*
X008050Y011325D03*
X008060Y011325D03*
X008070Y011325D03*
X008130Y011315D03*
X008010Y010955D03*
X008000Y010955D03*
X007990Y010955D03*
X007980Y010955D03*
X007970Y010955D03*
X007960Y010955D03*
X007950Y010955D03*
X007940Y010955D03*
X007920Y010965D03*
X007910Y010965D03*
X007900Y010965D03*
X007890Y010965D03*
X007880Y010965D03*
X007870Y010965D03*
X007860Y010965D03*
X007850Y010965D03*
X007840Y010965D03*
X007830Y010965D03*
X007820Y010965D03*
X007810Y010965D03*
X007800Y010965D03*
X007790Y010965D03*
X007780Y010965D03*
X007770Y010965D03*
X007760Y010965D03*
X007750Y010965D03*
X007740Y010965D03*
X007730Y010965D03*
X007720Y010965D03*
X007710Y010965D03*
X007700Y010965D03*
X007690Y010965D03*
X007680Y010965D03*
X007670Y010965D03*
X007660Y010965D03*
X007650Y010965D03*
X007640Y010965D03*
X007630Y010965D03*
X007620Y010965D03*
X007610Y010965D03*
X007600Y010965D03*
X007590Y010965D03*
X007580Y010965D03*
X007570Y010965D03*
X007560Y010965D03*
X007550Y010965D03*
X007540Y010965D03*
X007530Y010965D03*
X007520Y010965D03*
X007510Y010965D03*
X007500Y010965D03*
X007490Y010965D03*
X007480Y010965D03*
X007450Y010955D03*
X007440Y010955D03*
X007430Y010955D03*
X007420Y010955D03*
X007410Y010955D03*
X007400Y010955D03*
X007390Y010955D03*
X007380Y010955D03*
X007370Y010955D03*
X007360Y010955D03*
X007350Y010955D03*
X007340Y010955D03*
X007320Y010945D03*
X007310Y010945D03*
X007300Y010945D03*
X007290Y010945D03*
X007280Y010945D03*
X007270Y010945D03*
X007260Y010945D03*
X007250Y010945D03*
X007230Y010935D03*
X007220Y010935D03*
X007210Y010935D03*
X007200Y010935D03*
X007190Y010935D03*
X007180Y010935D03*
X007170Y010935D03*
X007160Y010925D03*
X007150Y010925D03*
X007120Y011215D03*
X007130Y011225D03*
X007140Y011225D03*
X007150Y011225D03*
X007160Y011225D03*
X007180Y011235D03*
X007190Y011235D03*
X007200Y011235D03*
X007210Y011235D03*
X007230Y011245D03*
X007240Y011245D03*
X007250Y011245D03*
X007260Y011245D03*
X007270Y011255D03*
X007280Y011255D03*
X007290Y011255D03*
X007300Y011255D03*
X007310Y011255D03*
X007320Y011255D03*
X007330Y011265D03*
X007340Y011265D03*
X007350Y011265D03*
X007360Y011265D03*
X007370Y011265D03*
X007380Y011265D03*
X007400Y011275D03*
X007410Y011275D03*
X007420Y011275D03*
X007430Y011275D03*
X007440Y011275D03*
X007450Y011275D03*
X007460Y011285D03*
X007470Y011285D03*
X007480Y011285D03*
X007490Y011285D03*
X007500Y011285D03*
X007510Y011285D03*
X007520Y011285D03*
X007530Y011285D03*
X008020Y010945D03*
X008030Y010945D03*
X008040Y010945D03*
X008050Y010945D03*
X008060Y010945D03*
X008070Y010945D03*
X008080Y010935D03*
X008090Y010935D03*
X008100Y010935D03*
X008110Y010935D03*
X008120Y010935D03*
X008130Y010925D03*
X008140Y010925D03*
X008150Y010925D03*
X008160Y010925D03*
X008170Y010925D03*
X008180Y010915D03*
X008190Y010915D03*
X008200Y010915D03*
X008210Y010915D03*
X008230Y010905D03*
X008240Y010905D03*
X008250Y010905D03*
X008270Y010895D03*
X008280Y010895D03*
X008290Y010895D03*
X008300Y010895D03*
X008310Y010885D03*
X008320Y010885D03*
X008330Y010885D03*
X008350Y010875D03*
X008360Y010875D03*
X008370Y010875D03*
X008470Y010845D03*
X008480Y010845D03*
X008490Y010835D03*
X008500Y010835D03*
X008510Y010835D03*
X008530Y010825D03*
X008540Y010825D03*
X008560Y010815D03*
X008570Y010815D03*
X008590Y010805D03*
X008600Y010805D03*
X008620Y010795D03*
X008630Y010795D03*
X008650Y010785D03*
X008660Y010785D03*
X008670Y010785D03*
X008680Y010775D03*
X008690Y010775D03*
X008710Y010765D03*
X008720Y010765D03*
X008740Y010755D03*
X008750Y010755D03*
X008770Y010745D03*
X008780Y010745D03*
X008800Y010735D03*
X008810Y010735D03*
X008830Y010725D03*
X008840Y010725D03*
X008860Y010715D03*
X008180Y010425D03*
X008030Y009645D03*
X008020Y009645D03*
X008010Y009645D03*
X008050Y009635D03*
X008060Y009635D03*
X008080Y009625D03*
X008090Y009625D03*
X008110Y009615D03*
X008120Y009615D03*
X008140Y009605D03*
X008150Y009605D03*
X008170Y009595D03*
X008180Y009595D03*
X008200Y009585D03*
X008230Y009575D03*
X008250Y009565D03*
X008280Y009555D03*
X008300Y009545D03*
X008320Y009535D03*
X008650Y009725D03*
X008670Y009715D03*
X008690Y009705D03*
X008710Y009695D03*
X008730Y009685D03*
X008750Y009675D03*
X008760Y009675D03*
X008780Y009665D03*
X008800Y009655D03*
X008810Y009655D03*
X008830Y009645D03*
X008840Y009645D03*
X008860Y009635D03*
X008870Y009635D03*
X008880Y009625D03*
X008890Y009625D03*
X008900Y009625D03*
X008920Y009615D03*
X008930Y009615D03*
X008940Y009615D03*
X008950Y009615D03*
X008960Y009605D03*
X008970Y009605D03*
X008980Y009605D03*
X008990Y009605D03*
X009000Y009595D03*
X009010Y009595D03*
X009020Y009595D03*
X009030Y009595D03*
X009040Y009595D03*
X009050Y009595D03*
X009060Y009595D03*
X009070Y009585D03*
X009080Y009585D03*
X009090Y009585D03*
X009100Y009585D03*
X009110Y009585D03*
X009120Y009585D03*
X009130Y009585D03*
X009140Y009585D03*
X009150Y009585D03*
X009160Y009585D03*
X009170Y009585D03*
X009180Y009585D03*
X009190Y009585D03*
X009200Y009585D03*
X009210Y009585D03*
X009220Y009585D03*
X009230Y009585D03*
X009240Y009585D03*
X009250Y009585D03*
X009260Y009595D03*
X009270Y009595D03*
X009280Y009595D03*
X009290Y009595D03*
X009300Y009595D03*
X009310Y009595D03*
X009330Y009605D03*
X009340Y009605D03*
X009350Y009605D03*
X009370Y009615D03*
X009380Y009615D03*
X009390Y009615D03*
X009500Y009655D03*
X009540Y009675D03*
X010890Y009985D03*
X010990Y010315D03*
X011000Y010315D03*
X011010Y010315D03*
X011020Y010315D03*
X011030Y010315D03*
X011040Y010315D03*
X011050Y010315D03*
X011060Y010315D03*
X011070Y010315D03*
X011080Y010315D03*
X010980Y010325D03*
X010970Y010325D03*
X010960Y010325D03*
X010940Y010335D03*
X010930Y010335D03*
X010920Y010335D03*
X010900Y010345D03*
X007770Y009605D03*
X007760Y009605D03*
X007750Y009605D03*
X007740Y009595D03*
X007730Y009595D03*
X007720Y009595D03*
X007710Y009595D03*
X007700Y009585D03*
X007690Y009585D03*
X007680Y009585D03*
X007670Y009585D03*
X007660Y009585D03*
X007650Y009585D03*
X007640Y009575D03*
X007630Y009575D03*
X007620Y009575D03*
X007610Y009575D03*
X007600Y009575D03*
X007590Y009575D03*
X007580Y009575D03*
X007570Y009575D03*
X007540Y009565D03*
X007530Y009565D03*
X007520Y009565D03*
X007510Y009565D03*
X007500Y009565D03*
X007490Y009565D03*
X007480Y009565D03*
X007470Y009565D03*
X007460Y009565D03*
X007450Y009565D03*
X007440Y009565D03*
X007430Y009565D03*
X007420Y009565D03*
X007410Y009565D03*
X007400Y009565D03*
X007370Y009575D03*
X007360Y009575D03*
X007350Y009575D03*
X007340Y009575D03*
X007330Y009575D03*
X007320Y009575D03*
X007310Y009575D03*
X007300Y009575D03*
X007290Y009575D03*
X007280Y009575D03*
X007260Y009585D03*
X007250Y009585D03*
X007240Y009585D03*
X007230Y009585D03*
X007220Y009585D03*
X007210Y009585D03*
X007200Y009585D03*
X007190Y009585D03*
X007180Y009595D03*
X007170Y009595D03*
X007160Y009595D03*
X007150Y009595D03*
X007140Y009595D03*
X007130Y009595D03*
X007120Y009595D03*
X007110Y009605D03*
X007100Y009605D03*
X007090Y009605D03*
X007080Y009605D03*
X007070Y009605D03*
X007060Y009615D03*
X007050Y009615D03*
X007040Y009615D03*
X007030Y009615D03*
X007020Y009615D03*
X007000Y009625D03*
X006990Y009625D03*
X006980Y009625D03*
X006970Y009625D03*
X006960Y009635D03*
X006950Y009635D03*
X006940Y009635D03*
X006930Y009635D03*
X006920Y009645D03*
X006910Y009645D03*
X009930Y013755D03*
X009950Y013765D03*
X009960Y013765D03*
X009980Y013775D03*
X009990Y013775D03*
X010000Y013775D03*
X010010Y013775D03*
X010020Y013775D03*
X010030Y013775D03*
D21*
X009390Y013330D03*
X008900Y012990D03*
X008740Y013560D03*
X008280Y012540D03*
X008270Y012530D03*
X008010Y012450D03*
X008000Y012470D03*
X007990Y012480D03*
X007980Y012490D03*
X007970Y012510D03*
X007960Y012520D03*
X008270Y011290D03*
X008280Y011290D03*
X008310Y011280D03*
X008840Y010870D03*
X008850Y010860D03*
X008860Y010840D03*
X008870Y010830D03*
X009420Y011250D03*
X009410Y011270D03*
X009360Y011340D03*
X009730Y011600D03*
X009730Y011780D03*
X009560Y011930D03*
X009550Y011930D03*
X009960Y012180D03*
X010050Y012350D03*
X009970Y012500D03*
X010280Y012760D03*
X010310Y012720D03*
X010330Y012690D03*
X010340Y012680D03*
X010350Y012660D03*
X011030Y010550D03*
X011050Y010520D03*
X011060Y010510D03*
X010380Y010340D03*
X010350Y010300D03*
X009870Y009850D03*
X009590Y009400D03*
X009580Y009390D03*
X009560Y009360D03*
X009550Y009350D03*
X009540Y009330D03*
X009530Y009320D03*
X009820Y009220D03*
X008540Y009640D03*
X008530Y009650D03*
X008520Y009670D03*
X008510Y009680D03*
X008220Y009970D03*
X008210Y009960D03*
X007910Y009790D03*
X007960Y009690D03*
X007790Y009640D03*
X007340Y009850D03*
X007330Y009850D03*
X007030Y009850D03*
X007020Y009850D03*
X006690Y009380D03*
X006670Y009350D03*
X006650Y009320D03*
X006630Y009290D03*
X006620Y009280D03*
X006610Y009260D03*
X006600Y009250D03*
X006590Y009230D03*
X006580Y009220D03*
X006570Y009210D03*
X006560Y009190D03*
X006550Y009180D03*
X006530Y009150D03*
X006520Y009140D03*
X006490Y009100D03*
X006230Y008970D03*
X006220Y008980D03*
X006210Y009000D03*
X006200Y009010D03*
X006190Y009020D03*
X006180Y009040D03*
X006170Y009050D03*
X006160Y009070D03*
X006150Y009080D03*
X006130Y009110D03*
X005260Y010390D03*
X005240Y010420D03*
X005230Y010430D03*
X005220Y010450D03*
X005780Y010780D03*
X005800Y010810D03*
X005260Y012320D03*
X005280Y012350D03*
X005290Y012360D03*
X005300Y012380D03*
X005310Y012390D03*
X005340Y012430D03*
X007800Y010560D03*
D22*
X007300Y010555D03*
X007350Y009855D03*
X007010Y009855D03*
X006540Y009165D03*
X006510Y009125D03*
X006500Y009115D03*
X006480Y009085D03*
X006470Y009075D03*
X006460Y009065D03*
X006450Y009045D03*
X006440Y009035D03*
X006430Y009025D03*
X006420Y009015D03*
X006410Y009005D03*
X006390Y008975D03*
X006380Y008965D03*
X006370Y008955D03*
X006360Y008945D03*
X006260Y008935D03*
X006250Y008945D03*
X006240Y008955D03*
X005340Y010295D03*
X005330Y010305D03*
X005320Y010315D03*
X005310Y010325D03*
X005290Y010355D03*
X005280Y010365D03*
X005270Y010375D03*
X005250Y010405D03*
X005790Y010795D03*
X005810Y010825D03*
X005820Y010835D03*
X005830Y010845D03*
X005320Y012405D03*
X005330Y012415D03*
X005350Y012445D03*
X005360Y012455D03*
X005370Y012465D03*
X005380Y012475D03*
X007880Y012615D03*
X007890Y012605D03*
X007900Y012595D03*
X007910Y012585D03*
X007930Y012555D03*
X007940Y012545D03*
X007950Y012535D03*
X008290Y012555D03*
X008300Y012565D03*
X008260Y011295D03*
X008250Y011295D03*
X008240Y011295D03*
X008760Y010965D03*
X008770Y010955D03*
X008780Y010945D03*
X008810Y010905D03*
X008820Y010895D03*
X008830Y010885D03*
X008960Y010695D03*
X009350Y011345D03*
X009340Y011355D03*
X009310Y011395D03*
X009300Y011405D03*
X009290Y011415D03*
X009280Y011425D03*
X009710Y011575D03*
X009720Y011585D03*
X009720Y011795D03*
X009540Y011935D03*
X009950Y012165D03*
X009960Y012515D03*
X010250Y012795D03*
X010260Y012785D03*
X010270Y012775D03*
X010290Y012745D03*
X010300Y012735D03*
X010320Y012705D03*
X010240Y012805D03*
X010940Y010655D03*
X010950Y010645D03*
X010960Y010635D03*
X010970Y010625D03*
X011000Y010585D03*
X011010Y010575D03*
X011020Y010565D03*
X011040Y010535D03*
X010830Y010305D03*
X010970Y009995D03*
X010370Y010325D03*
X010360Y010315D03*
X010340Y010285D03*
X010330Y010275D03*
X010320Y010265D03*
X010280Y010215D03*
X010270Y010205D03*
X010260Y010195D03*
X009690Y009455D03*
X009610Y009425D03*
X009600Y009415D03*
X009520Y009305D03*
X009510Y009295D03*
X009500Y009285D03*
X008500Y009695D03*
X008490Y009705D03*
X008200Y009945D03*
X008190Y009935D03*
X008180Y009925D03*
X008170Y009905D03*
X008160Y009895D03*
X008150Y009885D03*
X008140Y009875D03*
X008130Y009865D03*
X007950Y009685D03*
X007940Y009685D03*
D23*
X008060Y009790D03*
X008070Y009800D03*
X008080Y009810D03*
X008090Y009820D03*
X008100Y009830D03*
X008110Y009840D03*
X008120Y009850D03*
X008470Y009730D03*
X008480Y009720D03*
X007810Y010560D03*
X008390Y010850D03*
X008680Y011040D03*
X008750Y010980D03*
X008790Y010930D03*
X008800Y010920D03*
X008230Y011300D03*
X008220Y011300D03*
X008210Y011300D03*
X009150Y011550D03*
X009220Y011490D03*
X009230Y011480D03*
X009240Y011470D03*
X009250Y011460D03*
X009260Y011450D03*
X009270Y011440D03*
X009320Y011380D03*
X009330Y011370D03*
X009590Y010970D03*
X009710Y011810D03*
X009700Y011820D03*
X009530Y011930D03*
X009910Y012120D03*
X009920Y012130D03*
X009930Y012140D03*
X009940Y012150D03*
X009950Y012530D03*
X009760Y012650D03*
X010090Y012960D03*
X010100Y012950D03*
X010170Y012880D03*
X010180Y012870D03*
X010190Y012860D03*
X010200Y012850D03*
X010210Y012840D03*
X010220Y012830D03*
X010230Y012820D03*
X009560Y013460D03*
X009550Y013450D03*
X009480Y013390D03*
X009470Y013380D03*
X009640Y013530D03*
X009650Y013540D03*
X009720Y013600D03*
X008760Y013590D03*
X008750Y013580D03*
X008370Y012640D03*
X008360Y012630D03*
X008350Y012620D03*
X008340Y012610D03*
X008330Y012600D03*
X008320Y012590D03*
X008310Y012580D03*
X007920Y012570D03*
X007870Y012630D03*
X007860Y012640D03*
X007850Y012650D03*
X007840Y012660D03*
X007830Y012670D03*
X007820Y012680D03*
X007750Y012740D03*
X006980Y011610D03*
X006940Y011590D03*
X006920Y011580D03*
X006910Y011570D03*
X006890Y011560D03*
X006870Y011550D03*
X007150Y010760D03*
X007360Y009850D03*
X006400Y008990D03*
X006350Y008930D03*
X006340Y008920D03*
X006330Y008910D03*
X006280Y008910D03*
X006270Y008920D03*
X005400Y010230D03*
X005390Y010240D03*
X005380Y010250D03*
X005370Y010260D03*
X005360Y010270D03*
X005350Y010280D03*
X005300Y010340D03*
X005840Y010860D03*
X005850Y010870D03*
X005860Y010880D03*
X005870Y010890D03*
X005880Y010900D03*
X005890Y010910D03*
X005900Y010920D03*
X005910Y010930D03*
X005920Y010940D03*
X005930Y010950D03*
X005940Y010960D03*
X005950Y010970D03*
X005960Y010980D03*
X005970Y010990D03*
X005390Y012490D03*
X005400Y012500D03*
X005410Y012510D03*
X005420Y012520D03*
X005430Y012530D03*
X005440Y012540D03*
X005450Y012550D03*
X005460Y012560D03*
X005470Y012570D03*
X005480Y012580D03*
X005490Y012590D03*
X005500Y012600D03*
X009490Y009270D03*
X009620Y009440D03*
X009630Y009450D03*
X009640Y009460D03*
X009680Y009470D03*
X009830Y009210D03*
X009840Y009200D03*
X010120Y010060D03*
X010130Y010070D03*
X010200Y010130D03*
X010210Y010140D03*
X010220Y010150D03*
X010230Y010160D03*
X010240Y010170D03*
X010250Y010180D03*
X010290Y010230D03*
X010300Y010240D03*
X010310Y010250D03*
X010830Y010770D03*
X010840Y010760D03*
X010850Y010750D03*
X010860Y010740D03*
X010870Y010730D03*
X010880Y010720D03*
X010890Y010710D03*
X010900Y010700D03*
X010910Y010690D03*
X010920Y010680D03*
X010930Y010670D03*
X010980Y010610D03*
X010990Y010600D03*
X010820Y010780D03*
X010810Y010790D03*
X010800Y010800D03*
X010790Y010810D03*
X010720Y010870D03*
D24*
X010980Y009985D03*
X009620Y010925D03*
X008990Y010655D03*
D25*
X008930Y010725D03*
X008370Y011265D03*
X008360Y011265D03*
X007780Y010555D03*
X007330Y010555D03*
X007280Y009855D03*
X007270Y009855D03*
X007090Y009855D03*
X007080Y009855D03*
X006860Y009675D03*
X006850Y009655D03*
X006840Y009635D03*
X006830Y009615D03*
X005890Y009505D03*
X005880Y009525D03*
X005870Y009545D03*
X005860Y009565D03*
X005850Y009585D03*
X005150Y010565D03*
X005730Y010695D03*
X005180Y012185D03*
X005190Y012205D03*
X007830Y009665D03*
X007840Y009675D03*
X007980Y009695D03*
X007950Y009855D03*
X007960Y009875D03*
X008320Y010125D03*
X008330Y010145D03*
X008340Y010165D03*
X009570Y010995D03*
X009590Y011925D03*
X009600Y011925D03*
X009780Y012655D03*
X009840Y012765D03*
X009850Y012785D03*
X010440Y012515D03*
X010450Y012495D03*
X010460Y012475D03*
X010470Y012455D03*
X009370Y013325D03*
X008220Y012445D03*
X008100Y012305D03*
X008110Y012285D03*
X008140Y012275D03*
X010510Y010555D03*
X010500Y010535D03*
X010490Y010515D03*
X010480Y010495D03*
X010840Y010295D03*
X010960Y010015D03*
X009710Y009425D03*
D26*
X009570Y009690D03*
X009560Y009690D03*
X009550Y009680D03*
X009530Y009670D03*
X009520Y009670D03*
X009510Y009660D03*
X009490Y009650D03*
X009480Y009650D03*
X009400Y009620D03*
X009360Y009610D03*
X009320Y009600D03*
X009580Y009700D03*
X009590Y009700D03*
X009600Y009710D03*
X009610Y009710D03*
X009620Y009720D03*
X009630Y009730D03*
X009640Y009730D03*
X009650Y009740D03*
X009660Y009740D03*
X009670Y009750D03*
X009680Y009750D03*
X009690Y009760D03*
X009700Y009770D03*
X009710Y009770D03*
X009720Y009780D03*
X009730Y009780D03*
X009740Y009790D03*
X009760Y009800D03*
X009770Y009810D03*
X009790Y009820D03*
X009800Y009830D03*
X009810Y009830D03*
X009820Y009840D03*
X009840Y009850D03*
X009850Y009860D03*
X009910Y009900D03*
X009940Y009920D03*
X009970Y009940D03*
X009980Y009950D03*
X010430Y010290D03*
X010460Y010270D03*
X010470Y010260D03*
X010500Y010240D03*
X010530Y010220D03*
X010540Y010210D03*
X010560Y010200D03*
X010570Y010190D03*
X010600Y010170D03*
X010630Y010150D03*
X010640Y010140D03*
X010660Y010130D03*
X010670Y010120D03*
X010690Y010110D03*
X010700Y010100D03*
X010720Y010090D03*
X010730Y010080D03*
X010750Y010070D03*
X010760Y010060D03*
X010780Y010050D03*
X010790Y010040D03*
X010800Y010040D03*
X010810Y010030D03*
X010830Y010020D03*
X010840Y010010D03*
X010850Y010010D03*
X010860Y010000D03*
X010870Y010000D03*
X010880Y009990D03*
X010900Y009980D03*
X010950Y010330D03*
X010910Y010340D03*
X010890Y010340D03*
X009660Y011530D03*
X009620Y011500D03*
X009600Y011490D03*
X009590Y011480D03*
X009580Y011470D03*
X009570Y011470D03*
X009560Y011460D03*
X009550Y011460D03*
X009540Y011450D03*
X009530Y011440D03*
X009520Y011440D03*
X009510Y011430D03*
X009500Y011430D03*
X009490Y011420D03*
X009480Y011420D03*
X009470Y011410D03*
X009460Y011410D03*
X009450Y011400D03*
X009440Y011400D03*
X009420Y011390D03*
X009320Y011060D03*
X009350Y011050D03*
X009370Y011040D03*
X009400Y011030D03*
X009420Y011020D03*
X009430Y011020D03*
X009450Y011010D03*
X009480Y011000D03*
X009500Y010990D03*
X009290Y011070D03*
X009260Y011080D03*
X009230Y011090D03*
X009200Y011100D03*
X009140Y011120D03*
X009110Y011130D03*
X009080Y011140D03*
X009050Y011150D03*
X008950Y011180D03*
X008880Y011200D03*
X008840Y011210D03*
X008800Y011220D03*
X008760Y011230D03*
X008720Y011240D03*
X008630Y011260D03*
X008560Y011130D03*
X008550Y011130D03*
X008540Y011140D03*
X008530Y011140D03*
X008520Y011150D03*
X008510Y011150D03*
X008500Y011160D03*
X008490Y011170D03*
X008480Y011170D03*
X008470Y011180D03*
X008460Y011180D03*
X008450Y011190D03*
X008440Y011190D03*
X008430Y011200D03*
X008420Y011200D03*
X008410Y011210D03*
X008400Y011210D03*
X008390Y011220D03*
X008380Y011220D03*
X008570Y011120D03*
X008580Y011110D03*
X008590Y011110D03*
X008600Y011100D03*
X008630Y011080D03*
X008550Y010820D03*
X008580Y010810D03*
X008610Y010800D03*
X008640Y010790D03*
X008700Y010770D03*
X008730Y010760D03*
X008760Y010750D03*
X008790Y010740D03*
X008820Y010730D03*
X008850Y010720D03*
X008870Y010710D03*
X008980Y010670D03*
X008520Y010830D03*
X008340Y010880D03*
X008260Y010900D03*
X008220Y010910D03*
X007820Y010560D03*
X007380Y009850D03*
X007780Y009610D03*
X007920Y009680D03*
X008040Y009640D03*
X008070Y009630D03*
X008100Y009620D03*
X008130Y009610D03*
X008160Y009600D03*
X008190Y009590D03*
X008210Y009580D03*
X008220Y009580D03*
X008240Y009570D03*
X008260Y009560D03*
X008270Y009560D03*
X008290Y009550D03*
X008310Y009540D03*
X008330Y009530D03*
X008340Y009530D03*
X008350Y009520D03*
X008360Y009510D03*
X008370Y009510D03*
X008380Y009500D03*
X008390Y009500D03*
X008400Y009490D03*
X008420Y009480D03*
X008430Y009470D03*
X008450Y009460D03*
X008460Y009450D03*
X008480Y009440D03*
X008490Y009430D03*
X008520Y009410D03*
X008550Y009390D03*
X008560Y009380D03*
X008590Y009360D03*
X008600Y009350D03*
X008740Y009680D03*
X008720Y009690D03*
X008700Y009700D03*
X008680Y009710D03*
X008660Y009720D03*
X008640Y009730D03*
X008630Y009740D03*
X008620Y009740D03*
X008610Y009750D03*
X008600Y009750D03*
X008590Y009760D03*
X008570Y009770D03*
X008560Y009780D03*
X008550Y009780D03*
X008540Y009790D03*
X008520Y009800D03*
X008510Y009810D03*
X008480Y009830D03*
X008770Y009670D03*
X008790Y009660D03*
X008820Y009650D03*
X008850Y009640D03*
X008910Y009620D03*
X007220Y011240D03*
X007170Y011230D03*
X006770Y011500D03*
X006750Y011490D03*
X006730Y011480D03*
X006710Y011470D03*
X006700Y011460D03*
X006690Y011460D03*
X006680Y011450D03*
X006670Y011450D03*
X006660Y011440D03*
X006650Y011440D03*
X006640Y011430D03*
X006630Y011430D03*
X006620Y011420D03*
X006610Y011420D03*
X006600Y011410D03*
X006580Y011400D03*
X006560Y011390D03*
X006550Y011380D03*
X006540Y011380D03*
X006530Y011370D03*
X006520Y011370D03*
X006510Y011360D03*
X006500Y011360D03*
X006490Y011350D03*
X006480Y011340D03*
X006470Y011340D03*
X006460Y011330D03*
X006450Y011330D03*
X006440Y011320D03*
X006420Y011310D03*
X006410Y011300D03*
X006400Y011300D03*
X006390Y011290D03*
X006370Y011280D03*
X006360Y011270D03*
X006350Y011270D03*
X006340Y011260D03*
X006320Y011250D03*
X006310Y011240D03*
X006290Y011230D03*
X006280Y011220D03*
X006260Y011210D03*
X006250Y011200D03*
X006230Y011190D03*
X006220Y011180D03*
X006200Y011170D03*
X006190Y011160D03*
X006160Y011140D03*
X006120Y011110D03*
X006080Y011080D03*
X005510Y010140D03*
X005540Y010120D03*
X005550Y010110D03*
X005570Y010100D03*
X005580Y010090D03*
X005600Y010080D03*
X005610Y010070D03*
X005620Y010070D03*
X005630Y010060D03*
X005640Y010060D03*
X006300Y008900D03*
X006310Y008900D03*
X007010Y009620D03*
X008140Y011310D03*
X008150Y011310D03*
X008160Y011310D03*
X008170Y011310D03*
X008580Y011830D03*
X008620Y011820D03*
X008660Y011810D03*
X008690Y011800D03*
X008720Y011790D03*
X008750Y011780D03*
X008780Y011770D03*
X008800Y011760D03*
X008810Y011760D03*
X008830Y011750D03*
X008850Y011740D03*
X008870Y011730D03*
X008890Y011720D03*
X008910Y011710D03*
X008930Y011700D03*
X008940Y011690D03*
X008950Y011690D03*
X008960Y011680D03*
X008970Y011680D03*
X008980Y011670D03*
X009000Y011660D03*
X009010Y011650D03*
X009030Y011640D03*
X009060Y011620D03*
X009070Y011610D03*
X009100Y011590D03*
X009510Y011930D03*
X009610Y011880D03*
X009620Y011870D03*
X009630Y011870D03*
X009640Y011860D03*
X009660Y011850D03*
X009640Y011980D03*
X009670Y011990D03*
X009690Y012000D03*
X009700Y012000D03*
X009720Y012010D03*
X009740Y012020D03*
X009750Y012020D03*
X009760Y012030D03*
X009770Y012030D03*
X009790Y012040D03*
X009800Y012050D03*
X009810Y012050D03*
X009820Y012060D03*
X009830Y012060D03*
X009840Y012070D03*
X009860Y012080D03*
X009870Y012090D03*
X009800Y011690D03*
X009910Y012560D03*
X009900Y012570D03*
X009890Y012570D03*
X009880Y012580D03*
X009870Y012580D03*
X009860Y012590D03*
X009850Y012590D03*
X009830Y012600D03*
X010040Y013000D03*
X009830Y013690D03*
X009860Y013710D03*
X009870Y013720D03*
X009890Y013730D03*
X009900Y013740D03*
X009910Y013740D03*
X009920Y013750D03*
X009940Y013760D03*
X009970Y013770D03*
X010040Y013770D03*
X009330Y013380D03*
X009320Y013390D03*
X009300Y013400D03*
X009290Y013410D03*
X009270Y013420D03*
X009260Y013430D03*
X009240Y013440D03*
X009230Y013450D03*
X009210Y013460D03*
X009200Y013470D03*
X009190Y013470D03*
X009180Y013480D03*
X009160Y013490D03*
X009150Y013500D03*
X009140Y013500D03*
X009130Y013510D03*
X009120Y013510D03*
X009110Y013520D03*
X009090Y013530D03*
X009080Y013540D03*
X009070Y013540D03*
X009060Y013550D03*
X009050Y013550D03*
X009030Y013560D03*
X009010Y013570D03*
X008990Y013580D03*
X008960Y013590D03*
X008930Y013600D03*
X008790Y013610D03*
X008780Y013600D03*
X008770Y013600D03*
X009090Y013090D03*
X009080Y013080D03*
X009060Y013070D03*
X009050Y013060D03*
X009030Y013050D03*
X009020Y013040D03*
X009000Y013030D03*
X008990Y013020D03*
X008970Y013010D03*
X008960Y013000D03*
X008950Y013000D03*
X008940Y012990D03*
X008920Y012980D03*
X008840Y012930D03*
X008830Y012920D03*
X008820Y012920D03*
X008810Y012910D03*
X008800Y012910D03*
X008790Y012900D03*
X008780Y012900D03*
X008770Y012890D03*
X008760Y012890D03*
X008750Y012880D03*
X008730Y012870D03*
X008720Y012860D03*
X008710Y012860D03*
X008700Y012850D03*
X008690Y012850D03*
X008680Y012840D03*
X008670Y012840D03*
X008660Y012830D03*
X008650Y012830D03*
X008640Y012820D03*
X008630Y012820D03*
X008620Y012810D03*
X008610Y012810D03*
X008600Y012800D03*
X008580Y012790D03*
X008570Y012780D03*
X008560Y012780D03*
X008550Y012770D03*
X008540Y012770D03*
X008530Y012760D03*
X008510Y012750D03*
X008500Y012740D03*
X008470Y012720D03*
X008430Y012690D03*
X007670Y012800D03*
X007640Y012820D03*
X007630Y012830D03*
X007610Y012840D03*
X007600Y012850D03*
X007590Y012850D03*
X007580Y012860D03*
X007570Y012860D03*
X007560Y012870D03*
X007550Y012880D03*
X007540Y012880D03*
X007530Y012890D03*
X007520Y012890D03*
X007510Y012900D03*
X007500Y012900D03*
X007480Y012910D03*
X007460Y012920D03*
X007440Y012930D03*
X007420Y012940D03*
X007410Y012940D03*
X007390Y012950D03*
X007360Y012960D03*
X007330Y012970D03*
X007300Y012980D03*
X007270Y012990D03*
X007230Y013000D03*
X007190Y013010D03*
X007140Y013020D03*
X006400Y013010D03*
X006350Y013000D03*
X006260Y012980D03*
X006190Y012960D03*
X006150Y012950D03*
X006120Y012940D03*
X006050Y012920D03*
X006030Y012910D03*
X006000Y012900D03*
X005970Y012890D03*
X005950Y012880D03*
X005930Y012870D03*
X005910Y012860D03*
X005900Y012860D03*
X005890Y012850D03*
X005880Y012850D03*
X005860Y012840D03*
X005840Y012830D03*
X005830Y012820D03*
X005820Y012820D03*
X005810Y012810D03*
X005800Y012810D03*
X005790Y012800D03*
X005780Y012800D03*
X005770Y012790D03*
X005760Y012790D03*
X005750Y012780D03*
X005740Y012770D03*
X005730Y012770D03*
X005720Y012760D03*
X005700Y012750D03*
X005690Y012740D03*
X005680Y012740D03*
X005670Y012730D03*
X005640Y012710D03*
X005600Y012680D03*
X007050Y011650D03*
X007060Y011650D03*
X007080Y011660D03*
X007100Y011670D03*
X007130Y011680D03*
X007150Y011690D03*
X007160Y011690D03*
X007180Y011700D03*
X007210Y011710D03*
X007240Y011720D03*
X007270Y011730D03*
X007300Y011740D03*
X007370Y011760D03*
X007440Y011780D03*
X007570Y011810D03*
X009110Y013100D03*
X009120Y013110D03*
X009140Y013120D03*
X009150Y013130D03*
X009180Y013150D03*
X009220Y013180D03*
X009260Y013210D03*
X009300Y013240D03*
D27*
X008800Y013220D03*
X008790Y013250D03*
X008740Y013370D03*
X008200Y012400D03*
X008150Y012290D03*
X009390Y011320D03*
X009540Y011030D03*
X009550Y011020D03*
X009780Y011690D03*
X010540Y012300D03*
X010530Y012320D03*
X010520Y012350D03*
X009910Y012910D03*
X009920Y012930D03*
X009930Y012960D03*
X009800Y012670D03*
X010560Y010660D03*
X010410Y010350D03*
X010950Y010020D03*
X008610Y009500D03*
X008420Y009830D03*
X008410Y009840D03*
X008250Y009980D03*
X008040Y010050D03*
X008020Y010000D03*
X008010Y009980D03*
X007880Y009710D03*
X007870Y009700D03*
X008380Y010250D03*
X007750Y010560D03*
X007360Y010560D03*
X006960Y009890D03*
X006940Y009840D03*
X006880Y009700D03*
X005810Y009670D03*
X005790Y009720D03*
X005100Y010680D03*
X005120Y012050D03*
D28*
X005070Y011900D03*
X007010Y010040D03*
X006980Y009930D03*
X007460Y010560D03*
X007470Y010560D03*
X007480Y010560D03*
X007630Y010560D03*
X007640Y010560D03*
X007650Y010560D03*
X008270Y009990D03*
X008650Y009390D03*
X010930Y010050D03*
X010610Y012100D03*
X009990Y013110D03*
D29*
X010040Y013280D03*
X010050Y013320D03*
X010030Y012350D03*
X010620Y012060D03*
X009750Y011690D03*
X010630Y010870D03*
X010920Y010070D03*
X009870Y009280D03*
X008420Y010380D03*
X007020Y010080D03*
D30*
X008150Y010395D03*
X010640Y010915D03*
X010910Y010085D03*
X010640Y011985D03*
X010060Y013365D03*
X008720Y013465D03*
D31*
X008700Y013470D03*
X008840Y013110D03*
X010590Y012160D03*
X010600Y012130D03*
X010600Y010770D03*
X010860Y010270D03*
X010900Y010150D03*
X008660Y009370D03*
X008100Y010220D03*
X008410Y010330D03*
X008420Y010790D03*
X007690Y010560D03*
X007420Y010560D03*
X007410Y010560D03*
X006900Y009720D03*
X005750Y009830D03*
X005070Y010760D03*
X005090Y011970D03*
D32*
X005050Y011830D03*
X005040Y010870D03*
X005700Y010580D03*
X006990Y009940D03*
X007030Y010120D03*
X008290Y010000D03*
X008620Y009430D03*
X010880Y010240D03*
X009740Y011690D03*
X007020Y011530D03*
D33*
X007390Y011270D03*
X007620Y011300D03*
X007730Y011310D03*
X007740Y011310D03*
X007940Y011320D03*
X007950Y011320D03*
X007960Y011320D03*
X007970Y011320D03*
X007980Y011320D03*
X007990Y011320D03*
X008080Y011320D03*
X008090Y011320D03*
X008100Y011320D03*
X008110Y011320D03*
X008120Y011320D03*
X008400Y011300D03*
X007930Y010960D03*
X007470Y010960D03*
X007460Y010960D03*
X007330Y010950D03*
X007240Y010940D03*
X007280Y010560D03*
X007390Y009850D03*
X007390Y009570D03*
X007380Y009570D03*
X007270Y009580D03*
X007550Y009570D03*
X007560Y009570D03*
X007810Y011850D03*
X008040Y011870D03*
X008050Y011870D03*
X008230Y011870D03*
X008240Y011870D03*
X008380Y011860D03*
X006830Y013050D03*
X006820Y013050D03*
X006810Y013050D03*
X008670Y013480D03*
X010820Y010320D03*
D34*
X010660Y011015D03*
X010740Y011485D03*
X010110Y013585D03*
X007040Y011415D03*
D35*
X010730Y011465D03*
D36*
X010720Y011455D03*
D37*
X010710Y011445D03*
X007120Y010775D03*
D38*
X010700Y011445D03*
D39*
X010690Y011450D03*
D40*
X010680Y011420D03*
D41*
X010670Y011840D03*
X010000Y012350D03*
X005030Y011720D03*
D42*
X004960Y011310D03*
X007140Y010760D03*
X009450Y009450D03*
X010670Y011080D03*
D43*
X010660Y011895D03*
X010010Y012345D03*
X008140Y010385D03*
D44*
X008480Y010590D03*
X009410Y009510D03*
X010650Y011940D03*
X010020Y012350D03*
X008850Y013050D03*
X010120Y013600D03*
X005710Y009980D03*
D45*
X005030Y010920D03*
X005040Y011780D03*
X007000Y009960D03*
X008730Y013460D03*
X010650Y010960D03*
D46*
X010630Y012025D03*
X010000Y013125D03*
X008860Y013035D03*
X005720Y009935D03*
X005060Y011865D03*
X008630Y009415D03*
D47*
X008670Y009350D03*
X008460Y009790D03*
X008400Y010300D03*
X008080Y010160D03*
X008070Y010130D03*
X007730Y010560D03*
X007720Y010560D03*
X007380Y010560D03*
X006970Y009910D03*
X006890Y009710D03*
X007890Y009720D03*
X007900Y009730D03*
X009530Y011040D03*
X009400Y011320D03*
X010590Y010740D03*
X010570Y012220D03*
X010560Y012250D03*
X009950Y013010D03*
X009970Y013060D03*
X008880Y013010D03*
X008820Y013170D03*
X008190Y012370D03*
X005770Y009770D03*
X005080Y010730D03*
X005100Y012000D03*
X009860Y009250D03*
D48*
X008600Y009525D03*
X008400Y009845D03*
X008390Y009855D03*
X008380Y009865D03*
X008370Y009875D03*
X008360Y009885D03*
X008350Y009895D03*
X008340Y009895D03*
X008330Y009905D03*
X008320Y009915D03*
X008310Y009925D03*
X008370Y010225D03*
X008170Y010415D03*
X008490Y010595D03*
X008910Y010745D03*
X008920Y010735D03*
X008000Y009955D03*
X007990Y009935D03*
X007760Y010555D03*
X007350Y010555D03*
X006930Y009815D03*
X006920Y009795D03*
X006910Y009775D03*
X005830Y009625D03*
X005820Y009645D03*
X005800Y009695D03*
X005720Y010675D03*
X005110Y010655D03*
X004950Y011305D03*
X005130Y012075D03*
X005140Y012095D03*
X008690Y013475D03*
X008760Y013315D03*
X008770Y013295D03*
X008780Y013275D03*
X009350Y013325D03*
X009890Y012865D03*
X009900Y012885D03*
X010490Y012415D03*
X010500Y012395D03*
X010510Y012375D03*
X010550Y010635D03*
X010540Y010615D03*
D49*
X010470Y010480D03*
X010460Y010460D03*
X009500Y011120D03*
X009490Y011140D03*
X009480Y011160D03*
X009460Y011190D03*
X009370Y011330D03*
X009790Y011690D03*
X009580Y011930D03*
X009980Y012480D03*
X009830Y012750D03*
X010390Y012600D03*
X010410Y012570D03*
X010420Y012550D03*
X010430Y012530D03*
X010070Y013730D03*
X008240Y012480D03*
X008230Y012460D03*
X008070Y012360D03*
X008080Y012340D03*
X008090Y012320D03*
X008120Y012270D03*
X008050Y012390D03*
X008340Y011270D03*
X008350Y011270D03*
X007790Y010560D03*
X007320Y010560D03*
X007310Y009850D03*
X007300Y009850D03*
X007290Y009850D03*
X007070Y009850D03*
X007060Y009850D03*
X007050Y009850D03*
X006820Y009600D03*
X006810Y009580D03*
X006800Y009560D03*
X006790Y009540D03*
X006780Y009530D03*
X006770Y009510D03*
X006740Y009460D03*
X006030Y009270D03*
X006010Y009300D03*
X005980Y009350D03*
X005970Y009370D03*
X005950Y009400D03*
X005940Y009420D03*
X005930Y009440D03*
X005920Y009450D03*
X005910Y009470D03*
X005900Y009490D03*
X005200Y010480D03*
X005180Y010510D03*
X005170Y010530D03*
X005160Y010550D03*
X005740Y010720D03*
X005200Y012220D03*
X005210Y012240D03*
X007810Y009650D03*
X007820Y009660D03*
X007970Y009690D03*
X007930Y009820D03*
X008310Y010110D03*
X008570Y009590D03*
X008580Y009570D03*
X009700Y009440D03*
X009790Y009270D03*
X009800Y009250D03*
D50*
X009000Y010640D03*
X008100Y010510D03*
X007830Y010560D03*
X007400Y009850D03*
X010140Y013630D03*
D51*
X010100Y013570D03*
X009430Y009460D03*
D52*
X007060Y011325D03*
X010090Y013555D03*
D53*
X010080Y013540D03*
X009930Y009600D03*
D54*
X007050Y010210D03*
X010070Y013420D03*
D55*
X010010Y013135D03*
X007040Y010165D03*
X008300Y010005D03*
X009880Y009315D03*
D56*
X009990Y012345D03*
D57*
X008470Y010590D03*
X009420Y009470D03*
X009940Y009600D03*
X007060Y010260D03*
X005700Y010050D03*
D58*
X009920Y009565D03*
D59*
X009910Y009530D03*
D60*
X009900Y009555D03*
X005680Y010305D03*
D61*
X009890Y009545D03*
D62*
X009010Y010625D03*
X007770Y009675D03*
X009730Y012645D03*
D63*
X009630Y010910D03*
X008090Y010510D03*
D64*
X007780Y009675D03*
X009490Y011935D03*
D65*
X009470Y009450D03*
X009460Y009450D03*
D66*
X009440Y009455D03*
X007070Y010325D03*
D67*
X007080Y010420D03*
X008460Y010620D03*
D68*
X008450Y010610D03*
D69*
X008440Y010595D03*
X005650Y010305D03*
D70*
X008430Y010580D03*
D71*
X008130Y010375D03*
X007030Y011495D03*
D72*
X008120Y010360D03*
X005020Y010990D03*
D73*
X005660Y010315D03*
X007130Y010765D03*
D74*
X007110Y010790D03*
D75*
X007100Y010785D03*
D76*
X007090Y010800D03*
D77*
X007080Y011170D03*
D78*
X007070Y011260D03*
D79*
X007050Y011375D03*
X005640Y010335D03*
D80*
X005690Y010295D03*
D81*
X005670Y010315D03*
D82*
X005020Y011645D03*
D83*
X005010Y011325D03*
D84*
X005000Y011325D03*
D85*
X004990Y011320D03*
D86*
X004980Y011320D03*
D87*
X004970Y011315D03*
M02*
