G75*
%MOIN*%
%OFA0B0*%
%FSLAX24Y24*%
%IPPOS*%
%LPD*%
%AMOC8*
5,1,8,0,0,1.08239X$1,22.5*
%
%ADD10C,0.0100*%
%ADD11C,0.0040*%
%ADD12C,0.0050*%
%ADD13C,0.0080*%
%ADD14C,0.0060*%
D10*
X000310Y000153D02*
X000310Y009011D01*
X005822Y009011D01*
X005822Y000153D01*
X000310Y000153D01*
X004066Y003438D02*
X004023Y003384D01*
X003977Y003332D01*
X003928Y003283D01*
X003876Y003236D01*
X003822Y003193D01*
X003766Y003152D01*
X003707Y003115D01*
X003647Y003081D01*
X003584Y003051D01*
X003521Y003024D01*
X003455Y003000D01*
X003389Y002980D01*
X003321Y002964D01*
X003253Y002952D01*
X003184Y002944D01*
X003115Y002939D01*
X003045Y002938D01*
X002976Y002941D01*
X002907Y002948D01*
X002839Y002959D01*
X002771Y002973D01*
X002704Y002992D01*
X002638Y003014D01*
X002573Y003039D01*
X002510Y003068D01*
X002449Y003101D01*
X002390Y003137D01*
X002333Y003176D01*
X002277Y003218D01*
X002225Y003263D01*
X002175Y003311D01*
X002128Y003362D01*
X002083Y003416D01*
X002042Y003471D01*
X002004Y003529D01*
X001969Y003589D01*
X001937Y003651D01*
X001909Y003714D01*
X001885Y003779D01*
X001864Y003845D01*
X001847Y003913D01*
X001833Y003981D01*
X001824Y004050D01*
X001818Y004119D01*
X001816Y004188D01*
X001818Y004257D01*
X001824Y004326D01*
X001833Y004395D01*
X001847Y004463D01*
X001864Y004531D01*
X001885Y004597D01*
X001909Y004662D01*
X001937Y004725D01*
X001969Y004787D01*
X002004Y004847D01*
X002042Y004905D01*
X002083Y004960D01*
X002128Y005014D01*
X002175Y005065D01*
X002225Y005113D01*
X002277Y005158D01*
X002333Y005200D01*
X002390Y005239D01*
X002449Y005275D01*
X002510Y005308D01*
X002573Y005337D01*
X002638Y005362D01*
X002704Y005384D01*
X002771Y005403D01*
X002839Y005417D01*
X002907Y005428D01*
X002976Y005435D01*
X003045Y005438D01*
X003115Y005437D01*
X003184Y005432D01*
X003253Y005424D01*
X003321Y005412D01*
X003389Y005396D01*
X003455Y005376D01*
X003521Y005352D01*
X003584Y005325D01*
X003647Y005295D01*
X003707Y005261D01*
X003766Y005224D01*
X003822Y005183D01*
X003876Y005140D01*
X003928Y005093D01*
X003977Y005044D01*
X004023Y004992D01*
X004066Y004938D01*
D11*
X002687Y003735D02*
X002340Y003735D01*
X002514Y003562D02*
X002514Y003909D01*
X003883Y002504D02*
X004230Y002504D01*
X004056Y002331D02*
X004056Y002678D01*
D12*
X004899Y002485D02*
X005306Y002485D01*
X004886Y005543D02*
X004886Y008543D01*
X002086Y008543D01*
X002086Y008043D01*
X001386Y008043D01*
X002086Y008043D02*
X002086Y007043D01*
X001386Y007043D01*
X002086Y007043D02*
X002086Y006043D01*
X001386Y006043D01*
X002086Y006043D02*
X002086Y005543D01*
X004886Y005543D01*
X002826Y007043D02*
X002828Y007101D01*
X002834Y007159D01*
X002844Y007216D01*
X002857Y007273D01*
X002875Y007328D01*
X002896Y007382D01*
X002920Y007435D01*
X002949Y007486D01*
X002980Y007534D01*
X003015Y007581D01*
X003053Y007625D01*
X003093Y007666D01*
X003137Y007705D01*
X003183Y007740D01*
X003231Y007773D01*
X003281Y007802D01*
X003334Y007827D01*
X003387Y007849D01*
X003442Y007868D01*
X003499Y007882D01*
X003556Y007893D01*
X003613Y007900D01*
X003671Y007903D01*
X003730Y007902D01*
X003787Y007897D01*
X003845Y007888D01*
X003902Y007876D01*
X003957Y007859D01*
X004012Y007839D01*
X004065Y007815D01*
X004116Y007788D01*
X004165Y007757D01*
X004212Y007723D01*
X004257Y007686D01*
X004299Y007646D01*
X004339Y007603D01*
X004375Y007558D01*
X004408Y007510D01*
X004438Y007460D01*
X004464Y007409D01*
X004487Y007355D01*
X004507Y007300D01*
X004522Y007244D01*
X004534Y007188D01*
X004542Y007130D01*
X004546Y007072D01*
X004546Y007014D01*
X004542Y006956D01*
X004534Y006898D01*
X004522Y006842D01*
X004507Y006786D01*
X004487Y006731D01*
X004464Y006677D01*
X004438Y006626D01*
X004408Y006576D01*
X004375Y006528D01*
X004339Y006483D01*
X004299Y006440D01*
X004257Y006400D01*
X004212Y006363D01*
X004165Y006329D01*
X004116Y006298D01*
X004065Y006271D01*
X004012Y006247D01*
X003957Y006227D01*
X003902Y006210D01*
X003845Y006198D01*
X003787Y006189D01*
X003730Y006184D01*
X003671Y006183D01*
X003613Y006186D01*
X003556Y006193D01*
X003499Y006204D01*
X003442Y006218D01*
X003387Y006237D01*
X003334Y006259D01*
X003281Y006284D01*
X003231Y006313D01*
X003183Y006346D01*
X003137Y006381D01*
X003093Y006420D01*
X003053Y006461D01*
X003015Y006505D01*
X002980Y006552D01*
X002949Y006600D01*
X002920Y006651D01*
X002896Y006704D01*
X002875Y006758D01*
X002857Y006813D01*
X002844Y006870D01*
X002834Y006927D01*
X002828Y006985D01*
X002826Y007043D01*
X002013Y002202D02*
X001383Y002202D01*
X001383Y001061D01*
X002013Y001061D01*
X002013Y002202D01*
X002013Y002074D02*
X002249Y002074D01*
X002249Y001936D01*
X002013Y001936D01*
X002013Y002074D01*
X002013Y001700D02*
X002249Y001700D01*
X002249Y001562D01*
X002013Y001562D01*
X002013Y001700D01*
X002013Y001326D02*
X002249Y001326D01*
X002249Y001188D01*
X002013Y001188D01*
X002013Y001326D01*
X001563Y001316D02*
X001565Y001344D01*
X001571Y001371D01*
X001581Y001397D01*
X001594Y001421D01*
X001610Y001443D01*
X001630Y001463D01*
X001652Y001479D01*
X001676Y001492D01*
X001702Y001502D01*
X001729Y001508D01*
X001757Y001510D01*
X001785Y001508D01*
X001812Y001502D01*
X001838Y001492D01*
X001862Y001479D01*
X001884Y001463D01*
X001904Y001443D01*
X001920Y001421D01*
X001933Y001397D01*
X001943Y001371D01*
X001949Y001344D01*
X001951Y001316D01*
X001949Y001288D01*
X001943Y001261D01*
X001933Y001235D01*
X001920Y001211D01*
X001904Y001189D01*
X001884Y001169D01*
X001862Y001153D01*
X001838Y001140D01*
X001812Y001130D01*
X001785Y001124D01*
X001757Y001122D01*
X001729Y001124D01*
X001702Y001130D01*
X001676Y001140D01*
X001652Y001153D01*
X001630Y001169D01*
X001610Y001189D01*
X001594Y001211D01*
X001581Y001235D01*
X001571Y001261D01*
X001565Y001288D01*
X001563Y001316D01*
X001383Y001326D02*
X001383Y001188D01*
X001147Y001188D01*
X001147Y001326D01*
X001383Y001326D01*
X001383Y001562D02*
X001147Y001562D01*
X001147Y001700D01*
X001383Y001700D01*
X001383Y001562D01*
X001383Y001936D02*
X001147Y001936D01*
X001147Y002074D01*
X001383Y002074D01*
X001383Y001936D01*
D13*
X004066Y003438D02*
X004066Y004938D01*
D14*
X002066Y004188D02*
X002068Y004251D01*
X002074Y004313D01*
X002084Y004375D01*
X002097Y004437D01*
X002115Y004497D01*
X002136Y004556D01*
X002161Y004614D01*
X002190Y004670D01*
X002222Y004724D01*
X002257Y004776D01*
X002295Y004825D01*
X002337Y004873D01*
X002381Y004917D01*
X002429Y004959D01*
X002478Y004997D01*
X002530Y005032D01*
X002584Y005064D01*
X002640Y005093D01*
X002698Y005118D01*
X002757Y005139D01*
X002817Y005157D01*
X002879Y005170D01*
X002941Y005180D01*
X003003Y005186D01*
X003066Y005188D01*
X003129Y005186D01*
X003191Y005180D01*
X003253Y005170D01*
X003315Y005157D01*
X003375Y005139D01*
X003434Y005118D01*
X003492Y005093D01*
X003548Y005064D01*
X003602Y005032D01*
X003654Y004997D01*
X003703Y004959D01*
X003751Y004917D01*
X003795Y004873D01*
X003837Y004825D01*
X003875Y004776D01*
X003910Y004724D01*
X003942Y004670D01*
X003971Y004614D01*
X003996Y004556D01*
X004017Y004497D01*
X004035Y004437D01*
X004048Y004375D01*
X004058Y004313D01*
X004064Y004251D01*
X004066Y004188D01*
X004064Y004125D01*
X004058Y004063D01*
X004048Y004001D01*
X004035Y003939D01*
X004017Y003879D01*
X003996Y003820D01*
X003971Y003762D01*
X003942Y003706D01*
X003910Y003652D01*
X003875Y003600D01*
X003837Y003551D01*
X003795Y003503D01*
X003751Y003459D01*
X003703Y003417D01*
X003654Y003379D01*
X003602Y003344D01*
X003548Y003312D01*
X003492Y003283D01*
X003434Y003258D01*
X003375Y003237D01*
X003315Y003219D01*
X003253Y003206D01*
X003191Y003196D01*
X003129Y003190D01*
X003066Y003188D01*
X003003Y003190D01*
X002941Y003196D01*
X002879Y003206D01*
X002817Y003219D01*
X002757Y003237D01*
X002698Y003258D01*
X002640Y003283D01*
X002584Y003312D01*
X002530Y003344D01*
X002478Y003379D01*
X002429Y003417D01*
X002381Y003459D01*
X002337Y003503D01*
X002295Y003551D01*
X002257Y003600D01*
X002222Y003652D01*
X002190Y003706D01*
X002161Y003762D01*
X002136Y003820D01*
X002115Y003879D01*
X002097Y003939D01*
X002084Y004001D01*
X002074Y004063D01*
X002068Y004125D01*
X002066Y004188D01*
M02*
